<?xml version="1.0" encoding="UTF-8" standalone="no"?>
<svg width="374px" height="323px" viewBox="0 0 374 323" version="1.1" xmlns="http://www.w3.org/2000/svg" xmlns:xlink="http://www.w3.org/1999/xlink">
    <!-- Generator: Sketch 3.8.1 (29687) - http://www.bohemiancoding.com/sketch -->
    <title>apoiar</title>
    <desc>Created with Sketch.</desc>
    <defs></defs>
    <g id="Page-1" stroke="none" stroke-width="1" fill="none" fill-rule="evenodd">
        <g id="veja_web_pag_landingpage_Icons-16" transform="translate(-2439.000000, -1434.000000)">
            <g id="Site" transform="translate(0.000000, 1340.000000)">
                <g id="Group">
                    <g id="apoiar" transform="translate(2343.000000, 0.000000)">
                        <rect id="Rectangle-18-Copy-4" x="0" y="0" width="512" height="512"></rect>
                        <g id="Doar" transform="translate(97.000000, 96.000000)">
                            <ellipse id="Oval" stroke="#DC4419" stroke-width="3" cx="160.157975" cy="159.746763" rx="159.271472" ry="159.378417"></ellipse>
                            <path d="M321.08589,160.151079 L372.849693,160.151079" id="Shape-Copy-4" stroke="#DC4419" stroke-width="3"></path>
                            <g id="Group" transform="translate(93.325153, 92.086331)" fill="#DC4419">
                                <path d="M78.243865,82.2561151 C78.8650307,82.6705036 79.601227,82.8776978 80.3144172,82.8776978 C81.0276074,82.8776978 81.7638037,82.6705036 82.3849693,82.2561151 C83.6733129,81.4043165 113.696319,61.2143885 124.76227,40.9093525 C127.5,36.6733813 128.949387,31.7697842 128.949387,26.7280576 C128.949387,12.2705036 117.193252,0.529496403 102.768405,0.529496403 C92.1395706,0.529496403 84.2944785,9.34676259 80.3144172,13.9510791 C76.357362,9.34676259 68.4892638,0.529496403 57.8604294,0.529496403 C43.4125767,0.529496403 31.6794479,12.2935252 31.6794479,26.7280576 C31.6794479,31.7697842 33.1288344,36.6733813 35.8665644,40.9093525 C46.9325153,61.1913669 76.9785276,81.4043165 78.243865,82.2561151 L78.243865,82.2561151 Z M57.8834356,8.01151079 C65.3604294,8.01151079 71.6180982,15.2863309 74.9769939,19.2 C77.0705521,21.6402878 78.2208589,22.9755396 80.3144172,22.9755396 C82.4079755,22.9755396 83.5812883,21.6402878 85.6518405,19.2 C89.0107362,15.2863309 95.2684049,8.01151079 102.745399,8.01151079 C113.052147,8.01151079 121.449387,16.4143885 121.449387,26.7280576 C121.449387,30.3654676 120.391104,33.8877698 118.412577,36.9496403 C118.366564,37.0417266 118.297546,37.1338129 118.251534,37.2258993 C109.716258,53.018705 87.2392638,69.6863309 80.291411,74.5899281 C73.3435583,69.6863309 50.8895706,53.018705 42.3312883,37.2258993 C42.2852761,37.1338129 42.2392638,37.0417266 42.1702454,36.9496403 C40.1687117,33.9107914 39.1334356,30.3654676 39.1334356,26.7280576 C39.1794479,16.4143885 47.553681,8.01151079 57.8834356,8.01151079 L57.8834356,8.01151079 Z" id="Shape"></path>
                                <path d="M125.314417,81.3582734 C118.481595,77.352518 112.730061,83.2920863 110.567485,85.5251799 C106.01227,90.2446043 100.513804,94.9179856 97.7530675,97.2201439 C96.5797546,96.6906475 95.2684049,96.3913669 93.9110429,96.3683453 C85.4447853,95.9079137 72.101227,94.3884892 68.7653374,92.4086331 C65.1763804,90.2676259 62.3006135,88.1956835 59.7699387,86.3539568 C52.5,81.0820144 46.7484663,76.9151079 32.4156442,76.9151079 C28.2745399,76.9151079 24.6165644,78.0661871 21.1196319,79.171223 C17.5076687,80.3223022 14.1027607,81.4043165 9.98466258,81.4043165 C5.45245399,81.4043165 1.74846626,85.0877698 1.74846626,89.6460432 L1.74846626,110.618705 C1.74846626,115.153957 5.42944785,118.860432 9.98466258,118.860432 C17.8067485,118.860432 30.0460123,119.251799 32.7377301,120.172662 C37.5920245,121.784173 49.0030675,128.552518 52.9831288,131.038849 C53.0291411,131.061871 53.0751534,131.107914 53.1441718,131.130935 C54.5935583,131.936691 56.2269939,132.351079 57.8604294,132.351079 L95.9125767,132.351079 C99.9386503,132.351079 104.424847,128.621583 105.966258,126.043165 C110.958589,117.755396 128.834356,95.2172662 129.018405,94.9870504 C129.179448,94.7798561 129.317485,94.5726619 129.432515,94.342446 C131.779141,89.6460432 129.984663,84.0978417 125.314417,81.3582734 L125.314417,81.3582734 Z M95.9125767,124.823022 L57.8604294,124.823022 C57.4923313,124.823022 57.1472393,124.730935 56.8251534,124.569784 C55.4217791,123.694964 41.5720859,115.2 35.0843558,113.035971 C30.2530675,111.42446 13.297546,111.355396 9.96165644,111.355396 C9.54754601,111.355396 9.20245399,111.010072 9.20245399,110.595683 L9.20245399,89.6230216 C9.20245399,89.2086331 9.54754601,88.8633094 9.96165644,88.8633094 C15.2300613,88.8633094 19.5552147,87.505036 23.351227,86.2848921 C26.595092,85.2489209 29.4018405,84.3741007 32.392638,84.3741007 C44.2868098,84.3741007 48.4509202,87.3899281 55.3527607,92.3856115 C58.0214724,94.3194245 61.0352761,96.5064748 64.9003067,98.8086331 C66.8558282,99.9597122 70.0766871,100.880576 73.6886503,101.594245 C81.4647239,103.113669 91.0352761,103.689209 93.5659509,103.827338 L93.7730061,103.827338 C95.0153374,103.827338 96.0276074,104.840288 96.0276074,106.083453 C96.0276074,107.326619 95.0153374,108.316547 93.7730061,108.316547 L93.5659509,108.316547 L65.2453988,109.81295 C62.9907975,109.720863 57.6763804,105.968345 54.1334356,103.458993 C53.2131902,102.814388 52.3159509,102.192806 51.4417178,101.571223 C49.5322086,100.258993 47.6917178,99.0618705 46.0352761,98.2330935 C44.1947853,97.3122302 41.940184,98.0489209 41.0199387,99.9136691 C40.0996933,101.755396 40.8358896,104.011511 42.6993865,104.932374 C44.6319018,105.899281 47.1395706,107.671942 49.8082822,109.582734 C55.4217791,113.565468 60.7131902,117.317986 65.3144172,117.317986 L65.5214724,117.317986 L93.8650307,115.821583 C99.1794479,115.752518 103.481595,111.42446 103.481595,106.083453 C103.481595,104.886331 103.27454,103.735252 102.860429,102.653237 C105.851227,100.166906 111.257669,95.5165468 115.927914,90.705036 C119.125767,87.4129496 120.391104,87.1366906 121.495399,87.781295 C122.484663,88.3568345 123.220859,89.5079137 122.829755,90.6359712 C120.345092,93.7669065 104.447853,113.910791 99.5245399,122.106475 C98.9263804,123.211511 96.7177914,124.730935 95.9125767,124.823022 L95.9125767,124.823022 Z" id="Shape"></path>
                            </g>
                        </g>
                    </g>
                </g>
            </g>
        </g>
    </g>
</svg>