<?xml version="1.0" encoding="UTF-8" standalone="no"?>
<svg width="374px" height="323px" viewBox="0 0 374 323" version="1.1" xmlns="http://www.w3.org/2000/svg" xmlns:xlink="http://www.w3.org/1999/xlink">
    <!-- Generator: Sketch 3.8.1 (29687) - http://www.bohemiancoding.com/sketch -->
    <title>calendario</title>
    <desc>Created with Sketch.</desc>
    <defs></defs>
    <g id="Page-1" stroke="none" stroke-width="1" fill="none" fill-rule="evenodd">
        <g id="veja_web_pag_landingpage_Icons-16" transform="translate(-647.000000, -1433.000000)">
            <g id="Site" transform="translate(0.000000, 1340.000000)">
                <g id="Group">
                    <g id="calendario" transform="translate(553.000000, 0.000000)">
                        <rect id="Rectangle-18" x="0" y="0" width="512" height="512"></rect>
                        <g transform="translate(96.000000, 95.000000)">
                            <path d="M210.909509,100.742446 L199.314417,100.742446 L199.314417,89.1395683 L191.584356,89.1395683 L191.584356,100.742446 L129.720859,100.742446 L129.720859,89.1395683 L121.990798,89.1395683 L121.990798,100.742446 L110.395706,100.742446 C99.743865,100.742446 91.047546,109.421583 91.047546,120.103597 L91.047546,209.105036 C91.047546,219.764029 99.7208589,228.466187 110.395706,228.466187 L210.932515,228.466187 C221.584356,228.466187 230.280675,219.78705 230.280675,209.105036 L230.280675,139.441727 L230.280675,131.706475 L230.280675,120.103597 C230.234663,109.421583 221.56135,100.742446 210.909509,100.742446 L210.909509,100.742446 Z M222.504601,209.082014 C222.504601,215.482014 217.305215,220.684892 210.909509,220.684892 L110.372699,220.684892 C103.976994,220.684892 98.7776074,215.482014 98.7776074,209.082014 L98.7776074,139.441727 L222.504601,139.441727 L222.504601,209.082014 L222.504601,209.082014 Z M222.504601,131.706475 L98.7776074,131.706475 L98.7776074,120.103597 C98.7776074,113.703597 103.976994,108.500719 110.372699,108.500719 L121.967791,108.500719 L121.967791,116.235971 L129.697853,116.235971 L129.697853,108.500719 L191.56135,108.500719 L191.56135,116.235971 L199.291411,116.235971 L199.291411,108.500719 L210.886503,108.500719 C217.282209,108.500719 222.481595,113.703597 222.481595,120.103597 L222.481595,131.706475 L222.504601,131.706475 Z" id="Shape" fill="#DC4419"></path>
                            <ellipse id="Oval" stroke="#DC4419" stroke-width="3" cx="159.743865" cy="159.746763" rx="159.271472" ry="159.378417"></ellipse>
                            <path d="M320.08589,161.151079 L371.849693,161.151079" id="Shape-Copy" stroke="#DC4419" stroke-width="3"></path>
                        </g>
                    </g>
                </g>
            </g>
        </g>
    </g>
</svg>