<?xml version="1.0" encoding="UTF-8" standalone="no"?>
<svg width="374px" height="324px" viewBox="0 0 374 324" version="1.1" xmlns="http://www.w3.org/2000/svg" xmlns:xlink="http://www.w3.org/1999/xlink">
    <!-- Generator: Sketch 3.8.1 (29687) - http://www.bohemiancoding.com/sketch -->
    <title>Lampadalapis</title>
    <desc>Created with Sketch.</desc>
    <defs></defs>
    <g id="Page-1" stroke="none" stroke-width="1" fill="none" fill-rule="evenodd">
        <g id="veja_web_pag_landingpage_Icons-16" transform="translate(-96.000000, -1434.000000)">
            <g id="Site" transform="translate(0.000000, 1340.000000)">
                <g id="Group">
                    <g id="Lampadalapis" transform="translate(0.000000, 1.000000)">
                        <rect id="Rectangle-18-Copy" x="0" y="0" width="512" height="512"></rect>
                        <g id="lampada" transform="translate(98.000000, 95.000000)">
                            <g transform="translate(91.243316, 88.000000)" id="Shape" fill="#DC4419">
                                <path d="M43.8538792,0.13880597 C19.3169959,0.13880597 0.0991353286,19.3634328 0.0991353286,43.9089552 C0.0991353286,55.4298507 4.65499396,66.6037313 12.5872757,74.538806 L13.2116828,75.1634328 L13.2116828,94.2492537 L74.4960756,94.2492537 L74.4960756,75.1634328 L75.1204826,74.538806 C83.0527644,66.6037313 87.608623,55.4298507 87.608623,43.9089552 C87.608623,19.3634328 68.3907625,0.13880597 43.8538792,0.13880597 L43.8538792,0.13880597 Z M66.9338127,69.75 L65.6618725,71.0223881 L65.6618725,85.388806 L22.0458858,85.388806 L22.0458858,71.0223881 L20.704567,69.680597 C13.3966923,63.7119403 8.93333836,54.0186567 8.93333836,43.9089552 C8.93333836,24.3141791 24.2659997,8.9761194 43.8538792,8.9761194 C63.4417587,8.9761194 78.77442,24.3141791 78.77442,43.9089552 C78.77442,53.9955224 74.3341923,63.6425373 66.9338127,69.75 L66.9338127,69.75 Z"></path>
                                <polygon points="39.4367776 153.264925 48.2709807 153.264925 48.2709807 133.577612 74.4960756 133.577612 74.4960756 105.076119 13.2116828 105.076119 13.2116828 133.577612 39.4367776 133.577612"></polygon>
                                <path d="M135.641711,0.13880597 L109.416616,0.13880597 C106.641474,0.13880597 104.999515,1.78134328 104.999515,4.55746269 L104.999515,129.158955 C104.999515,129.968657 105.554543,131.079104 106.086446,132.143284 L119.060236,151.599254 C119.800274,152.732836 120.933457,153.264925 122.529164,153.264925 C123.569842,153.264925 124.911161,152.547761 126.113723,151.414179 L139.110639,131.935075 C139.503784,131.102239 140.058813,129.991791 140.058813,129.18209 L140.058813,4.55746269 C140.058813,1.78134328 138.393727,0.13880597 135.641711,0.13880597 L135.641711,0.13880597 Z M131.22461,127.840299 L122.529164,140.88806 L113.833718,127.840299 L113.833718,8.9761194 L131.22461,8.9761194 L131.22461,127.840299 L131.22461,127.840299 Z"></path>
                            </g>
                            <ellipse id="Oval" stroke="#DC4419" stroke-width="3" cx="159.926471" cy="160" rx="159.926471" ry="160"></ellipse>
                            <path d="M319.860963,160.5 L372,160.5" id="Shape" stroke="#DC4419" stroke-width="3"></path>
                        </g>
                    </g>
                </g>
            </g>
        </g>
    </g>
</svg>