<?xml version="1.0" encoding="UTF-8" standalone="no"?>
<svg width="374px" height="323px" viewBox="0 0 374 323" version="1.1" xmlns="http://www.w3.org/2000/svg" xmlns:xlink="http://www.w3.org/1999/xlink">
    <!-- Generator: Sketch 3.8.1 (29687) - http://www.bohemiancoding.com/sketch -->
    <title>notificacoes</title>
    <desc>Created with Sketch.</desc>
    <defs></defs>
    <g id="Page-1" stroke="none" stroke-width="1" fill="none" fill-rule="evenodd">
        <g id="veja_web_pag_landingpage_Icons-16" transform="translate(-1147.000000, -1433.000000)">
            <g id="Site" transform="translate(0.000000, 1340.000000)">
                <g id="Group">
                    <g id="notificacoes" transform="translate(1053.000000, 0.000000)">
                        <rect id="Rectangle-18-Copy-2" x="0" y="0" width="512" height="512"></rect>
                        <g id="notificações" transform="translate(96.000000, 95.000000)">
                            <path d="M227.116564,197.801439 C226.863497,197.548201 201.119632,172.661871 201.119632,149.364029 L201.119632,146.900719 C201.142638,131.061871 201.18865,113.105036 190.214724,102.100719 C183.473926,95.3553957 173.650307,92.0633094 160.168712,92.0633094 C145.881902,92.0633094 135.552147,95.447482 128.604294,102.423022 C117.745399,113.335252 117.791411,130.854676 117.837423,146.302158 L117.837423,149.364029 C117.837423,172.385612 91.2653374,196.696403 90.1380368,197.709353 C89.3788344,198.4 88.9187117,199.320863 88.8726994,200.356835 C88.8266871,201.392806 89.148773,202.359712 89.8389571,203.119424 C90.5521472,203.92518 91.6104294,204.408633 92.6917178,204.408633 L134.447853,204.408633 C136.242331,217.461871 147.446319,227.061871 160.398773,227.061871 C161.388037,227.061871 162.400307,227.015827 163.412577,226.900719 C175.398773,225.519424 184.76227,216.310791 186.395706,204.408633 L224.516871,204.408633 C225.529141,204.408633 226.495399,204.017266 227.231595,203.280576 C227.967791,202.543885 228.358896,201.6 228.358896,200.564029 C228.312883,199.528058 227.875767,198.515108 227.116564,197.801439 L227.116564,197.801439 Z M178.619632,204.408633 C176.894172,213.110791 169.141104,219.533813 160.191718,219.395683 C151.31135,219.303597 143.857362,213.041727 142.20092,204.408633 L178.619632,204.408633 L178.619632,204.408633 Z M125.498466,146.256115 C125.452454,131.614388 125.406442,116.466187 134.033742,107.810072 C139.46319,102.353957 148.021472,99.7064748 160.168712,99.7064748 C171.510736,99.7064748 179.58589,102.261871 184.808282,107.48777 C193.527607,116.235971 193.504601,131.798561 193.481595,146.877698 L193.481595,149.364029 C193.481595,168.241727 206.940184,186.751079 215.636503,196.742446 L101.96319,196.742446 C111.211656,186.751079 125.521472,168.241727 125.521472,149.364029 L125.498466,146.256115 L125.498466,146.256115 Z" id="Shape" fill="#DC4419"></path>
                            <ellipse id="Oval" stroke="#DC4419" stroke-width="3" cx="159.731595" cy="159.746763" rx="159.271472" ry="159.378417"></ellipse>
                            <path d="M320.08589,161.151079 L371.849693,161.151079" id="Shape-Copy-2" stroke="#DC4419" stroke-width="3"></path>
                        </g>
                    </g>
                </g>
            </g>
        </g>
    </g>
</svg>