<?xml version="1.0" encoding="UTF-8" standalone="no"?>
<svg width="373px" height="323px" viewBox="0 0 373 323" version="1.1" xmlns="http://www.w3.org/2000/svg" xmlns:xlink="http://www.w3.org/1999/xlink">
    <!-- Generator: Sketch 3.8.1 (29687) - http://www.bohemiancoding.com/sketch -->
    <title>stream</title>
    <desc>Created with Sketch.</desc>
    <defs></defs>
    <g id="Page-1" stroke="none" stroke-width="1" fill="none" fill-rule="evenodd">
        <g id="veja_web_pag_landingpage_Icons-16" transform="translate(-1706.000000, -1437.000000)">
            <g id="Site" transform="translate(0.000000, 1340.000000)">
                <g id="Group">
                    <g id="stream" transform="translate(1613.000000, 0.000000)">
                        <rect id="Rectangle-18-Copy-3" x="0" y="0" width="512" height="512"></rect>
                        <g transform="translate(95.000000, 99.000000)">
                            <g id="Group" transform="translate(87.423313, 103.597122)" fill="#DC4419">
                                <path d="M122.921779,2.90071942 C122.02454,2.0028777 120.828221,1.49640288 119.562883,1.49640288 C118.297546,1.49640288 117.124233,2.0028777 116.203988,2.90071942 C114.317485,4.78848921 114.317485,7.7352518 116.203988,9.6 C127.891104,21.294964 134.332822,36.8805755 134.332822,53.4561151 C134.332822,70.0316547 127.891104,85.6172662 116.203988,97.3122302 C114.317485,99.2 114.317485,102.146763 116.203988,104.011511 C118.113497,105.922302 121.196319,105.761151 122.668712,104.103597 C136.242331,90.5208633 143.696319,72.5410072 143.719325,53.4100719 C143.742331,34.2791367 136.357362,16.3453237 122.921779,2.90071942 L122.921779,2.90071942 Z" id="Shape"></path>
                                <path d="M100.881902,24.8172662 C99.9846626,23.9194245 98.7883436,23.4129496 97.5230061,23.4129496 C96.2576687,23.4129496 95.0843558,23.9194245 94.1641104,24.8172662 C92.2776074,26.705036 92.2776074,29.628777 94.1641104,31.5165468 C100.030675,37.3870504 103.251534,45.2143885 103.228528,53.571223 C103.205521,61.8129496 99.9846626,69.5251799 94.1641104,75.2805755 C92.3006135,77.1453237 92.3006135,80.0920863 94.1641104,81.9798561 C96.0736196,83.8906475 99.1564417,83.7294964 100.628834,82.0719424 C108.404908,74.428777 112.661043,64.3453237 112.707055,53.5942446 C112.776074,42.7280576 108.565951,32.5064748 100.881902,24.8172662 L100.881902,24.8172662 Z" id="Shape"></path>
                                <path d="M10.559816,53.4330935 C10.5828221,36.857554 17.0245399,21.294964 28.7116564,9.6 C30.5981595,7.71223022 30.5981595,4.78848921 28.7116564,2.90071942 C27.7684049,1.95683453 26.5720859,1.49640288 25.3527607,1.49640288 C24.1564417,1.49640288 22.9371166,1.95683453 21.993865,2.90071942 C-5.82055215,30.7338129 -5.82055215,76.0402878 21.993865,103.873381 C23.9033742,105.784173 26.9861963,105.623022 28.458589,103.965468 C30.4141104,102.008633 30.4141104,99.0618705 28.5276074,97.1741007 C16.9325153,85.5251799 10.5368098,70.0086331 10.559816,53.4330935 L10.559816,53.4330935 Z" id="Shape"></path>
                                <path d="M50.6134969,24.8172662 C49.7162577,23.9194245 48.5199387,23.4129496 47.2546012,23.4129496 C45.9892638,23.4129496 44.8159509,23.9194245 43.8957055,24.8172662 C28.1595092,40.5640288 28.1595092,66.2100719 43.8957055,81.9798561 C45.8052147,83.8906475 48.8880368,83.7294964 50.3604294,82.0719424 C51.3496933,81.0820144 51.8328221,79.8848921 51.8328221,78.6417266 C51.8328221,77.3755396 51.3266871,76.2014388 50.4294479,75.2805755 C38.4892638,63.171223 38.5812883,43.5568345 50.5904908,31.5395683 C52.4769939,29.628777 52.4769939,26.6820144 50.6134969,24.8172662 L50.6134969,24.8172662 Z" id="Shape"></path>
                                <path d="M72.4693252,44.0402878 C67.3159509,44.0402878 63.1288344,48.2302158 63.1288344,53.3870504 C63.1288344,58.5438849 67.3159509,62.7338129 72.4693252,62.7338129 C77.6226994,62.7338129 81.809816,58.5438849 81.809816,53.3870504 C81.809816,48.2302158 77.6226994,44.0402878 72.4693252,44.0402878 L72.4693252,44.0402878 Z" id="Shape"></path>
                            </g>
                            <ellipse id="Oval" stroke="#DC4419" stroke-width="3" cx="159.294479" cy="159.746763" rx="159.271472" ry="159.378417"></ellipse>
                            <path d="M319.08589,157.151079 L370.849693,157.151079" id="Shape-Copy-3" stroke="#DC4419" stroke-width="3"></path>
                        </g>
                    </g>
                </g>
            </g>
        </g>
    </g>
</svg>