<?xml version="1.0" encoding="utf-8"?>
<!-- Generator: Adobe Illustrator 24.0.1, SVG Export Plug-In . SVG Version: 6.00 Build 0)  -->
<svg version="1.1" xmlns="http://www.w3.org/2000/svg" xmlns:xlink="http://www.w3.org/1999/xlink" x="0px" y="0px"
	 viewBox="0 0 31.84 50.47" style="enable-background:new 0 0 31.84 50.47;" xml:space="preserve">
<style type="text/css">
	.st0{fill:#FFFFFF;}
	.st1{fill:#EB5766;}
	.st2{fill:#1C1E1D;}
	.st3{fill:none;}
	.st4{fill-rule:evenodd;clip-rule:evenodd;fill:#FFFFFF;}
	.st5{fill-rule:evenodd;clip-rule:evenodd;fill:#9D9D9C;}
	.st6{fill:#9D9D9C;}
	.st7{fill:#F7F8FA;}
	.st8{fill:#EF7D34;}
	.st9{fill:#31BEEF;}
	.st10{fill:#DC4419;}
	.st11{opacity:0.6;}
	.st12{fill:#455A64;}
	.st13{fill:#263239;}
	.st14{fill:none;stroke:#DC4419;stroke-width:3;stroke-miterlimit:10;}
	.st15{fill:#0F72B9;}
	.st16{fill:#3AB8BD;}
	.st17{fill:#74B73A;}
	.st18{fill:#97A3AA;}
	.st19{fill:#F8B333;}
	.st20{fill:#E73E33;}
	.st21{fill:#DC4438;}
	.st22{fill:#020203;}
	.st23{display:none;}
	.st24{display:inline;opacity:0.3;fill:#3AAA35;}
	.st25{display:inline;opacity:0.3;fill:#E71D73;}
	.st26{display:inline;opacity:0.1;fill:#009FE3;}
</style>
<g id="Fundo">
</g>
<g id="Site">
	<g>
		<path class="st10" d="M1.05,15.91C0.47,15.91,0,16.38,0,16.96v8.12c0,8.42,6.57,15.31,14.86,15.86v7.43h-3.69
			c-0.58,0-1.05,0.47-1.05,1.05c0,0.58,0.47,1.05,1.05,1.05h9.48c0.58,0,1.05-0.47,1.05-1.05c0-0.58-0.47-1.05-1.05-1.05h-3.69
			v-7.43c8.29-0.54,14.88-7.44,14.88-15.86v-8.12c0-0.58-0.47-1.05-1.05-1.05c-0.58,0-1.05,0.47-1.05,1.05v1.86h-3.13v-8.13
			C26.61,4.79,21.82,0,15.91,0C10.02,0,5.23,4.79,5.23,10.69v8.13H2.1v-1.86C2.1,16.38,1.63,15.91,1.05,15.91z M7.33,15.86h2.38
			c0.58,0,1.05-0.47,1.05-1.05s-0.47-1.05-1.05-1.05H7.33v-1.47h2.38c0.58,0,1.05-0.47,1.05-1.05c0-0.58-0.47-1.05-1.05-1.05H7.36
			c0.26-4.5,3.99-8.09,8.57-8.09c4.56,0,8.3,3.59,8.56,8.09h-2.36c-0.58,0-1.05,0.47-1.05,1.05c0,0.58,0.47,1.05,1.05,1.05h2.38
			v1.47h-2.38c-0.58,0-1.05,0.47-1.05,1.05s0.47,1.05,1.05,1.05h2.38v2.95H7.33V15.86z M7.33,20.92h17.18v4.16
			c0,4.73-3.85,8.58-8.6,8.58c-4.73,0-8.58-3.85-8.58-8.58V20.92z M5.23,20.92v4.16c0,5.89,4.79,10.69,10.7,10.69
			c5.89,0,10.69-4.79,10.69-10.69v-4.16h3.13v4.16c0,7.62-6.2,13.81-13.82,13.81c-7.62,0-13.81-6.2-13.81-13.81v-4.16H5.23z"/>
		<path class="st10" d="M15.93,31.56c3.57,0,6.48-2.91,6.48-6.48c0-0.58-0.47-1.05-1.05-1.05s-1.05,0.47-1.05,1.05
			c0,2.41-1.96,4.38-4.38,4.38c-0.58,0-1.05,0.47-1.05,1.05C14.88,31.09,15.35,31.56,15.93,31.56z"/>
	</g>
</g>
<g id="_x35_col" class="st23">
	<rect x="-183.18" y="-2633.63" class="st24" width="255" height="3454.69"/>
</g>
<g id="_x34_col" class="st23">
</g>
<g id="_x38__col" class="st23">
	<rect x="-10.06" y="-2633.63" class="st26" width="143.12" height="3794.82"/>
</g>
</svg>
