<?xml version="1.0" encoding="utf-8"?>
<!-- Generator: Adobe Illustrator 24.0.1, SVG Export Plug-In . SVG Version: 6.00 Build 0)  -->
<svg version="1.1" xmlns="http://www.w3.org/2000/svg" xmlns:xlink="http://www.w3.org/1999/xlink" x="0px" y="0px"
	 viewBox="0 0 71.02 71.02" style="enable-background:new 0 0 71.02 71.02;" xml:space="preserve">
<style type="text/css">
	.st0{fill:#FFFFFF;}
	.st1{fill:#EB5766;}
	.st2{fill:#1C1E1D;}
	.st3{fill:none;}
	.st4{fill-rule:evenodd;clip-rule:evenodd;fill:#FFFFFF;}
	.st5{fill-rule:evenodd;clip-rule:evenodd;fill:#9D9D9C;}
	.st6{fill:#9D9D9C;}
	.st7{fill:#F7F8FA;}
	.st8{fill:#EF7D34;}
	.st9{fill:#31BEEF;}
	.st10{fill:#DC4419;}
	.st11{opacity:0.6;}
	.st12{fill:#455A64;}
	.st13{fill:#263239;}
	.st14{fill:none;stroke:#DC4419;stroke-width:3;stroke-miterlimit:10;}
	.st15{fill:#0F72B9;}
	.st16{fill:#3AB8BD;}
	.st17{fill:#74B73A;}
	.st18{fill:#97A3AA;}
	.st19{fill:#F8B333;}
	.st20{fill:#E73E33;}
	.st21{fill:#DC4438;}
	.st22{fill:#020203;}
	.st23{display:none;}
	.st24{display:inline;opacity:0.3;fill:#3AAA35;}
	.st25{display:inline;opacity:0.3;fill:#E71D73;}
	.st26{display:inline;opacity:0.1;fill:#009FE3;}
</style>
<g id="Fundo">
	<circle class="st4" cx="35.51" cy="35.51" r="35.51"/>
	<g>
		<g>
			<g>
				<path class="st5" d="M31.02,37.11l-0.16,16.64c0,0.24,0.19,0.44,0.43,0.44l6.18,0.06c0.24,0,0.44-0.19,0.44-0.43l0.16-16.91
					l4.48,0.04c0.23,0,0.41-0.17,0.44-0.39l0.48-5.09c0.02-0.25-0.17-0.47-0.43-0.47l-4.91-0.05l0.03-3.61
					c0.01-0.85,0.7-1.53,1.55-1.52l3.45,0.03c0.24,0,0.44-0.19,0.44-0.43l0.05-5.09c0-0.24-0.19-0.44-0.43-0.44l-5.83-0.06
					c-3.42-0.03-6.22,2.72-6.26,6.14l-0.05,4.91l-3.09-0.03c-0.24,0-0.44,0.19-0.44,0.43l-0.05,5.09c0,0.24,0.19,0.44,0.43,0.44
					l3.09,0.03L31.02,37.11z"/>
			</g>
		</g>
	</g>
</g>
<g id="Site">
</g>
<g id="_x35_col" class="st23">
	<rect x="-143.01" y="-2831.97" class="st24" width="255" height="3454.69"/>
</g>
<g id="_x34_col" class="st23">
</g>
<g id="_x38__col" class="st23">
	<rect x="-0.51" y="-2831.97" class="st26" width="143.12" height="3794.82"/>
</g>
</svg>
