<?xml version="1.0" encoding="utf-8"?>
<!-- Generator: Adobe Illustrator 24.0.1, SVG Export Plug-In . SVG Version: 6.00 Build 0)  -->
<svg version="1.1" xmlns="http://www.w3.org/2000/svg" xmlns:xlink="http://www.w3.org/1999/xlink" x="0px" y="0px"
	 viewBox="0 0 71.02 71.02" style="enable-background:new 0 0 71.02 71.02;" xml:space="preserve">
<style type="text/css">
	.st0{fill:#FFFFFF;}
	.st1{fill:#EB5766;}
	.st2{fill:#1C1E1D;}
	.st3{fill:none;}
	.st4{fill-rule:evenodd;clip-rule:evenodd;fill:#FFFFFF;}
	.st5{fill-rule:evenodd;clip-rule:evenodd;fill:#9D9D9C;}
	.st6{fill:#9D9D9C;}
	.st7{fill:#F7F8FA;}
	.st8{fill:#EF7D34;}
	.st9{fill:#31BEEF;}
	.st10{fill:#DC4419;}
	.st11{opacity:0.6;}
	.st12{fill:#455A64;}
	.st13{fill:#263239;}
	.st14{fill:none;stroke:#DC4419;stroke-width:3;stroke-miterlimit:10;}
	.st15{fill:#0F72B9;}
	.st16{fill:#3AB8BD;}
	.st17{fill:#74B73A;}
	.st18{fill:#97A3AA;}
	.st19{fill:#F8B333;}
	.st20{fill:#E73E33;}
	.st21{fill:#DC4438;}
	.st22{fill:#020203;}
	.st23{display:none;}
	.st24{display:inline;opacity:0.3;fill:#3AAA35;}
	.st25{display:inline;opacity:0.3;fill:#E71D73;}
	.st26{display:inline;opacity:0.1;fill:#009FE3;}
</style>
<g id="Fundo">
	<circle class="st4" cx="35.51" cy="35.51" r="35.51"/>
	<g>
		<g>
			<path class="st6" d="M44.86,24.62c-1.05,0-1.9,0.85-1.9,1.9s0.85,1.9,1.9,1.9s1.9-0.85,1.9-1.9S45.9,24.62,44.86,24.62z
				 M36.42,27.05c-4.39,0-7.97,3.57-7.97,7.97s3.57,7.97,7.97,7.97c4.39,0,7.97-3.57,7.97-7.97S40.82,27.05,36.42,27.05z
				 M36.42,40.12c-2.81,0-5.1-2.29-5.1-5.1c0-2.81,2.29-5.1,5.1-5.1c2.81,0,5.1,2.29,5.1,5.1C41.53,37.83,39.24,40.12,36.42,40.12z
				 M52.5,28.4c0-5.37-4.35-9.72-9.72-9.72H29.96c-5.37,0-9.72,4.35-9.72,9.72v12.83c0,5.37,4.35,9.72,9.72,9.72h12.83
				c5.37,0,9.72-4.35,9.72-9.72V28.4z M49.46,41.23c0,3.69-2.99,6.67-6.68,6.67H29.96c-3.69,0-6.68-2.99-6.68-6.67V28.4
				c0-3.69,2.99-6.67,6.68-6.67h12.83c3.69,0,6.68,2.99,6.68,6.67V41.23z"/>
		</g>
	</g>
</g>
<g id="Site">
</g>
<g id="_x35_col" class="st23">
	<rect x="55.11" y="-2831.97" class="st24" width="255" height="3454.69"/>
	<rect x="-219.9" y="-2831.97" class="st24" width="255" height="3454.69"/>
</g>
<g id="_x34_col" class="st23">
</g>
<g id="_x38__col" class="st23">
	<rect x="-77.4" y="-2831.97" class="st26" width="143.12" height="3794.82"/>
</g>
</svg>
