<?xml version="1.0" encoding="utf-8"?>
<!-- Generator: Adobe Illustrator 24.0.1, SVG Export Plug-In . SVG Version: 6.00 Build 0)  -->
<svg version="1.1" xmlns="http://www.w3.org/2000/svg" xmlns:xlink="http://www.w3.org/1999/xlink" x="0px" y="0px"
	 viewBox="0 0 49.85 45.56" style="enable-background:new 0 0 49.85 45.56;" xml:space="preserve">
<style type="text/css">
	.st0{fill:#FFFFFF;}
	.st1{fill:#EB5766;}
	.st2{fill:#1C1E1D;}
	.st3{fill:none;}
	.st4{fill-rule:evenodd;clip-rule:evenodd;fill:#FFFFFF;}
	.st5{fill-rule:evenodd;clip-rule:evenodd;fill:#9D9D9C;}
	.st6{fill:#9D9D9C;}
	.st7{fill:#F7F8FA;}
	.st8{fill:#EF7D34;}
	.st9{fill:#31BEEF;}
	.st10{fill:#DC4419;}
	.st11{opacity:0.6;}
	.st12{fill:#455A64;}
	.st13{fill:#263239;}
	.st14{fill:none;stroke:#DC4419;stroke-width:3;stroke-miterlimit:10;}
	.st15{fill:#0F72B9;}
	.st16{fill:#3AB8BD;}
	.st17{fill:#74B73A;}
	.st18{fill:#97A3AA;}
	.st19{fill:#F8B333;}
	.st20{fill:#E73E33;}
	.st21{fill:#DC4438;}
	.st22{fill:#020203;}
	.st23{display:none;}
	.st24{display:inline;opacity:0.3;fill:#3AAA35;}
	.st25{display:inline;opacity:0.3;fill:#E71D73;}
	.st26{display:inline;opacity:0.1;fill:#009FE3;}
</style>
<g id="Fundo">
</g>
<g id="Site">
	<path class="st10" d="M23.82,0.99v2.07c-2.2-0.07-7.34,0.21-13.07,3.64c-5.6,3.36-8.88,2.16-8.91,2.15
		c-0.5-0.21-1.08,0.03-1.29,0.54c-0.21,0.5,0.03,1.08,0.54,1.29c0.07,0.03,0.92,0.36,2.43,0.36c1.03,0,2.38-0.17,3.98-0.68l-5,16.77
		H0.99C0.44,27.13,0,27.57,0,28.11v3.29c0,1.78,1.45,3.22,3.22,3.22h12.29c1.78,0,3.22-1.45,3.22-3.22v-3.29
		c0-0.55-0.44-0.99-0.99-0.99h-2.21L10.21,9.24c0.51-0.25,1.02-0.53,1.57-0.85c5.33-3.2,10.16-3.41,12.05-3.35V37.2h-4.54
		c-1.79,0-3.24,1.45-3.24,3.24v4.14c0,0.55,0.44,0.99,0.99,0.99h15.55c0.55,0,0.99-0.44,0.99-0.99v-4.14c0-1.79-1.45-3.24-3.24-3.24
		H25.8V5.03c1.88-0.06,6.7,0.14,12.05,3.36c0.4,0.24,0.79,0.45,1.17,0.65l-5.39,18.09H32.1c-0.55,0-0.99,0.44-0.99,0.99v3.29
		c0,1.78,1.45,3.22,3.22,3.22h12.29c1.78,0,3.22-1.45,3.22-3.22v-3.29c0-0.55-0.44-0.99-0.99-0.99h-2.21L41.6,10.19
		c1.84,0.66,3.35,0.85,4.49,0.85c1.51,0,2.36-0.33,2.43-0.36c0.5-0.21,0.74-0.77,0.54-1.28c-0.2-0.5-0.77-0.75-1.28-0.55
		c-0.03,0.01-3.32,1.21-8.92-2.15C33.14,3.26,28,2.98,25.8,3.05V0.99C25.8,0.44,25.36,0,24.81,0S23.82,0.44,23.82,0.99z
		 M16.76,31.41c0,0.69-0.56,1.25-1.25,1.25H3.22c-0.69,0-1.25-0.56-1.25-1.25V29.1h14.79V31.41z M4.57,27.13l4.46-14.94l4.46,14.94
		H4.57z M31.6,40.44v3.15H18.02v-3.15c0-0.7,0.57-1.27,1.27-1.27h11.04C31.03,39.17,31.6,39.74,31.6,40.44z M47.88,31.41
		c0,0.69-0.56,1.25-1.25,1.25H34.34c-0.69,0-1.25-0.56-1.25-1.25V29.1h14.79V31.41z M35.68,27.13l4.46-14.94l4.46,14.94H35.68z"/>
</g>
<g id="_x35_col" class="st23">
	<rect x="-144.39" y="-2743.25" class="st24" width="255" height="3454.69"/>
</g>
<g id="_x34_col" class="st23">
</g>
<g id="_x38__col" class="st23">
	<rect x="-1.89" y="-2743.25" class="st26" width="143.12" height="3794.82"/>
</g>
</svg>
