<svg enable-background="new 0 0 49.77 48.86" viewBox="0 0 49.77 48.86" xmlns="http://www.w3.org/2000/svg"><path d="m43.62 14.73-.55-.1v-9.79c0-2.72-2.13-4.84-4.84-4.84-2.51 0-4.59 1.95-4.76 4.44l-.02.29-.23.19c-6.83 5.65-13.27 7.85-22.96 7.85h-5.42c-2.67-.01-4.84 2.16-4.84 4.83v9.86c0 2.67 2.17 4.84 4.84 4.84h2.56l2.73 14.57c.21 1.13 1.21 1.98 2.32 1.98h6.06c.75 0 1.43-.3 1.81-.82.46-.62.65-1.33.51-2l-2.45-12.93 1 .22c5.08 1.13 9.45 3.33 13.77 6.92l.22.19.02.29c.16 2.49 2.25 4.43 4.75 4.43 2.72 0 4.84-2.13 4.84-4.84v-9.79l.55-.1c3.55-.66 6.23-4.03 6.23-7.84.09-3.79-2.55-7.16-6.14-7.85zm-24.3 32.32h-7.34l-.04-.2-2.75-14.54h1.08c2.06 0 3.87.17 5.86.36l.5.05.04.18zm14.07-8.93-1.07-.79c-6.39-4.73-12.98-6.75-22.04-6.75h-5.44c-1.72 0-3.12-1.4-3.12-3.12v-9.77c0-1.72 1.4-3.12 3.12-3.12h5.43c9.05 0 15.65-2.02 22.04-6.74l1.07-.8v31.09zm7.87 2.19c0 1.7-1.33 3.03-3.03 3.03-1.64 0-3.03-1.39-3.03-3.03v-35.47c0-1.7 1.33-3.03 3.03-3.03 1.64 0 3.03 1.39 3.03 3.03zm2.71-11.76-.9.31v-12.57l.9.31c2.44.85 4.07 3.25 4.07 5.98 0 2.72-1.63 5.13-4.07 5.97z" fill="#dc4419"/></svg>