<?xml version="1.0" encoding="utf-8"?>
<!-- Generator: Adobe Illustrator 24.0.1, SVG Export Plug-In . SVG Version: 6.00 Build 0)  -->
<svg version="1.1" xmlns="http://www.w3.org/2000/svg" xmlns:xlink="http://www.w3.org/1999/xlink" x="0px" y="0px"
	 viewBox="0 0 50.92 45.16" style="enable-background:new 0 0 50.92 45.16;" xml:space="preserve">
<style type="text/css">
	.st0{fill:#FFFFFF;}
	.st1{fill:#EB5766;}
	.st2{fill:#1C1E1D;}
	.st3{fill:none;}
	.st4{fill-rule:evenodd;clip-rule:evenodd;fill:#FFFFFF;}
	.st5{fill-rule:evenodd;clip-rule:evenodd;fill:#9D9D9C;}
	.st6{fill:#9D9D9C;}
	.st7{fill:#F7F8FA;}
	.st8{fill:#EF7D34;}
	.st9{fill:#31BEEF;}
	.st10{fill:#DC4419;}
	.st11{opacity:0.6;}
	.st12{fill:#455A64;}
	.st13{fill:#263239;}
	.st14{fill:none;stroke:#DC4419;stroke-width:3;stroke-miterlimit:10;}
	.st15{fill:#0F72B9;}
	.st16{fill:#3AB8BD;}
	.st17{fill:#74B73A;}
	.st18{fill:#97A3AA;}
	.st19{fill:#F8B333;}
	.st20{fill:#E73E33;}
	.st21{fill:#DC4438;}
	.st22{fill:#020203;}
	.st23{display:none;}
	.st24{display:inline;opacity:0.3;fill:#3AAA35;}
	.st25{display:inline;opacity:0.3;fill:#E71D73;}
	.st26{display:inline;opacity:0.1;fill:#009FE3;}
</style>
<g id="Fundo">
</g>
<g id="Site">
	<g>
		<path class="st10" d="M41.07,18.1c-0.61,0-1.1,0.49-1.1,1.1v23.77h-7.16v-17.8c0-0.61-0.49-1.1-1.1-1.1H19.2
			c-0.61,0-1.1,0.49-1.1,1.1v17.8h-7.16V19.19c0-0.61-0.49-1.1-1.1-1.1c-0.61,0-1.1,0.49-1.1,1.1v24.86c0,0.61,0.49,1.1,1.1,1.1
			h31.23c0.61,0,1.1-0.49,1.1-1.1V19.19C42.17,18.59,41.68,18.1,41.07,18.1z M20.3,42.96v-16.7h10.32v16.7H20.3z"/>
		<path class="st10" d="M50.48,18.31L25.91,0.22c-0.39-0.29-0.92-0.29-1.31,0L0.44,18.31c-0.49,0.36-0.58,1.05-0.22,1.54
			c0.36,0.49,1.05,0.58,1.54,0.22L25.26,2.5l23.91,17.57c0.19,0.14,0.42,0.21,0.65,0.21c0.61,0,1.1-0.49,1.1-1.1
			c0-0.35-0.16-0.67-0.44-0.88V18.31z"/>
	</g>
</g>
<g id="_x35_col" class="st23">
	<rect x="-143.76" y="-2636.78" class="st24" width="255" height="3454.69"/>
</g>
<g id="_x34_col" class="st23">
</g>
<g id="_x38__col" class="st23">
	<rect x="-1.26" y="-2636.78" class="st26" width="143.12" height="3794.82"/>
</g>
</svg>
