<?xml version="1.0" encoding="utf-8"?>
<!-- Generator: Adobe Illustrator 24.0.1, SVG Export Plug-In . SVG Version: 6.00 Build 0)  -->
<svg version="1.1" xmlns="http://www.w3.org/2000/svg" xmlns:xlink="http://www.w3.org/1999/xlink" x="0px" y="0px"
	 viewBox="0 0 51.55 46.32" style="enable-background:new 0 0 51.55 46.32;" xml:space="preserve">
<style type="text/css">
	.st0{fill:#FFFFFF;}
	.st1{fill:#EB5766;}
	.st2{fill:#1C1E1D;}
	.st3{fill:none;}
	.st4{fill-rule:evenodd;clip-rule:evenodd;fill:#FFFFFF;}
	.st5{fill-rule:evenodd;clip-rule:evenodd;fill:#9D9D9C;}
	.st6{fill:#9D9D9C;}
	.st7{fill:#F7F8FA;}
	.st8{fill:#EF7D34;}
	.st9{fill:#31BEEF;}
	.st10{fill:#DC4419;}
	.st11{opacity:0.6;}
	.st12{fill:#455A64;}
	.st13{fill:#263239;}
	.st14{fill:none;stroke:#DC4419;stroke-width:3;stroke-miterlimit:10;}
	.st15{fill:#0F72B9;}
	.st16{fill:#3AB8BD;}
	.st17{fill:#74B73A;}
	.st18{fill:#97A3AA;}
	.st19{fill:#F8B333;}
	.st20{fill:#E73E33;}
	.st21{fill:#DC4438;}
	.st22{fill:#020203;}
	.st23{display:none;}
	.st24{display:inline;opacity:0.3;fill:#3AAA35;}
	.st25{display:inline;opacity:0.3;fill:#E71D73;}
	.st26{display:inline;opacity:0.1;fill:#009FE3;}
</style>
<g id="Fundo">
</g>
<g id="Site">
	<path class="st10" d="M46.98,4.63L46.98,4.63C43.94,1.64,39.94,0,35.72,0c-3.62,0-7.03,1.18-9.89,3.42C22.97,1.18,19.55,0,15.94,0
		C11.72,0,7.72,1.64,4.68,4.63C1.66,7.65,0,11.64,0,15.88c0,4.21,1.64,8.21,4.63,11.25l5,5l0.06,0.06c0.82,0.82,1.91,1.23,3.17,1.2
		c-0.03,1.21,0.39,2.31,1.22,3.13c0.8,0.8,1.96,1.23,3.09,1.2c-0.01,0.05-0.01,0.1-0.01,0.15c0,1.16,0.44,2.17,1.25,2.93
		c0.81,0.81,1.93,1.24,3.09,1.2c-0.01,0.05-0.01,0.1-0.01,0.15c0,1.15,0.42,2.16,1.25,2.99c0.78,0.78,1.82,1.2,2.99,1.2
		c1.09,0,2.15-0.42,2.99-1.2l18.21-18.16c2.98-2.98,4.63-6.98,4.63-11.25C51.66,11.69,49.99,7.64,46.98,4.63z M24.39,43.88
		c-0.36-0.42-0.56-0.92-0.56-1.46c0-0.56,0.21-1.05,0.6-1.4l9-9c0.44-0.44,0.44-1.1,0-1.53c-0.22-0.22-0.49-0.33-0.77-0.33
		s-0.55,0.11-0.77,0.33l-9,9c-0.77,0.77-2.07,0.78-2.85,0c-0.39-0.39-0.6-0.88-0.6-1.4c0-0.56,0.21-1.05,0.6-1.4l8.99-9
		c0.21-0.21,0.33-0.48,0.33-0.77c0-0.29-0.12-0.56-0.33-0.77c-0.44-0.44-1.1-0.44-1.53,0l-9,9c-0.39,0.39-0.88,0.6-1.4,0.6
		c-0.57,0-1.05-0.2-1.4-0.6c-0.8-0.8-0.8-2.05,0-2.85l9-9c0.44-0.44,0.44-1.1,0-1.53s-1.1-0.44-1.53,0l-9,9
		c-0.7,0.7-1.75,0.79-2.53,0.26l-0.31-0.31c-0.76-0.81-0.74-2.01,0.05-2.8l6.11-6.28c1.22,0.03,2.92-0.28,4.46-1.82l4.11-4.11
		c1.68,1.46,3.38,2.32,5.07,2.55c2.1,0.29,4.12-0.44,5.83-2.09c0.44-0.44,0.44-1.1,0-1.53c-0.21-0.21-0.48-0.33-0.77-0.33
		c0,0,0,0,0,0c-0.28,0-0.56,0.12-0.77,0.33c-1.21,1.2-2.55,1.71-4,1.5c-1.48-0.22-3.13-1.17-4.64-2.68
		c-0.22-0.22-0.53-0.33-0.84-0.33c-0.29,0.01-0.54,0.13-0.7,0.33l-4.83,4.83c-0.89,0.89-1.96,1.29-3.2,1.16l-0.19,0
		c-0.75-0.09-1.52-0.47-2.04-0.98c-0.6-0.7-0.34-0.97-0.24-1.07L25.95,6.22c2.6-2.6,6.05-4.03,9.72-4.03s7.12,1.43,9.72,4.03
		c2.6,2.6,4.03,6.05,4.03,9.72c0.05,3.65-1.36,7.1-3.97,9.71L27.23,43.87C26.43,44.67,25.18,44.67,24.39,43.88z M13.23,15.81
		c-1.17,1.17-1.05,2.84,0.28,4.18c0.41,0.41,0.93,0.76,1.54,1.04l-5.3,5.3c-0.48,0.48-0.85,1.11-1.04,1.76L6.7,26.08l-0.43-0.43
		c-2.6-2.6-4.03-6.07-4.03-9.77c0-3.67,1.43-7.12,4.03-9.72c2.6-2.6,6.05-4.03,9.72-4.03c2.95,0,5.79,0.95,8.22,2.75
		C22.81,6.24,16.17,12.88,13.23,15.81z"/>
</g>
<g id="_x35_col" class="st23">
	<rect x="-173.62" y="-2743.86" class="st24" width="255" height="3454.69"/>
</g>
<g id="_x34_col" class="st23">
</g>
<g id="_x38__col" class="st23">
	<rect x="-0.49" y="-2743.86" class="st26" width="143.12" height="3794.82"/>
</g>
</svg>
