<?xml version="1.0" encoding="utf-8"?>
<!-- Generator: Adobe Illustrator 24.1.1, SVG Export Plug-In . SVG Version: 6.00 Build 0)  -->
<svg version="1.1" id="Layer_1" xmlns="http://www.w3.org/2000/svg" xmlns:xlink="http://www.w3.org/1999/xlink" x="0px" y="0px"
	 viewBox="0 0 1320 396" style="enable-background:new 0 0 1320 396;" xml:space="preserve">
<style type="text/css">
	.st0{clip-path:url(#SVGID_2_);fill:url(#SVGID_3_);}
	.st1{fill:#26AADC;}
	.st2{clip-path:url(#SVGID_5_);fill:url(#SVGID_6_);}
	.st3{clip-path:url(#SVGID_8_);fill:url(#SVGID_9_);}
</style>
<g>
	<g>
		<g>
			<defs>
				<polygon id="SVGID_1_" points="14.2,373.3 414,321.2 438.4,209.3 				"/>
			</defs>
			<clipPath id="SVGID_2_">
				<use xlink:href="#SVGID_1_"  style="overflow:visible;"/>
			</clipPath>
			
				<linearGradient id="SVGID_3_" gradientUnits="userSpaceOnUse" x1="375.2476" y1="177.7514" x2="376.38" y2="177.7514" gradientTransform="matrix(353.2919 -53.2982 53.2982 353.2919 -142038.9844 -42473.7031)">
				<stop  offset="0" style="stop-color:#26AADC"/>
				<stop  offset="1" style="stop-color:#0063A2"/>
			</linearGradient>
			<polygon class="st0" points="-10,212.9 429,146.7 462.6,369.6 23.6,435.9 			"/>
		</g>
	</g>
	<polygon class="st1" points="14.2,373.3 52.2,384.1 414,321.2 	"/>
	<polygon class="st1" points="438.4,209.3 89.8,149.4 65.4,261.4 230.3,289.7 	"/>
	<polygon class="st1" points="456,148.3 482,12.1 89.8,149.4 	"/>
	<g>
		<g>
			<defs>
				<polygon id="SVGID_4_" points="456,148.3 89.8,149.4 65.4,261.4 				"/>
			</defs>
			<clipPath id="SVGID_5_">
				<use xlink:href="#SVGID_4_"  style="overflow:visible;"/>
			</clipPath>
			
				<linearGradient id="SVGID_6_" gradientUnits="userSpaceOnUse" x1="378.6145" y1="176.1932" x2="379.747" y2="176.1932" gradientTransform="matrix(-351.9859 53.1012 -53.1012 -351.9859 143062.5781 42090.5156)">
				<stop  offset="0" style="stop-color:#26AADC"/>
				<stop  offset="1" style="stop-color:#0063A2"/>
			</linearGradient>
			<polygon class="st2" points="472.7,258.9 74.1,319 48.7,150.8 447.3,90.7 			"/>
		</g>
	</g>
</g>
<g>
	<g>
		<defs>
			<path id="SVGID_7_" d="M765.5,164.5l-18.7,67.7l-19.9-67.7h-26.3l8.6,26.3L695.9,232l-18.5-67.5h-32.8l34.2,99.5h30.7l11.9-36
				l11.9,36H764l34-99.5H765.5z M1159.7,264h29.1v-99.5h-29.1V264z M554.2,194.5c0,18.7,18.3,24.3,33.6,28.7
				c11.1,3.2,20.7,6,20.7,12.7c0,5.6-7,8.4-16.3,7.8c-9.6-0.6-23.1-5-29.6-10.5l-12.7,20.5c10.9,8.4,29.5,12.3,47.6,12.3
				c24.3,0,39.8-12.1,39.8-31.8c0-19.5-16.7-26.1-31.6-30.6c-11.7-3.8-22.3-6.2-22.3-12.9c0-5.8,8.6-8,16.9-7
				c7.6,0.8,17.5,4.4,22.9,8.4l13.5-18.7c-11.9-7.8-28.3-10.8-40.8-10.8C570.7,162.5,554.2,175.4,554.2,194.5 M831.4,214.2
				c0-14.7,9.2-26.5,23.3-26.5c13.7,0,23.3,11.7,23.3,26.5c0,14.7-9.6,26.3-23.3,26.3C840.5,240.5,831.4,228.9,831.4,214.2
				 M802.7,214.2c0,28.9,21.7,51.7,51.9,51.7c30.1,0,51.9-22.9,51.9-51.7c0-29.1-21.9-51.7-51.9-51.7
				C824.4,162.5,802.7,185.2,802.7,214.2 M952.2,176l-1.6-11.5h-26.1V264h29.1v-57.7c0-10.4,9-18.5,20.3-18.5
				c10.9,0,18.5,6.8,18.5,16.9V264h29.1v-62.9c0-23.5-15.7-38.6-39-38.6C970.3,162.5,959.8,167.7,952.2,176 M1259.2,185
				c11.5,0,17.5,6.6,19.5,18.1h-40C1241.1,192.1,1247.3,185,1259.2,185 M1209.3,214.2c0,29.6,16.5,51.7,51.3,51.7
				c19.9,0,35.6-10,43-25.9l-20.5-10.2c-7,10.3-13.3,13.7-23.1,13.7c-13.7,0-20.3-8-21.9-21.1h67.5c0.4-3,0.6-5.8,0.6-8.5
				c0-31.4-17.7-51.7-46.6-51.7C1227.8,162.3,1209.3,184.8,1209.3,214.2 M1044.9,114.7V264h29v-44.4l67.3,61.7v-36l-42.8-38
				l44.4-42.8h-35.2l-33.6,32.6v-82.4C1074,114.7,1044.9,114.7,1044.9,114.7z M1158,131c0,9,7.6,16.3,16.3,16.3
				c9,0,16.5-7.3,16.5-16.3s-7.6-16.3-16.5-16.3C1165.5,114.7,1158,122.1,1158,131"/>
		</defs>
		<clipPath id="SVGID_8_">
			<use xlink:href="#SVGID_7_"  style="overflow:visible;"/>
		</clipPath>
		
			<linearGradient id="SVGID_9_" gradientUnits="userSpaceOnUse" x1="377.1275" y1="177.1594" x2="378.2599" y2="177.1594" gradientTransform="matrix(667.9641 0 0 667.9641 -251357.875 -118138.1328)">
			<stop  offset="0" style="stop-color:#0063A0"/>
			<stop  offset="0.2903" style="stop-color:#0063A0"/>
			<stop  offset="0.5647" style="stop-color:#0090C7"/>
			<stop  offset="0.7043" style="stop-color:#29A8DA"/>
			<stop  offset="1" style="stop-color:#29A8DA"/>
		</linearGradient>
		<rect x="549.8" y="114.7" class="st3" width="756.4" height="166.6"/>
	</g>
</g>
</svg>
