<?xml version="1.0" encoding="utf-8"?>
<!-- Generator: Adobe Illustrator 24.0.1, SVG Export Plug-In . SVG Version: 6.00 Build 0)  -->
<svg version="1.1" xmlns="http://www.w3.org/2000/svg" xmlns:xlink="http://www.w3.org/1999/xlink" x="0px" y="0px"
	 viewBox="0 0 305.19 307.87" style="enable-background:new 0 0 305.19 307.87;" xml:space="preserve">
<style type="text/css">
	.st0{fill:#FFFFFF;}
	.st1{fill:#EB5766;}
	.st2{fill:#1C1E1D;}
	.st3{fill:none;}
	.st4{fill-rule:evenodd;clip-rule:evenodd;fill:#FFFFFF;}
	.st5{fill-rule:evenodd;clip-rule:evenodd;fill:#9D9D9C;}
	.st6{fill:#9D9D9C;}
	.st7{fill:#F7F8FA;}
	.st8{fill:#EF7D34;}
	.st9{fill:#31BEEF;}
	.st10{fill:#DC4419;}
	.st11{opacity:0.6;}
	.st12{fill:#455A64;}
	.st13{fill:#263239;}
	.st14{fill:none;stroke:#DC4419;stroke-width:3;stroke-miterlimit:10;}
	.st15{fill:#0F72B9;}
	.st16{fill:#3AB8BD;}
	.st17{fill:#74B73A;}
	.st18{fill:#97A3AA;}
	.st19{fill:#F8B333;}
	.st20{fill:#E73E33;}
	.st21{fill:#DC4438;}
	.st22{fill:#020203;}
	.st23{display:none;}
	.st24{display:inline;opacity:0.3;fill:#3AAA35;}
	.st25{display:inline;opacity:0.3;fill:#E71D73;}
	.st26{display:inline;opacity:0.1;fill:#009FE3;}
</style>
<g id="Fundo">
</g>
<g id="Site">
	<g>
		<g class="st11">
			<circle class="st10" cx="179.43" cy="125.76" r="125.74"/>
		</g>
		<g>
			<path class="st0" d="M191.44,229.72c-57.33,6.62-109.35-34.63-115.98-91.96s34.63-109.35,91.96-115.98s109.35,34.63,115.98,91.96
				C290.02,171.07,248.77,223.1,191.44,229.72z M169.47,39.58c-47.52,5.49-81.71,48.61-76.22,96.13
				c5.49,47.52,48.61,81.71,96.13,76.22s81.71-48.61,76.22-96.13C260.12,68.28,216.99,34.09,169.47,39.58z"/>
		</g>
		<g>
			<path class="st0" d="M182.84,161.38c-21.11,2.44-40.27-12.75-42.71-33.87c-2.44-21.11,12.75-40.27,33.87-42.71
				c21.11-2.44,40.27,12.75,42.71,33.87C219.15,139.78,203.95,158.94,182.84,161.38z M176.05,102.59
				c-11.3,1.31-19.44,11.56-18.13,22.87c1.31,11.3,11.56,19.43,22.87,18.13c11.3-1.31,19.44-11.56,18.13-22.86
				C197.61,109.42,187.35,101.29,176.05,102.59z"/>
		</g>
		<g>
			<polygon class="st12" points="178.42,123.09 133.5,141.96 147.15,152.53 61.79,245.41 67.85,249.85 153.81,157.39 166.86,168.1 
							"/>
		</g>
		<g>
			<path class="st13" d="M61.79,245.41l-1.58-0.62c-7.81-3.07-16.67-1.7-23.19,3.58L0,278.36l27.82,0.45l1.11,29.05l33.64-30.73
				c7.59-6.93,9.74-18.02,5.29-27.28l0,0L61.79,245.41z"/>
		</g>
	</g>
</g>
<g id="_x35_col" class="st23">
	<rect x="63.2" y="-1866.02" class="st24" width="255" height="3454.69"/>
	<rect x="-211.8" y="-1866.02" class="st24" width="255" height="3454.69"/>
</g>
<g id="_x34_col" class="st23">
	<rect x="1.95" y="-1866.02" class="st25" width="316.25" height="2357.43"/>
</g>
<g id="_x38__col" class="st23">
	<rect x="175.08" y="-1866.02" class="st26" width="143.12" height="3794.82"/>
	<rect x="1.95" y="-1866.02" class="st26" width="143.12" height="3794.82"/>
</g>
</svg>
