<svg enable-background="new 0 0 305.19 307.87" viewBox="0 0 305.19 307.87" xmlns="http://www.w3.org/2000/svg"><circle cx="179.43" cy="125.76" fill="#dc4419" opacity=".6" r="125.74"/><path d="m191.44 229.72c-57.33 6.62-109.35-34.63-115.98-91.96s34.63-109.35 91.96-115.98 109.35 34.63 115.98 91.96c6.62 57.33-34.63 109.36-91.96 115.98zm-21.97-190.14c-47.52 5.49-81.71 48.61-76.22 96.13s48.61 81.71 96.13 76.22 81.71-48.61 76.22-96.13c-5.48-47.52-48.61-81.71-96.13-76.22z" fill="#fff"/><path d="m182.84 161.38c-21.11 2.44-40.27-12.75-42.71-33.87-2.44-21.11 12.75-40.27 33.87-42.71 21.11-2.44 40.27 12.75 42.71 33.87 2.44 21.11-12.76 40.27-33.87 42.71zm-6.79-58.79c-11.3 1.31-19.44 11.56-18.13 22.87 1.31 11.3 11.56 19.43 22.87 18.13 11.3-1.31 19.44-11.56 18.13-22.86-1.31-11.31-11.57-19.44-22.87-18.14z" fill="#fff"/><path d="m178.42 123.09-44.92 18.87 13.65 10.57-85.36 92.88 6.06 4.44 85.96-92.46 13.05 10.71z" fill="#455a64"/><path d="m61.79 245.41-1.58-.62c-7.81-3.07-16.67-1.7-23.19 3.58l-37.02 29.99 27.82.45 1.11 29.05 33.64-30.73c7.59-6.93 9.74-18.02 5.29-27.28z" fill="#263239"/></svg>