<?xml version="1.0" encoding="utf-8"?>
<!-- Generator: Adobe Illustrator 24.0.1, SVG Export Plug-In . SVG Version: 6.00 Build 0)  -->
<svg version="1.1" xmlns="http://www.w3.org/2000/svg" xmlns:xlink="http://www.w3.org/1999/xlink" x="0px" y="0px"
	 viewBox="0 0 170.19 352.13" style="enable-background:new 0 0 170.19 352.13;" xml:space="preserve">
<style type="text/css">
	.st0{fill:#FFFFFF;}
	.st1{fill:#EB5766;}
	.st2{fill:#1C1E1D;}
	.st3{fill:none;}
	.st4{fill-rule:evenodd;clip-rule:evenodd;fill:#FFFFFF;}
	.st5{fill-rule:evenodd;clip-rule:evenodd;fill:#9D9D9C;}
	.st6{fill:#9D9D9C;}
	.st7{fill:#F7F8FA;}
	.st8{fill:#EF7D34;}
	.st9{fill:#31BEEF;}
	.st10{fill:#DC4419;}
	.st11{opacity:0.6;}
	.st12{fill:#455A64;}
	.st13{fill:#263239;}
	.st14{fill:none;stroke:#DC4419;stroke-width:3;stroke-miterlimit:10;}
	.st15{fill:#0F72B9;}
	.st16{fill:#3AB8BD;}
	.st17{fill:#74B73A;}
	.st18{fill:#97A3AA;}
	.st19{fill:#F8B333;}
	.st20{fill:#E73E33;}
	.st21{fill:#DC4438;}
	.st22{fill:#020203;}
	.st23{display:none;}
	.st24{display:inline;opacity:0.3;fill:#3AAA35;}
	.st25{display:inline;opacity:0.3;fill:#E71D73;}
	.st26{display:inline;opacity:0.1;fill:#009FE3;}
</style>
<g id="Fundo">
	<g>
		<g>
			<path class="st0" d="M114.04,310.27c-3.41-0.74-6.92,0.43-9.17,3.08c-10.8,12.71-26.25,20-42.38,20s-31.58-7.29-42.38-20
				c-2.25-2.64-5.76-3.83-9.17-3.08c-3.27,0.71-5.85,3.03-6.92,6.19c-1.07,3.19-0.41,6.62,1.78,9.18
				c14.36,16.83,35.02,26.49,56.69,26.49s42.33-9.65,56.69-26.49c2.19-2.56,2.85-6,1.78-9.18
				C119.89,313.3,117.3,310.99,114.04,310.27z"/>
			<path class="st0" d="M124.71,47.62c-0.01-3.25-1.58-6.3-4.21-8.2L68.5,1.92c-3.54-2.55-8.32-2.56-11.86-0.01L4.95,38.99
				c-2.67,1.92-4.25,5.01-4.24,8.29l0.1,24.03c0.02,5.6,4.56,10.12,10.16,10.12c0.01,0,0.03,0,0.04,0
				c5.61-0.02,10.14-4.59,10.12-10.2l-0.08-18.79l41.5-29.77l41.87,30.2l0.08,18.86c0.02,5.6,4.56,10.12,10.16,10.12
				c0.01,0,0.03,0,0.04,0c5.61-0.02,10.14-4.59,10.12-10.2L124.71,47.62z"/>
		</g>
		<path class="st0" d="M57.72,179.69c5.23-7.98,18.61-7.35,22.72,0.29c0.96-0.89,1.87-1.84,2.89-2.66
			c4.78-3.81,11.61-4.48,16.63-1.61c3.83,2.19,5.99,5.65,6.97,9.81c0.54,2.28,0.86,4.66,0.89,7c0.11,6.94,0.04,13.89,0.04,20.83
			c0,1.53-0.38,1.9-1.91,1.91c-2.76,0-5.52,0-8.27,0c-1.56,0-1.87-0.32-1.87-1.9c0-6.82,0.01-13.65-0.01-20.47
			c0-0.92-0.07-1.86-0.27-2.76c-0.71-3.11-2.72-4.76-5.67-4.73c-2.9,0.02-5.26,1.93-5.88,4.85c-0.19,0.87-0.23,1.78-0.23,2.67
			c-0.01,6.76,0.01,13.53,0.02,20.29c0,1.73-0.32,2.05-2.02,2.05c-2.79,0-5.58,0-8.36,0c-1.27,0-1.66-0.38-1.67-1.66
			c-0.01-6.94,0.02-13.89-0.03-20.83c-0.01-1.09-0.16-2.22-0.49-3.25c-0.91-2.85-3.3-4.35-6.3-4.12c-2.62,0.2-4.67,2.12-5.2,4.92
			c-0.14,0.73-0.2,1.48-0.2,2.23c-0.01,6.94-0.01,13.89-0.01,20.83c0,1.53-0.37,1.89-1.92,1.89c-2.79,0-5.58,0-8.36,0
			c-1.72,0-2.06-0.33-2.06-2.03c-0.01-3.32,0-6.64,0-9.97c0-8.86,0-17.72,0-26.57c0-0.39,0.01-0.78,0.06-1.16
			c0.09-0.69,0.5-1.1,1.19-1.11c2.13-0.02,4.26-0.07,6.38,0.02c1.09,0.05,1.77,0.81,2.07,1.85
			C57.14,177.37,57.4,178.47,57.72,179.69z"/>
		<path class="st0" d="M72.33,239.29c0.5-1.39,0.97-2.61,1.39-3.85c0.27-0.79,0.76-1.11,1.62-1.09c2.04,0.05,4.08,0.01,6.11,0.02
			c1.53,0,1.84,0.3,1.84,1.83c0,9.51,0,19.03,0,28.54c0,2.9,0.01,5.8,0,8.71c-0.01,1.4-0.34,1.72-1.77,1.73
			c-2.22,0-4.44-0.03-6.65,0.01c-0.9,0.02-1.49-0.34-1.85-1.13c-0.45-0.97-0.88-1.94-1.34-2.98c-1.89,1.9-4.01,3.35-6.54,4.08
			c-5.26,1.51-10.26,0.61-14.87-2.1c-6.78-3.98-10.1-10.06-10.22-17.88c-0.15-9.61,5.86-17.92,14.94-20.46
			c5.25-1.47,10.33-1.19,14.88,2.26c0.43,0.32,0.84,0.68,1.23,1.05C71.48,238.39,71.84,238.79,72.33,239.29z M61.14,264.93
			c5.42,0.02,9.86-4.47,9.88-10.01c0.02-5.57-4.35-10.13-9.73-10.15c-5.43-0.02-9.67,4.36-9.69,10.02
			C51.58,260.55,55.68,264.91,61.14,264.93z"/>
		<path class="st0" d="M158.57,271.08c-1.89,1.9-4.01,3.35-6.54,4.07c-5.26,1.51-10.26,0.62-14.87-2.1
			c-7.16-4.24-10.41-10.7-10.22-18.96c0.21-9.03,6.23-16.96,14.93-19.38c5.25-1.46,10.33-1.19,14.88,2.25
			c0.43,0.32,0.83,0.68,1.23,1.05c0.39,0.37,0.75,0.76,1.24,1.26c0.44-1.21,0.83-2.31,1.23-3.41c0.53-1.44,0.62-1.5,2.13-1.5
			c1.92,0,3.84,0,5.75,0c1.54,0,1.85,0.3,1.85,1.83c0,8.86,0,17.71,0,26.57c0,3.53,0,7.06,0,10.59c0,1.52-0.31,1.82-1.85,1.82
			c-2.19,0-4.38-0.03-6.56,0.01c-0.9,0.02-1.49-0.34-1.86-1.12C159.46,273.09,159.04,272.12,158.57,271.08z M148.2,244.77
			c-5.43-0.03-9.68,4.34-9.71,10c-0.03,5.75,4.06,10.12,9.51,10.16c5.42,0.03,9.88-4.45,9.91-9.98
			C157.94,249.38,153.58,244.81,148.2,244.77z"/>
		<path class="st0" d="M52.76,137.82c0.85,3.69,4.07,6.58,7.76,6.95c3.88,0.39,7.45-0.3,10.43-3.08c1.26-1.18,1.79-1.06,2.8,0.34
			c1.23,1.69,2.47,3.38,3.69,5.09c0.69,0.97,0.61,1.45-0.25,2.24c-9.67,8.82-26.55,7.69-33.9-5.78
			c-6.14-11.26-0.33-27.87,14.91-30.2c11.12-1.7,21.04,5.98,22.24,17.19c0.15,1.36,0.18,2.75,0.15,4.12c-0.04,1.84-0.88,2.75-2.68,3
			c-0.77,0.11-1.55,0.13-2.33,0.13c-7.22,0.01-14.45,0.01-21.67,0.01C53.55,137.82,53.2,137.82,52.76,137.82z M69.4,128.63
			c-0.96-2.84-4.14-6.08-8.62-5.81c-3.08,0.19-6.75,3.06-7.25,5.81C58.81,128.63,64.1,128.63,69.4,128.63z"/>
		<path class="st0" d="M12.26,198.76c0.58,3.49,4.04,6.59,7.76,6.95c3.88,0.38,7.45-0.33,10.42-3.12c1.21-1.14,1.77-1.02,2.74,0.32
			c1.25,1.72,2.51,3.43,3.74,5.16c0.67,0.94,0.58,1.42-0.24,2.18c-8.88,8.16-24.29,7.96-32.51-3.41c-7.8-10.8-3.3-27.88,10.8-31.97
			c11.57-3.36,23.23,4.07,24.86,15.96c0.22,1.59,0.23,3.22,0.21,4.83c-0.02,1.79-0.87,2.7-2.63,2.95c-0.77,0.11-1.55,0.14-2.33,0.14
			c-7.25,0.01-14.51,0.01-21.76,0.01C12.97,198.76,12.62,198.76,12.26,198.76z M12.95,189.54c5.3,0,10.6,0,15.92,0
			c-1.25-3.59-4.77-5.93-8.61-5.78C17.18,183.89,13.69,186.63,12.95,189.54z"/>
		<path class="st0" d="M127.77,113.11c11.75,0.04,21.24,9.44,21.18,20.97c-0.06,11.56-9.63,20.97-21.27,20.91
			c-11.66-0.05-21.11-9.44-21.12-20.96C106.55,122.47,116.06,113.08,127.77,113.11z M126.92,123.91c-2.37,0.05-4.92,1.37-6.72,4
			c-1.94,2.84-2.3,6-1.4,9.27c1.13,4.15,4.54,6.85,8.66,6.99c4.01,0.14,7.49-2.33,8.94-6.37c0.66-1.84,0.78-3.71,0.52-5.65
			C136.28,127.43,132.39,123.91,126.92,123.91z"/>
		<path class="st0" d="M106.06,233.77c4.19-0.08,8.05,1.16,11.29,4.13c0.71,0.65,1.43,1.27,2.12,1.94c0.6,0.58,0.64,1.25,0.02,1.81
			c-1.83,1.64-3.69,3.24-5.56,4.83c-0.51,0.43-1.06,0.33-1.56-0.06c-0.62-0.48-1.22-0.98-1.85-1.42c-1.86-1.31-3.92-1.55-6.09-1.06
			c-0.17,0.04-0.35,0.1-0.51,0.18c-0.63,0.31-1.21,0.66-1.27,1.48c-0.05,0.86,0.36,1.46,1.1,1.78c0.87,0.38,1.79,0.68,2.69,0.99
			c2.38,0.81,4.81,1.49,7.14,2.43c2.67,1.08,4.88,2.81,6.15,5.5c3.04,6.4,1.83,14.48-6.34,18.01c-6.85,2.96-13.59,2.33-19.83-1.86
			c-1.39-0.93-2.48-2.33-3.62-3.59c-0.79-0.87-0.72-1.72,0.11-2.56c1.48-1.49,2.98-2.95,4.5-4.4c0.67-0.64,1.19-0.58,2.08,0.06
			c1.29,0.91,2.56,1.89,3.93,2.66c1.92,1.08,4.03,1.32,6.19,0.82c1.73-0.4,2.68-1.94,1.99-3.43c-0.28-0.61-0.93-1.21-1.55-1.49
			c-1.36-0.61-2.82-1-4.23-1.5c-1.5-0.53-3.02-1-4.47-1.64c-5.31-2.36-7.85-6.49-7.75-12.29c0.06-3.81,1.75-6.71,4.93-8.74
			C98.8,234.36,102.29,233.79,106.06,233.77z"/>
		<path class="st0" d="M20.45,137.13c1.16-3.42,2.23-6.58,3.29-9.75c1.37-4.07,2.74-8.15,4.12-12.22c0.45-1.34,0.91-1.66,2.29-1.67
			c2.97,0,5.93,0,8.9,0c1.76,0,2.07,0.46,1.37,2.12c-1.8,4.27-3.61,8.52-5.42,12.79c-3.38,7.97-6.76,15.95-10.15,23.92
			c-0.75,1.77-1.07,1.98-2.95,1.98c-1.23,0-2.46-0.06-3.69,0.02c-1.31,0.08-2.05-0.53-2.54-1.69c-2.12-5.07-4.27-10.13-6.41-15.19
			c-2.94-6.96-5.89-13.92-8.82-20.88c-0.22-0.52-0.4-1.07-0.45-1.62c-0.08-0.87,0.36-1.41,1.23-1.42c3.24-0.03,6.47-0.05,9.71,0.01
			c1.1,0.02,1.5,0.95,1.82,1.86c1.2,3.41,2.4,6.81,3.61,10.22C17.71,129.38,19.04,133.15,20.45,137.13z"/>
		<path class="st0" d="M23.57,233.83c4.85-0.03,9.13,1.52,12.93,4.47c1.05,0.82,1.11,1.08,0.37,2.21c-1.32,2.03-2.64,4.07-3.96,6.1
			c-0.68,1.04-1.09,1.14-2.13,0.45c-1.87-1.25-3.87-2.13-6.15-2.34c-5.12-0.47-9.65,3.17-10.29,8.3c-0.24,1.93-0.15,3.82,0.49,5.66
			c1.81,5.23,7.45,7.68,12.49,5.38c1.11-0.51,2.15-1.17,3.2-1.81c1.05-0.64,1.55-0.57,2.25,0.44c1.36,1.97,2.71,3.95,4.06,5.93
			c0.87,1.28,0.81,1.76-0.43,2.7c-13.1,10.04-30.77,2.46-33.53-12.36c-2.13-11.49,5.13-22.37,16.5-24.64
			C20.75,234.04,22.17,233.99,23.57,233.83z"/>
		<path class="st0" d="M100.07,135.07c0,6.07-0.09,12.15,0.02,18.22c0.16,8.28-5.67,13.21-12.81,14.1c-1.15,0.14-2.33,0.2-3.49,0.18
			c-1.45-0.02-1.97-0.61-1.97-2.05c0-1.94-0.02-3.89,0.01-5.83c0.02-1.42,0.4-1.78,1.84-1.82c2.66-0.07,3.69-1,3.98-3.6
			c0.08-0.74,0.13-1.49,0.13-2.24c0.01-12.09,0.01-24.17,0.01-36.26c0-2.09,0.19-2.28,2.32-2.28c2.52,0,5.04,0,7.55,0
			c2.28,0,2.41,0.13,2.41,2.45C100.07,122.33,100.07,128.7,100.07,135.07z"/>
		<path class="st0" d="M93.9,108.53c-1.38,0-2.76,0.05-4.13-0.01c-1.55-0.07-2.14-0.72-2.15-2.26c-0.01-2.03-0.02-4.07,0-6.1
			c0.02-1.8,0.78-2.6,2.55-2.63c2.49-0.03,4.97-0.03,7.46,0c1.51,0.02,2.31,0.73,2.36,2.23c0.08,2.3,0.06,4.61,0,6.91
			c-0.03,1.22-0.66,1.8-1.88,1.85C96.72,108.57,95.31,108.52,93.9,108.53C93.9,108.52,93.9,108.53,93.9,108.53z"/>
	</g>
</g>
<g id="Site">
</g>
<g id="_x35_col" class="st23">
	<rect x="100.27" y="-84.96" class="st24" width="255" height="3454.69"/>
	<rect x="-174.73" y="-84.96" class="st24" width="255" height="3454.69"/>
</g>
<g id="_x34_col" class="st23">
	<rect x="-174.73" y="-84.96" class="st25" width="316.25" height="2357.43"/>
</g>
<g id="_x38__col" class="st23">
	<rect x="-1.61" y="-84.96" class="st26" width="143.12" height="3794.82"/>
</g>
</svg>
