<?xml version="1.0" encoding="utf-8"?>
<!-- Generator: Adobe Illustrator 24.0.1, SVG Export Plug-In . SVG Version: 6.00 Build 0)  -->
<svg version="1.1" xmlns="http://www.w3.org/2000/svg" xmlns:xlink="http://www.w3.org/1999/xlink" x="0px" y="0px"
	 viewBox="0 0 57.56 79.42" style="enable-background:new 0 0 57.56 79.42;" xml:space="preserve">
<style type="text/css">
	.st0{fill:#FFFFFF;}
	.st1{fill:#EB5766;}
	.st2{fill:#1C1E1D;}
	.st3{fill:none;}
	.st4{fill-rule:evenodd;clip-rule:evenodd;fill:#FFFFFF;}
	.st5{fill-rule:evenodd;clip-rule:evenodd;fill:#9D9D9C;}
	.st6{fill:#9D9D9C;}
	.st7{fill:#F7F8FA;}
	.st8{fill:#EF7D34;}
	.st9{fill:#31BEEF;}
	.st10{fill:#DC4419;}
	.st11{opacity:0.6;}
	.st12{fill:#455A64;}
	.st13{fill:#263239;}
	.st14{fill:none;stroke:#DC4419;stroke-width:3;stroke-miterlimit:10;}
	.st15{fill:#0F72B9;}
	.st16{fill:#3AB8BD;}
	.st17{fill:#74B73A;}
	.st18{fill:#97A3AA;}
	.st19{fill:#F8B333;}
	.st20{fill:#E73E33;}
	.st21{fill:#DC4438;}
	.st22{fill:#020203;}
	.st23{display:none;}
	.st24{display:inline;opacity:0.3;fill:#3AAA35;}
	.st25{display:inline;opacity:0.3;fill:#E71D73;}
	.st26{display:inline;opacity:0.1;fill:#009FE3;}
</style>
<g id="Fundo">
</g>
<g id="Site">
	<g>
		<path class="st16" d="M9.32,44.48c5.43,8.14,6.36,11.56,6.51,13.96c-0.71,0.34-1.16,1.05-1.15,1.83v12.21
			c0,3.83,3.1,6.93,6.93,6.94s6.93-3.1,6.94-6.93c0,0,0,0,0-0.01V60.27c0-0.77-0.44-1.47-1.13-1.82c0.15-2.41,1.09-5.85,6.5-13.97
			c6.01-4.91,9.45-12.3,9.33-20.06C43.25,10.95,33.55,0,21.63,0S0,10.96,0,24.42C-0.12,32.18,3.32,39.57,9.32,44.48z M21.61,75.39
			c-1.58-0.01-2.86-1.28-2.86-2.86V63.9h5.72v8.63C24.47,74.1,23.19,75.38,21.61,75.39z M23.35,58.24H19.9
			c-0.11-2.21-0.72-5.05-3.6-10.17c3.46,1.03,7.15,1.03,10.61,0C24.06,53.19,23.45,56,23.35,58.24z M21.61,4.06
			c9.69,0,17.55,9.14,17.55,20.35S31.3,44.75,21.61,44.75S4.06,35.65,4.06,24.42S11.93,4.06,21.61,4.06z"/>
		<path class="st16" d="M33.15,65.89c0,6.74,5.47,12.21,12.21,12.21s12.21-5.47,12.21-12.21S52.1,53.68,45.35,53.68
			S33.15,59.15,33.15,65.89z M53.49,65.89c0,1.61-0.47,3.18-1.36,4.52c-0.78-0.21-1.5-0.62-2.08-1.18c-1-1.01-1.5-2.42-1.36-3.84
			c0.11-0.7,0.27-1.38,0.5-2.05c0.43-1.22,0.67-2.49,0.71-3.78c0-0.15,0-0.28,0-0.43C52.16,60.64,53.5,63.18,53.49,65.89z
			 M45.15,57.75c0.43,0.53,0.66,1.18,0.68,1.86c-0.05,0.87-0.23,1.72-0.53,2.54c-0.3,0.88-0.52,1.79-0.65,2.71
			c-0.29,2.66,0.64,5.31,2.54,7.2c0.46,0.45,0.98,0.84,1.53,1.17c-1.05,0.49-2.2,0.74-3.36,0.75c-4.5,0.06-8.19-3.54-8.24-8.04
			c-0.06-4.5,3.54-8.19,8.04-8.24V57.75z"/>
	</g>
</g>
<g id="_x35_col" class="st23">
	<rect x="34.28" y="-793.13" class="st24" width="255" height="3454.69"/>
	<rect x="-240.72" y="-793.13" class="st24" width="255" height="3454.69"/>
</g>
<g id="_x34_col" class="st23">
	<rect x="-26.98" y="-793.13" class="st25" width="316.25" height="2357.43"/>
</g>
<g id="_x38__col" class="st23">
	<rect x="-26.98" y="-793.13" class="st26" width="143.12" height="3794.82"/>
</g>
</svg>
