<?xml version="1.0" encoding="utf-8"?>
<!-- Generator: Adobe Illustrator 24.0.1, SVG Export Plug-In . SVG Version: 6.00 Build 0)  -->
<svg version="1.1" xmlns="http://www.w3.org/2000/svg" xmlns:xlink="http://www.w3.org/1999/xlink" x="0px" y="0px"
	 viewBox="0 0 233.55 49.99" style="enable-background:new 0 0 233.55 49.99;" xml:space="preserve">
<style type="text/css">
	.st0{fill:#FFFFFF;}
	.st1{fill:#EB5766;}
	.st2{fill:#1C1E1D;}
	.st3{fill:none;}
	.st4{fill-rule:evenodd;clip-rule:evenodd;fill:#FFFFFF;}
	.st5{fill-rule:evenodd;clip-rule:evenodd;fill:#9D9D9C;}
	.st6{fill:#9D9D9C;}
	.st7{fill:#F7F8FA;}
	.st8{fill:#EF7D34;}
	.st9{fill:#31BEEF;}
	.st10{fill:#DC4419;}
	.st11{opacity:0.6;}
	.st12{fill:#455A64;}
	.st13{fill:#263239;}
	.st14{fill:none;stroke:#DC4419;stroke-width:3;stroke-miterlimit:10;}
	.st15{fill:#0F72B9;}
	.st16{fill:#3AB8BD;}
	.st17{fill:#74B73A;}
	.st18{fill:#97A3AA;}
	.st19{fill:#F8B333;}
	.st20{fill:#E73E33;}
	.st21{fill:#DC4438;}
	.st22{fill:#020203;}
	.st23{display:none;}
	.st24{display:inline;opacity:0.3;fill:#3AAA35;}
	.st25{display:inline;opacity:0.3;fill:#E71D73;}
	.st26{display:inline;opacity:0.1;fill:#009FE3;}
</style>
<g id="Fundo">
	<g>
		<g>
			<path class="st1" d="M41.37,27.64c-0.71,0-1.37-0.28-1.87-0.77c-0.5-0.5-0.77-1.16-0.77-1.87c0-0.71,0.28-1.37,0.77-1.87
				c0.5-0.5,1.16-0.77,1.87-0.77c0.71,0,1.37,0.28,1.87,0.77c0.5,0.5,0.77,1.16,0.77,1.87c0,0.71-0.28,1.37-0.77,1.87l0,0
				c0,0,0,0,0,0C42.74,27.36,42.08,27.64,41.37,27.64z M41.37,24.11c-0.24,0-0.46,0.09-0.62,0.26c-0.17,0.17-0.26,0.39-0.26,0.62
				c0,0.24,0.09,0.46,0.26,0.62c0.17,0.17,0.39,0.26,0.62,0.26c0.24,0,0.46-0.09,0.62-0.26l0,0c0.17-0.17,0.26-0.39,0.26-0.62
				c0-0.24-0.09-0.46-0.26-0.62C41.83,24.2,41.61,24.11,41.37,24.11z"/>
			<path class="st1" d="M46.98,22.03c-0.68,0-1.35-0.26-1.87-0.77c-1.03-1.03-1.03-2.71,0-3.74c0.5-0.5,1.16-0.77,1.87-0.77
				c0.71,0,1.37,0.28,1.87,0.77c0.5,0.5,0.77,1.16,0.77,1.87c0,0.71-0.28,1.37-0.77,1.87v0C48.34,21.77,47.66,22.03,46.98,22.03z
				 M46.98,18.5c-0.24,0-0.46,0.09-0.62,0.26c-0.34,0.34-0.34,0.9,0,1.25c0.34,0.34,0.9,0.34,1.25,0c0.17-0.17,0.26-0.39,0.26-0.62
				c0-0.24-0.09-0.46-0.26-0.62C47.44,18.59,47.22,18.5,46.98,18.5z"/>
			<path class="st1" d="M35.76,33.25c-0.71,0-1.37-0.28-1.87-0.77c-0.5-0.5-0.77-1.16-0.77-1.87c0-0.71,0.28-1.37,0.77-1.87
				c0.5-0.5,1.16-0.77,1.87-0.77c0.71,0,1.37,0.28,1.87,0.77c0.5,0.5,0.77,1.16,0.77,1.87c0,0.71-0.28,1.37-0.77,1.87l0,0
				c0,0,0,0,0,0C37.13,32.97,36.47,33.25,35.76,33.25z M35.76,29.72c-0.24,0-0.46,0.09-0.62,0.26c-0.17,0.17-0.26,0.39-0.26,0.62
				c0,0.24,0.09,0.46,0.26,0.62c0.17,0.17,0.39,0.26,0.62,0.26c0.24,0,0.46-0.09,0.62-0.26l0,0c0.17-0.17,0.26-0.39,0.26-0.62
				c0-0.24-0.09-0.46-0.26-0.62C36.22,29.81,36,29.72,35.76,29.72z"/>
			<path class="st1" d="M46.98,33.25c-0.71,0-1.37-0.28-1.87-0.77l0,0c-1.03-1.03-1.03-2.71,0-3.74c0.5-0.5,1.16-0.77,1.87-0.77
				c0.71,0,1.37,0.28,1.87,0.77c0.5,0.5,0.77,1.16,0.77,1.87c0,0.71-0.28,1.37-0.77,1.87C48.35,32.97,47.69,33.25,46.98,33.25z
				 M46.36,31.23c0.17,0.17,0.39,0.26,0.62,0.26c0.24,0,0.46-0.09,0.62-0.26c0.17-0.17,0.26-0.39,0.26-0.62
				c0-0.24-0.09-0.46-0.26-0.62c-0.17-0.17-0.39-0.26-0.62-0.26s-0.46,0.09-0.62,0.26C46.01,30.32,46.01,30.88,46.36,31.23
				L46.36,31.23z"/>
			<path class="st1" d="M35.76,22.03c-0.68,0-1.35-0.26-1.87-0.77l0,0c-0.5-0.5-0.77-1.16-0.77-1.87c0-0.71,0.28-1.37,0.77-1.87
				c0.5-0.5,1.16-0.77,1.87-0.77c0.71,0,1.37,0.28,1.87,0.77c0.5,0.5,0.77,1.16,0.77,1.87c0,0.71-0.28,1.37-0.77,1.87
				C37.12,21.77,36.44,22.03,35.76,22.03z M35.14,20.01c0.34,0.34,0.9,0.34,1.25,0c0.17-0.17,0.26-0.39,0.26-0.62
				c0-0.24-0.09-0.46-0.26-0.62c-0.17-0.17-0.39-0.26-0.62-0.26c-0.24,0-0.46,0.09-0.62,0.26c-0.17,0.17-0.26,0.39-0.26,0.62
				C34.88,19.62,34.97,19.84,35.14,20.01L35.14,20.01z"/>
			<path class="st2" d="M41.37,17.94c-0.47,0-0.91-0.18-1.25-0.52c-0.33-0.33-0.52-0.78-0.52-1.25c0-0.97,0.79-1.76,1.76-1.76
				s1.76,0.79,1.76,1.76C43.13,17.15,42.34,17.94,41.37,17.94z M41.37,16.18L41.37,16.18C41.37,16.18,41.37,16.18,41.37,16.18z"/>
			<path class="st2" d="M41.37,35.48c-0.97,0-1.76-0.79-1.76-1.76s0.79-1.76,1.76-1.76s1.76,0.79,1.76,1.76S42.34,35.48,41.37,35.48
				z M41.37,33.72L41.37,33.72C41.37,33.72,41.37,33.72,41.37,33.72z"/>
			<path class="st2" d="M50.1,26.76c-0.97,0-1.76-0.79-1.76-1.76s0.79-1.76,1.76-1.76s1.76,0.79,1.76,1.76S51.07,26.76,50.1,26.76z
				 M50.1,24.99L50.1,24.99C50.1,24.99,50.1,24.99,50.1,24.99z"/>
			<path class="st2" d="M32.65,26.76c-0.97,0-1.76-0.79-1.76-1.76s0.79-1.76,1.76-1.76c0.97,0,1.76,0.79,1.76,1.76
				S33.62,26.76,32.65,26.76z M32.65,24.99L32.65,24.99C32.65,24.99,32.65,24.99,32.65,24.99z"/>
			<path class="st3" d="M41.37,12.65c-3.3,0-6.4,1.28-8.73,3.61c-2.33,2.33-3.61,5.43-3.61,8.73s1.28,6.4,3.61,8.73
				s5.43,3.61,8.73,3.61c3.3,0,6.4-1.28,8.73-3.61s3.61-5.43,3.61-8.73s-1.28-6.4-3.61-8.73C47.77,13.94,44.67,12.65,41.37,12.65z"
				/>
			<path class="st2" d="M54.59,24.11h0.85c-0.08-1.3-0.33-2.56-0.75-3.76l-0.79,0.33l-0.68-1.63l0.79-0.33
				c-0.55-1.1-1.24-2.12-2.06-3.06l-0.6,0.6l-1.25-1.25l0.6-0.6c-0.97-0.86-2.05-1.57-3.19-2.13l-0.33,0.8l-1.63-0.67l0.33-0.8
				c-1.16-0.39-2.38-0.63-3.62-0.7v0.85h-1.76v-0.85c-1.3,0.08-2.56,0.33-3.76,0.75l0.33,0.79l-1.63,0.68l-0.33-0.79
				c-1.1,0.55-2.12,1.24-3.06,2.06l0.6,0.6l-1.25,1.25l-0.6-0.6c-0.86,0.97-1.57,2.05-2.13,3.19l0.8,0.33l-0.67,1.63L28,20.49
				c-0.39,1.16-0.63,2.38-0.7,3.62h0.85v1.76H27.3c0.08,1.3,0.33,2.56,0.75,3.76l0.79-0.33l0.68,1.63l-0.79,0.33
				c0.55,1.1,1.24,2.12,2.06,3.06l0.6-0.6l1.25,1.25l-0.6,0.6c0.97,0.86,2.05,1.57,3.19,2.13l0.33-0.8l1.63,0.67l-0.33,0.8
				c1.16,0.39,2.38,0.63,3.62,0.7v-0.85h1.76v0.85c1.3-0.08,2.56-0.33,3.76-0.75l-0.33-0.79l1.63-0.68l0.33,0.79
				c1.1-0.55,2.12-1.24,3.06-2.06l-0.6-0.6l1.25-1.25l0.6,0.6c0.86-0.97,1.57-2.05,2.13-3.19l-0.8-0.33l0.67-1.63l0.8,0.33
				c0.39-1.16,0.63-2.38,0.7-3.62h-0.85V24.11z M50.1,33.72c-2.33,2.33-5.43,3.61-8.73,3.61c-3.3,0-6.4-1.28-8.73-3.61
				c-2.33-2.33-3.61-5.43-3.61-8.73s1.28-6.4,3.61-8.73c2.33-2.33,5.43-3.61,8.73-3.61c3.3,0,6.4,1.28,8.73,3.61
				c2.33,2.33,3.61,5.43,3.61,8.73S52.43,31.39,50.1,33.72z"/>
			<g>
				<polygon class="st2" points="53.22,19.06 53.9,20.68 54.7,20.35 55.53,20 55.87,20.81 57.5,20.13 56.13,16.88 54.5,17.56 
					54.85,18.37 54.01,18.72 				"/>
				<polygon class="st2" points="28.24,32.42 27.9,31.61 28.73,31.26 29.52,30.93 28.84,29.3 28.05,29.64 27.22,29.99 26.87,29.17 
					25.25,29.86 26.62,33.11 				"/>
				<polygon class="st2" points="47.99,38.47 47.64,37.63 47.31,36.84 45.68,37.52 46.02,38.32 46.37,39.15 45.55,39.49 
					46.24,41.12 49.49,39.75 48.8,38.12 				"/>
				<polygon class="st2" points="34.75,11.52 35.1,12.35 35.44,13.14 37.06,12.46 36.73,11.67 36.38,10.84 37.19,10.49 36.51,8.87 
					33.26,10.24 33.94,11.86 				"/>
				<polygon class="st2" points="55.58,29.84 54.74,29.5 53.95,29.17 53.28,30.81 54.08,31.13 54.91,31.47 54.58,32.29 56.21,32.95 
					57.54,29.69 55.91,29.02 				"/>
				<polygon class="st2" points="26.53,17.03 25.2,20.3 26.83,20.96 27.16,20.15 28,20.49 28.8,20.81 29.46,19.18 28.67,18.86 
					27.83,18.51 28.16,17.7 				"/>
				<polygon class="st2" points="36.87,38.36 37.19,37.57 35.56,36.9 35.23,37.7 34.89,38.53 34.08,38.2 33.41,39.83 36.68,41.17 
					37.34,39.53 36.53,39.2 				"/>
				<polygon class="st2" points="45.55,12.42 47.18,13.08 47.51,12.29 47.85,11.45 48.67,11.78 49.33,10.15 46.07,8.82 45.4,10.45 
					46.22,10.78 45.88,11.62 				"/>
				<polygon class="st2" points="51.95,15.66 54.46,13.15 55.71,14.4 56.95,13.15 53.21,9.41 51.97,10.66 53.21,11.9 50.7,14.42 
					50.1,15.02 51.35,16.27 				"/>
				<polygon class="st2" points="30.8,34.32 28.28,36.84 27.04,35.59 25.79,36.84 29.53,40.58 30.78,39.33 29.53,38.08 32.04,35.57 
					32.65,34.97 31.4,33.72 				"/>
				<polygon class="st2" points="54.46,36.84 51.95,34.32 51.35,33.72 50.1,34.97 50.7,35.57 53.21,38.08 51.97,39.33 53.21,40.58 
					56.95,36.84 55.71,35.59 				"/>
				<polygon class="st2" points="29.53,11.9 30.78,10.66 29.53,9.41 25.79,13.15 27.04,14.4 28.28,13.15 30.8,15.66 31.4,16.27 
					32.65,15.02 32.04,14.42 				"/>
				<polygon class="st2" points="59,22.35 59,24.11 55.45,24.11 54.59,24.11 54.59,25.87 55.45,25.87 59,25.87 59,27.64 
					60.77,27.64 60.77,22.35 				"/>
				<polygon class="st2" points="28.15,25.87 28.15,24.11 27.3,24.11 23.74,24.11 23.74,22.35 21.98,22.35 21.98,27.64 23.74,27.64 
					23.74,25.87 27.3,25.87 				"/>
				<polygon class="st2" points="42.25,39.07 42.25,38.22 40.49,38.22 40.49,39.07 40.49,42.62 38.73,42.62 38.73,44.39 
					44.02,44.39 44.02,42.62 42.25,42.62 				"/>
				<polygon class="st2" points="38.73,7.36 40.49,7.36 40.49,10.92 40.49,11.77 42.25,11.77 42.25,10.92 42.25,7.36 44.02,7.36 
					44.02,5.6 38.73,5.6 				"/>
			</g>
			<path class="st2" d="M0,27.17v-4.25h5.85c1.13,0,2.07-0.1,2.79-0.29c0.72-0.19,1.28-0.51,1.67-0.93
				c0.39-0.42,0.64-0.97,0.77-1.64c0.12-0.68,0.15-1.49,0.08-2.45l-0.53-8.77c-0.07-1.38,0.11-2.62,0.53-3.72s1.06-2.03,1.91-2.79
				c0.85-0.76,1.9-1.34,3.16-1.73C17.5,0.19,18.91,0,20.47,0h2.39v4.25h-2.39c-1.7,0-2.99,0.38-3.86,1.14
				c-0.87,0.76-1.27,1.91-1.2,3.43l0.53,8.77c0.07,0.96-0.02,1.87-0.27,2.74c-0.25,0.87-0.63,1.63-1.14,2.29
				c-0.51,0.65-1.16,1.18-1.94,1.57c-0.78,0.39-1.7,0.6-2.76,0.64v0.27c1.06,0.03,1.99,0.26,2.79,0.66c0.8,0.41,1.44,0.95,1.94,1.62
				c0.5,0.68,0.87,1.45,1.12,2.34c0.25,0.89,0.34,1.81,0.27,2.77l-0.53,8.67c-0.07,1.52,0.33,2.67,1.2,3.43
				c0.87,0.77,2.15,1.15,3.86,1.15h2.39v4.25h-2.39c-1.56,0-2.97-0.19-4.23-0.58c-1.26-0.39-2.31-0.97-3.16-1.73
				c-0.85-0.76-1.49-1.69-1.91-2.79s-0.6-2.34-0.53-3.72l0.53-8.67c0.07-0.96,0.04-1.77-0.08-2.44c-0.13-0.68-0.38-1.22-0.77-1.65
				c-0.39-0.43-0.94-0.74-1.65-0.93c-0.71-0.19-1.65-0.29-2.82-0.29H0z"/>
			<path class="st2" d="M59.88,49.99v-4.25h2.39c1.7,0,2.99-0.38,3.86-1.15c0.87-0.76,1.27-1.9,1.2-3.43l-0.53-8.72
				c-0.04-0.96,0.06-1.87,0.29-2.74c0.23-0.87,0.6-1.63,1.12-2.29c0.51-0.65,1.16-1.18,1.94-1.57c0.78-0.39,1.7-0.6,2.77-0.64v-0.26
				c-1.06-0.03-1.99-0.26-2.79-0.67c-0.8-0.41-1.45-0.95-1.94-1.62c-0.5-0.68-0.86-1.45-1.09-2.34c-0.23-0.89-0.33-1.81-0.29-2.77
				l0.53-8.72c0.07-1.52-0.33-2.67-1.2-3.43c-0.87-0.76-2.16-1.14-3.86-1.14h-2.39V0h2.39c1.56,0,2.97,0.19,4.23,0.58
				c1.26,0.39,2.31,0.97,3.16,1.73c0.85,0.76,1.49,1.69,1.91,2.79c0.42,1.1,0.6,2.34,0.53,3.72l-0.53,8.72
				c-0.04,0.96,0,1.77,0.11,2.44c0.11,0.68,0.35,1.22,0.74,1.65c0.39,0.42,0.94,0.74,1.65,0.93c0.71,0.19,1.65,0.29,2.82,0.29h5.85
				v4.25h-5.85c-1.13,0-2.06,0.1-2.79,0.29c-0.73,0.2-1.29,0.51-1.67,0.93c-0.39,0.43-0.64,0.98-0.74,1.65
				c-0.11,0.68-0.14,1.49-0.11,2.45l0.53,8.72c0.07,1.38-0.11,2.62-0.53,3.72c-0.43,1.1-1.06,2.03-1.91,2.79s-1.91,1.34-3.16,1.73
				c-1.26,0.39-2.67,0.58-4.23,0.58H59.88z"/>
		</g>
		<g>
			<path class="st2" d="M93.45,26.71h1.76l0.56-3.26h-1.7v-1.81h2.01l0.54-3.08h1.9l-0.54,3.08h2.26l0.54-3.08h1.9l-0.54,3.08h1.45
				v1.81h-1.76l-0.56,3.26h1.68v1.81h-1.99l-0.54,3.08h-1.9l0.54-3.08H96.8l-0.54,3.08h-1.9l0.54-3.08h-1.45V26.71z M97.11,26.71
				h2.26l0.56-3.26h-2.26L97.11,26.71z"/>
			<path class="st2" d="M104.59,21.64h2.62v-3.08h2.72v3.08h3.71v2.44h-3.71v4.07c0,0.31,0.09,0.56,0.26,0.73
				c0.17,0.17,0.42,0.26,0.73,0.26h2.53v2.44h-2.81c-1.07,0-1.92-0.3-2.52-0.91c-0.61-0.61-0.91-1.45-0.91-2.52v-4.07h-2.62V21.64z"
				/>
			<path class="st2" d="M115.68,25.42c0-0.6,0.11-1.15,0.33-1.63c0.22-0.48,0.52-0.9,0.92-1.25c0.4-0.35,0.88-0.62,1.44-0.81
				c0.56-0.19,1.19-0.28,1.87-0.28c0.68,0,1.29,0.1,1.85,0.29c0.56,0.19,1.03,0.46,1.43,0.81c0.4,0.35,0.71,0.77,0.92,1.26
				c0.22,0.49,0.33,1.03,0.33,1.62v1.81h-6.41v0.54c0,0.6,0.16,1.07,0.49,1.4c0.33,0.33,0.79,0.5,1.39,0.5
				c0.45,0,0.83-0.07,1.14-0.22c0.31-0.14,0.52-0.34,0.63-0.6h2.66c-0.11,0.43-0.3,0.83-0.57,1.19c-0.27,0.36-0.6,0.66-0.99,0.91
				c-0.39,0.25-0.82,0.45-1.31,0.59s-1.01,0.21-1.57,0.21c-0.69,0-1.31-0.1-1.87-0.29c-0.56-0.19-1.04-0.46-1.44-0.81
				c-0.4-0.34-0.71-0.76-0.92-1.26c-0.22-0.49-0.33-1.04-0.33-1.63V25.42z M118.36,25.62h3.78v-0.18c0-0.6-0.17-1.07-0.5-1.4
				c-0.33-0.33-0.8-0.5-1.4-0.5c-0.59,0-1.05,0.17-1.38,0.5c-0.33,0.33-0.5,0.79-0.5,1.38V25.62z"/>
			<path class="st2" d="M131.19,31.77c-0.69,0-1.31-0.09-1.87-0.27c-0.56-0.18-1.04-0.44-1.44-0.78c-0.4-0.34-0.71-0.74-0.92-1.22
				c-0.22-0.48-0.33-1.01-0.33-1.6v-2.55c0-0.59,0.11-1.13,0.33-1.6c0.22-0.48,0.52-0.88,0.92-1.22c0.4-0.34,0.88-0.6,1.44-0.79
				c0.56-0.19,1.19-0.28,1.87-0.28c0.6,0,1.16,0.08,1.68,0.25c0.52,0.17,0.98,0.41,1.38,0.72c0.4,0.31,0.73,0.69,1,1.14
				c0.27,0.45,0.45,0.95,0.54,1.5h-2.72c-0.08-0.39-0.3-0.69-0.63-0.92c-0.34-0.23-0.75-0.34-1.25-0.34c-0.58,0-1.03,0.14-1.36,0.41
				c-0.33,0.27-0.49,0.65-0.49,1.13v2.55c0,0.48,0.16,0.86,0.49,1.12c0.33,0.27,0.78,0.4,1.36,0.4c0.48,0,0.89-0.12,1.23-0.35
				c0.34-0.24,0.56-0.55,0.65-0.93h2.72c-0.1,0.56-0.28,1.06-0.54,1.5c-0.27,0.45-0.6,0.83-1,1.15c-0.4,0.32-0.86,0.56-1.38,0.73
				C132.36,31.69,131.8,31.77,131.19,31.77z"/>
			<path class="st2" d="M137.64,18.56h2.72v3.08c0,0.18-0.01,0.37-0.03,0.58c-0.02,0.21-0.04,0.39-0.06,0.56
				c-0.02,0.17-0.05,0.36-0.07,0.58h0.2c0.08-0.6,0.35-1.07,0.8-1.4c0.45-0.33,1.03-0.5,1.76-0.5c1.01,0,1.81,0.33,2.4,1
				c0.59,0.66,0.88,1.57,0.88,2.72v6.43h-2.72v-6.15c0-0.51-0.14-0.91-0.43-1.19c-0.28-0.29-0.67-0.43-1.15-0.43
				c-0.48,0-0.87,0.14-1.15,0.43c-0.28,0.29-0.43,0.69-0.43,1.19v6.15h-2.72V18.56z"/>
			<path class="st2" d="M153.44,18.56h3.08l-5.68,7.58v0.67h3.44v-2.64h2.72v7.42h-2.72v-2.43h-5.97v-3.78L153.44,18.56z"/>
			<path class="st2" d="M163.75,31.77c-0.69,0-1.31-0.1-1.86-0.29c-0.56-0.19-1.03-0.47-1.43-0.82c-0.4-0.36-0.71-0.78-0.92-1.29
				c-0.22-0.5-0.33-1.06-0.33-1.67v-5.25c0-0.62,0.11-1.17,0.33-1.67c0.22-0.5,0.52-0.93,0.92-1.29c0.4-0.36,0.88-0.63,1.44-0.82
				c0.56-0.19,1.19-0.29,1.87-0.29c0.68,0,1.29,0.1,1.85,0.29c0.55,0.19,1.03,0.47,1.43,0.82c0.4,0.36,0.71,0.78,0.92,1.29
				c0.22,0.5,0.33,1.06,0.33,1.67h-2.72c0-0.51-0.16-0.91-0.49-1.19c-0.33-0.29-0.77-0.43-1.32-0.43c-0.57,0-1.02,0.14-1.35,0.43
				c-0.33,0.29-0.5,0.69-0.5,1.19v5.25c0,0.51,0.16,0.91,0.48,1.19c0.32,0.29,0.77,0.43,1.35,0.43c0.57,0,1.01-0.15,1.34-0.45
				c0.33-0.3,0.49-0.69,0.49-1.18h2.72c0,0.62-0.11,1.17-0.33,1.67c-0.22,0.5-0.52,0.93-0.92,1.29c-0.4,0.36-0.87,0.63-1.43,0.82
				C165.06,31.68,164.44,31.77,163.75,31.77z"/>
			<path class="st2" d="M174.54,31.77c-0.69,0-1.31-0.1-1.87-0.29s-1.04-0.47-1.44-0.82c-0.4-0.36-0.71-0.78-0.92-1.29
				c-0.22-0.5-0.33-1.06-0.33-1.67v-5.27c0-0.62,0.11-1.17,0.33-1.67c0.22-0.49,0.52-0.92,0.92-1.28c0.4-0.36,0.88-0.63,1.44-0.82
				c0.56-0.19,1.19-0.29,1.87-0.29s1.31,0.1,1.87,0.29c0.56,0.19,1.04,0.47,1.44,0.82c0.4,0.36,0.71,0.78,0.92,1.28
				c0.22,0.49,0.33,1.05,0.33,1.67v5.27c0,0.6-0.11,1.16-0.33,1.66c-0.22,0.5-0.53,0.93-0.93,1.29c-0.4,0.36-0.88,0.63-1.44,0.83
				C175.84,31.67,175.22,31.77,174.54,31.77z M172.7,27.7c0,0.52,0.17,0.93,0.5,1.24c0.33,0.31,0.78,0.46,1.35,0.46
				c0.57,0,1.02-0.15,1.35-0.46c0.33-0.31,0.5-0.72,0.5-1.24v-5.27c0-0.52-0.17-0.93-0.5-1.24c-0.33-0.31-0.78-0.46-1.35-0.46
				c-0.57,0-1.02,0.15-1.35,0.46c-0.33,0.31-0.5,0.72-0.5,1.24V27.7z"/>
			<path class="st2" d="M180.15,18.56h2.75l2.19,9.39c0.05,0.18,0.09,0.38,0.12,0.59c0.03,0.21,0.06,0.41,0.08,0.59
				c0.02,0.22,0.05,0.43,0.07,0.65h0.11c0.02-0.22,0.05-0.43,0.09-0.65c0.02-0.18,0.05-0.38,0.09-0.59
				c0.04-0.21,0.07-0.41,0.11-0.59l2.15-9.39h2.73l-3.48,13.03h-3.62L180.15,18.56z"/>
			<path class="st2" d="M192.19,20.91v-2.35h8.15v2.35h-2.72v8.33h2.72v2.35h-8.15v-2.35h2.72v-8.33H192.19z"/>
			<path class="st2" d="M202.83,18.56h4.29c0.69,0,1.31,0.1,1.87,0.3c0.56,0.2,1.04,0.49,1.44,0.86c0.4,0.37,0.71,0.82,0.92,1.34
				c0.22,0.52,0.33,1.1,0.33,1.74v4.54c0,0.64-0.11,1.22-0.33,1.75c-0.22,0.52-0.52,0.97-0.92,1.34c-0.4,0.37-0.88,0.65-1.44,0.86
				c-0.56,0.21-1.19,0.31-1.87,0.31h-4.29V18.56z M205.55,29.06h1.57c0.55,0,1-0.16,1.34-0.47c0.34-0.31,0.51-0.73,0.51-1.25V22.8
				c0-0.51-0.17-0.92-0.51-1.23c-0.34-0.31-0.78-0.47-1.34-0.47h-1.57V29.06z"/>
			<path class="st2" d="M213.82,29.24h3.49v-6.82c0-0.52,0.02-0.89,0.05-1.12c0.01-0.14,0.02-0.27,0.04-0.36h-0.05
				c-0.05,0.06-0.11,0.13-0.2,0.2c-0.06,0.06-0.14,0.13-0.24,0.22c-0.1,0.08-0.23,0.18-0.37,0.27l-2.55,1.65v-2.62l3.06-2.08h2.99
				v10.68h2.75v2.35h-8.96V29.24z"/>
			<path class="st2" d="M224.14,22.65c0-0.64,0.11-1.22,0.34-1.75c0.22-0.52,0.54-0.97,0.95-1.35c0.41-0.37,0.91-0.66,1.48-0.87
				c0.58-0.21,1.22-0.31,1.94-0.31c0.72,0,1.38,0.11,1.95,0.32c0.58,0.21,1.07,0.51,1.48,0.9c0.4,0.39,0.72,0.85,0.94,1.39
				s0.34,1.15,0.34,1.83c0,0.83-0.17,1.67-0.52,2.51c-0.35,0.84-0.86,1.76-1.54,2.78l-2.35,3.49h-3.02l2.99-4.36
				c0.34-0.48,0.6-0.86,0.78-1.14c0.18-0.28,0.32-0.48,0.42-0.62c0.11-0.16,0.17-0.26,0.2-0.31h-0.11
				c-0.18,0.28-0.39,0.52-0.63,0.72c-0.22,0.19-0.49,0.37-0.81,0.52c-0.32,0.15-0.7,0.23-1.13,0.23c-0.54,0-1.04-0.1-1.49-0.29
				c-0.45-0.19-0.84-0.46-1.17-0.81c-0.33-0.34-0.58-0.76-0.75-1.26C224.22,23.79,224.14,23.24,224.14,22.65z M228.84,24.62
				c0.6,0,1.09-0.18,1.45-0.54c0.36-0.36,0.54-0.84,0.54-1.45c0-0.62-0.18-1.1-0.53-1.46c-0.36-0.36-0.84-0.53-1.46-0.53
				c-0.62,0-1.1,0.18-1.46,0.53c-0.36,0.36-0.53,0.84-0.53,1.46s0.18,1.1,0.53,1.46C227.74,24.45,228.23,24.62,228.84,24.62z"/>
		</g>
	</g>
</g>
<g id="Site">
</g>
<g id="_x35_col" class="st23">
	<rect x="101.41" y="-1025.46" class="st24" width="255" height="3454.69"/>
	<rect x="-173.59" y="-1025.46" class="st24" width="255" height="3454.69"/>
</g>
<g id="_x34_col" class="st23">
	<rect x="172.66" y="-1025.46" class="st25" width="316.25" height="2357.43"/>
	<rect x="-173.59" y="-1025.46" class="st25" width="316.25" height="2357.43"/>
</g>
<g id="_x38__col" class="st23">
	<rect x="172.66" y="-1025.46" class="st26" width="143.12" height="3794.82"/>
	<rect x="-0.47" y="-1025.46" class="st26" width="143.12" height="3794.82"/>
</g>
</svg>
