<?xml version="1.0" encoding="utf-8"?>
<!-- Generator: Adobe Illustrator 24.0.1, SVG Export Plug-In . SVG Version: 6.00 Build 0)  -->
<svg version="1.1" xmlns="http://www.w3.org/2000/svg" xmlns:xlink="http://www.w3.org/1999/xlink" x="0px" y="0px"
	 viewBox="0 0 60 60" style="enable-background:new 0 0 60 60;" xml:space="preserve">
<style type="text/css">
	.st0{clip-path:url(#SVGID_2_);}
	.st1{fill:#DADADA;}
	.st2{fill:#FFFFFF;}
	.st3{fill:#878787;}
	.st4{fill-rule:evenodd;clip-rule:evenodd;fill:#878787;}
</style>
<g id="Fundo">
</g>
<g id="Site">
	<g>
		<g>
			<g>
				<g>
					<g>
						<path class="st3" d="M60,36.5V57.7c0,0.52-0.42,0.95-0.95,0.95H48.1c-0.52,0-0.95-0.42-0.95-0.95V37.98
							c0-5.19-1.85-8.74-6.51-8.74c-3.55,0-5.66,2.39-6.59,4.7c-0.34,0.83-0.43,1.97-0.43,3.13V57.7c0,0.52-0.42,0.95-0.95,0.95
							H21.74c-0.53,0-0.95-0.42-0.95-0.95c0.02-5.25,0.14-30.74,0.02-36.73c-0.01-0.53,0.42-0.96,0.95-0.96h10.92
							c0.52,0,0.95,0.42,0.95,0.95v4.53c-0.03,0.04-0.06,0.09-0.09,0.13h0.09v-0.13c1.71-2.63,4.75-6.38,11.58-6.38
							C53.66,19.11,60,24.63,60,36.5L60,36.5z M1.79,58.65h10.95c0.52,0,0.95-0.42,0.95-0.95V20.96c0-0.52-0.42-0.95-0.95-0.95H1.79
							c-0.52,0-0.95,0.42-0.95,0.95V57.7C0.84,58.23,1.26,58.65,1.79,58.65z"/>
					</g>
				</g>
			</g>
			<g>
				<circle class="st3" cx="6.88" cy="8.22" r="6.88"/>
			</g>
		</g>
	</g>
</g>
</svg>
