<?xml version="1.0" encoding="utf-8"?>
<!-- Generator: Adobe Illustrator 24.0.1, SVG Export Plug-In . SVG Version: 6.00 Build 0)  -->
<svg version="1.1" xmlns="http://www.w3.org/2000/svg" xmlns:xlink="http://www.w3.org/1999/xlink" x="0px" y="0px"
	 viewBox="0 0 89.21 58.8" style="enable-background:new 0 0 89.21 58.8;" xml:space="preserve">
<style type="text/css">
	.st0{fill:#FFFFFF;}
	.st1{fill:#EB5766;}
	.st2{fill:#1C1E1D;}
	.st3{fill:none;}
	.st4{fill-rule:evenodd;clip-rule:evenodd;fill:#FFFFFF;}
	.st5{fill-rule:evenodd;clip-rule:evenodd;fill:#9D9D9C;}
	.st6{fill:#9D9D9C;}
	.st7{fill:#F7F8FA;}
	.st8{fill:#EF7D34;}
	.st9{fill:#31BEEF;}
	.st10{fill:#DC4419;}
	.st11{opacity:0.6;}
	.st12{fill:#455A64;}
	.st13{fill:#263239;}
	.st14{fill:none;stroke:#DC4419;stroke-width:3;stroke-miterlimit:10;}
	.st15{fill:#0F72B9;}
	.st16{fill:#3AB8BD;}
	.st17{fill:#74B73A;}
	.st18{fill:#97A3AA;}
	.st19{fill:#F8B333;}
	.st20{fill:#E73E33;}
	.st21{fill:#DC4438;}
	.st22{fill:#020203;}
	.st23{display:none;}
	.st24{display:inline;opacity:0.3;fill:#3AAA35;}
	.st25{display:inline;opacity:0.3;fill:#E71D73;}
	.st26{display:inline;opacity:0.1;fill:#009FE3;}
</style>
<g id="Fundo">
</g>
<g id="Site">
	<g transform="translate(0,-952.36218)">
		<path class="st20" d="M44.6,952.36c-6.13,0-11.15,5.02-11.15,11.15c-0.02,1.12,0.88,2.04,2,2.06c1.12,0.02,2.04-0.88,2.06-2
			c0-0.02,0-0.04,0-0.06c0-3.94,3.15-7.1,7.1-7.1s7.1,3.15,7.1,7.1c0,1.48-0.37,2.39-1.05,3.36c-0.67,0.97-1.71,1.93-2.88,3.04
			c-2.06,1.96-4.51,4.68-5.07,9c-2.17,0.41-3.93,1.48-5.29,2.72c-1.74,1.59-3.01,3.39-4.37,4.75c-0.03,0.03-0.06,0.06-0.1,0.1
			c-2.8,3.15-10.73,5.59-18.09,8.39c-3.68,1.4-7.22,2.97-10.01,5.16c-2.79,2.2-4.85,5.28-4.85,9.09c0,1.12,0.91,2.03,2.03,2.03
			h85.15c1.12,0,2.03-0.91,2.03-2.03c0-3.82-2.06-6.9-4.85-9.09c-2.79-2.2-6.33-3.76-10.01-5.16c-7.35-2.81-15.28-5.25-18.09-8.39
			c-0.03-0.03-0.06-0.06-0.1-0.1c-1.36-1.36-2.63-3.16-4.37-4.75c-1.31-1.2-2.98-2.22-5.04-2.66c0.43-2.87,1.93-4.36,3.8-6.15
			c1.11-1.06,2.35-2.16,3.39-3.64s1.81-3.38,1.81-5.67C55.75,957.38,50.74,952.36,44.6,952.36z M44.6,982.77
			c1.99,0,3.16,0.67,4.47,1.87c1.27,1.17,2.52,2.88,4.15,4.53c0.03,0.03,0.07,0.06,0.1,0.1c4.37,4.8,12.58,6.73,19.61,9.41
			c3.54,1.35,6.75,2.84,8.93,4.56c1.5,1.18,2.31,2.45,2.79,3.86H4.56c0.48-1.42,1.29-2.69,2.79-3.86c2.18-1.72,5.39-3.21,8.93-4.56
			c7.03-2.68,15.24-4.61,19.61-9.41c0.02-0.02,0.04-0.04,0.06-0.06c0.01-0.01,0.02-0.02,0.03-0.03c1.63-1.65,2.88-3.36,4.15-4.53
			C41.44,983.45,42.61,982.77,44.6,982.77z"/>
	</g>
</g>
<g id="_x35_col" class="st23">
	<rect x="-110.51" y="-967.55" class="st24" width="255" height="3454.69"/>
</g>
<g id="_x34_col" class="st23">
	<rect x="-171.76" y="-967.55" class="st25" width="316.25" height="2357.43"/>
</g>
<g id="_x38__col" class="st23">
	<rect x="1.36" y="-967.55" class="st26" width="143.12" height="3794.82"/>
</g>
</svg>
