<?xml version="1.0" encoding="utf-8"?>
<!-- Generator: Adobe Illustrator 24.0.1, SVG Export Plug-In . SVG Version: 6.00 Build 0)  -->
<svg version="1.1" xmlns="http://www.w3.org/2000/svg" xmlns:xlink="http://www.w3.org/1999/xlink" x="0px" y="0px"
	 viewBox="0 0 60 60" style="enable-background:new 0 0 60 60;" xml:space="preserve">
<style type="text/css">
	.st0{clip-path:url(#SVGID_2_);}
	.st1{fill:#DADADA;}
	.st2{fill:#FFFFFF;}
	.st3{fill:#878787;}
	.st4{fill-rule:evenodd;clip-rule:evenodd;fill:#878787;}
</style>
<g id="Fundo">
</g>
<g id="Site">
	<g>
		<g>
			<g>
				<path class="st3" d="M59.77,11.21c-1.91,0.86-4,1.39-6.06,1.73c0.98-0.16,2.42-1.93,2.99-2.65c0.88-1.09,1.61-2.33,2.02-3.68
					c0.05-0.1,0.09-0.24-0.01-0.32c-0.13-0.05-0.22-0.03-0.32,0.03c-2.3,1.23-4.67,2.12-7.2,2.75c-0.21,0.05-0.36,0-0.5-0.13
					c-0.21-0.24-0.41-0.46-0.63-0.64c-1.06-0.9-2.2-1.61-3.49-2.14c-1.69-0.69-3.53-0.98-5.35-0.86c-1.77,0.11-3.5,0.61-5.07,1.43
					c-1.57,0.82-2.98,1.96-4.09,3.34c-1.16,1.43-2.01,3.11-2.44,4.9c-0.42,1.72-0.39,3.43-0.13,5.17c0.04,0.29,0.01,0.33-0.25,0.29
					C19.35,18.98,11.15,15.44,4.5,7.86C4.21,7.53,4.05,7.53,3.82,7.88c-2.91,4.36-1.5,11.38,2.14,14.82
					c0.48,0.46,0.98,0.92,1.52,1.34c-0.2,0.04-2.62-0.22-4.77-1.34c-0.29-0.18-0.43-0.08-0.46,0.25c-0.03,0.47,0.01,0.91,0.08,1.42
					c0.56,4.42,3.62,8.52,7.82,10.11c0.5,0.21,1.05,0.39,1.59,0.48c-0.96,0.21-1.94,0.36-4.68,0.15c-0.34-0.07-0.47,0.1-0.34,0.43
					c2.06,5.61,6.51,7.29,9.84,8.24c0.45,0.08,0.89,0.08,1.34,0.18c-0.03,0.04-0.05,0.04-0.08,0.08c-1.1,1.68-4.93,2.94-6.72,3.56
					c-3.24,1.13-6.78,1.64-10.2,1.31c-0.55-0.08-0.66-0.07-0.81,0c-0.15,0.09-0.02,0.22,0.16,0.37c0.7,0.46,1.4,0.87,2.13,1.26
					c2.18,1.15,4.45,2.07,6.82,2.73c12.26,3.39,26.06,0.9,35.27-8.25c7.23-7.18,9.76-17.08,9.76-27c0-0.39,0.46-0.6,0.73-0.81
					c1.88-1.41,3.37-3.1,4.78-4.99c0.32-0.42,0.3-0.8,0.3-0.96c0-0.03,0-0.05,0-0.05C60,11.06,60.02,11.1,59.77,11.21z"/>
			</g>
			<g>
				<path class="st4" d="M17.82,54.5C17.74,54.5,16.83,54.5,17.82,54.5C17.82,54.5,17.66,54.5,17.82,54.5z"/>
			</g>
			<g>
				<path class="st4" d="M19.84,54.55C19.84,54.45,20.9,54.55,19.84,54.55C19.84,54.5,19.97,54.55,19.84,54.55z"/>
			</g>
			<g>
				<path class="st4" d="M41.06,5.36c-0.07,0.05-0.16,0.05-0.25,0C40.9,5.36,40.99,5.36,41.06,5.36z"/>
			</g>
		</g>
	</g>
</g>
</svg>
