<?xml version="1.0" encoding="utf-8"?>
<!-- Generator: Adobe Illustrator 24.0.1, SVG Export Plug-In . SVG Version: 6.00 Build 0)  -->
<svg version="1.1" xmlns="http://www.w3.org/2000/svg" xmlns:xlink="http://www.w3.org/1999/xlink" x="0px" y="0px"
	 viewBox="0 0 66.55 70.56" style="enable-background:new 0 0 66.55 70.56;" xml:space="preserve">
<style type="text/css">
	.st0{fill:#FFFFFF;}
	.st1{fill:#EB5766;}
	.st2{fill:#1C1E1D;}
	.st3{fill:none;}
	.st4{fill-rule:evenodd;clip-rule:evenodd;fill:#FFFFFF;}
	.st5{fill-rule:evenodd;clip-rule:evenodd;fill:#9D9D9C;}
	.st6{fill:#9D9D9C;}
	.st7{fill:#F7F8FA;}
	.st8{fill:#EF7D34;}
	.st9{fill:#31BEEF;}
	.st10{fill:#DC4419;}
	.st11{opacity:0.6;}
	.st12{fill:#455A64;}
	.st13{fill:#263239;}
	.st14{fill:none;stroke:#DC4419;stroke-width:3;stroke-miterlimit:10;}
	.st15{fill:#0F72B9;}
	.st16{fill:#3AB8BD;}
	.st17{fill:#74B73A;}
	.st18{fill:#97A3AA;}
	.st19{fill:#F8B333;}
	.st20{fill:#E73E33;}
	.st21{fill:#DC4438;}
	.st22{fill:#020203;}
	.st23{display:none;}
	.st24{display:inline;opacity:0.3;fill:#3AAA35;}
	.st25{display:inline;opacity:0.3;fill:#E71D73;}
	.st26{display:inline;opacity:0.1;fill:#009FE3;}
</style>
<g id="Fundo">
</g>
<g id="Site">
	<path class="st17" d="M31.61,55.46l-7.83,11.92c-1.04,1.57-2.66,2.65-4.5,3.02c-0.44,0.09-0.88,0.13-1.33,0.13
		c-1.31,0-2.6-0.39-3.68-1.13c-3.07-2.08-3.88-6.25-1.8-9.32c0.08-0.11,0.15-0.22,0.24-0.33L23.5,45.77
		c0.76-0.97,2.16-1.15,3.13-0.39c0.97,0.76,1.15,2.16,0.39,3.13L16.23,62.49c-0.77,1.01-0.57,2.45,0.43,3.22
		c0.04,0.03,0.07,0.05,0.11,0.08c0.49,0.32,1.08,0.43,1.66,0.32c0.68-0.14,1.27-0.54,1.66-1.11l7.83-11.96
		c0.6-1.06,1.94-1.44,3.01-0.84c1.06,0.6,1.44,1.94,0.84,3.01C31.72,55.29,31.67,55.37,31.61,55.46L31.61,55.46z M62.39,1.72
		c-2.94-2.11-6.95-2.29-11.21-0.49c-4.25,1.94-7.9,5.01-10.55,8.86c-3.84,5.38-5.62,11.57-4.79,16.56c0.16,0.99,0.07,2-0.26,2.94
		c-0.37,1.16,0.27,2.4,1.43,2.78c1.13,0.36,2.35-0.24,2.75-1.35c0.56-1.64,0.71-3.39,0.43-5.1c-0.64-3.81,0.91-8.89,4.03-13.25
		c2.18-3.2,5.18-5.74,8.69-7.36c1.62-0.68,4.67-1.59,6.93,0c2.25,1.59,2.39,4.79,2.27,6.54c-0.39,3.85-1.83,7.52-4.14,10.62
		c-3.12,4.42-7.43,7.5-11.23,8.13c-1.69,0.28-3.28,0.96-4.65,2c-0.37,0.28-0.72,0.58-1.05,0.91c-0.84,0.88-0.81,2.28,0.07,3.12
		c0.84,0.8,2.16,0.82,3.02,0.04c0.2-0.2,0.42-0.38,0.64-0.55c0.78-0.6,1.69-1,2.66-1.17c4.97-0.83,10.28-4.54,14.11-9.93
		c2.79-3.77,4.51-8.23,4.95-12.9c0.31-4.62-1.16-8.32-4.12-10.43V1.72z M30.57,28.81c1.33-3.16,0.93-6.78-1.06-9.57L16.38,0.9
		c-0.72-0.98-2.1-1.2-3.09-0.47c-0.97,0.71-1.19,2.06-0.51,3.04l13.12,18.35c1.11,1.56,1.32,3.58,0.56,5.34
		c-0.62,1.36-0.44,2.95,0.46,4.14l24.29,31.42c0.7,0.92,0.53,2.24-0.39,2.94c-0.92,0.7-2.24,0.53-2.94-0.39
		c-0.03-0.03-0.05-0.07-0.08-0.1L25.8,32.1c-0.84-1.24-2.29-1.91-3.78-1.76c-1.91,0.18-3.78-0.66-4.91-2.21L3.99,9.79
		C3.27,8.81,1.89,8.6,0.9,9.32c-0.97,0.71-1.19,2.06-0.51,3.04l13.14,18.35c2.01,2.78,5.31,4.32,8.73,4.07l21.87,32.87
		c0.98,1.48,2.51,2.49,4.26,2.8c0.39,0.07,0.79,0.11,1.19,0.11c3.6,0,6.51-2.92,6.51-6.52c0-1.44-0.48-2.84-1.36-3.98L30.57,28.81z
		 M20.44,25.86c1.22,0,2.21-0.99,2.2-2.21c0-0.46-0.15-0.91-0.41-1.28L10.25,5.23c-0.7-1-2.08-1.24-3.08-0.54
		c-1,0.7-1.24,2.08-0.54,3.08l12,17.14c0.41,0.59,1.09,0.94,1.81,0.94V25.86z"/>
</g>
<g id="_x35_col" class="st23">
	<rect x="-120.95" y="-805.39" class="st24" width="255" height="3454.69"/>
</g>
<g id="_x34_col" class="st23">
	<rect x="-182.21" y="-805.39" class="st25" width="316.25" height="2357.43"/>
</g>
<g id="_x38__col" class="st23">
	<rect x="-9.08" y="-805.39" class="st26" width="143.12" height="3794.82"/>
</g>
</svg>
