<svg enable-background="new 0 0 60 60" viewBox="0 0 60 60" xmlns="http://www.w3.org/2000/svg"><g fill="#878787"><path d="m60 36.5v21.2c0 .52-.42.95-.95.95h-10.95c-.52 0-.95-.42-.95-.95v-19.72c0-5.19-1.85-8.74-6.51-8.74-3.55 0-5.66 2.39-6.59 4.7-.34.83-.43 1.97-.43 3.13v20.63c0 .52-.42.95-.95.95h-10.93c-.53 0-.95-.42-.95-.95.02-5.25.14-30.74.02-36.73-.01-.53.42-.96.95-.96h10.92c.52 0 .95.42.95.95v4.53c-.03.04-.06.09-.09.13h.09v-.13c1.71-2.63 4.75-6.38 11.58-6.38 8.45 0 14.79 5.52 14.79 17.39zm-58.21 22.15h10.95c.52 0 .95-.42.95-.95v-36.74c0-.52-.42-.95-.95-.95h-10.95c-.52 0-.95.42-.95.95v36.74c0 .53.42.95.95.95z"/><circle cx="6.88" cy="8.22" r="6.88"/></g></svg>