<?xml version="1.0" encoding="utf-8"?>
<!-- Generator: Adobe Illustrator 24.0.1, SVG Export Plug-In . SVG Version: 6.00 Build 0)  -->
<svg version="1.1" xmlns="http://www.w3.org/2000/svg" xmlns:xlink="http://www.w3.org/1999/xlink" x="0px" y="0px"
	 viewBox="0 0 40.16 25.71" style="enable-background:new 0 0 40.16 25.71;" xml:space="preserve">
<style type="text/css">
	.st0{fill:#FFFFFF;}
	.st1{fill:#EB5766;}
	.st2{fill:#1C1E1D;}
	.st3{fill:none;}
	.st4{fill-rule:evenodd;clip-rule:evenodd;fill:#FFFFFF;}
	.st5{fill-rule:evenodd;clip-rule:evenodd;fill:#9D9D9C;}
	.st6{fill:#9D9D9C;}
	.st7{fill:#F7F8FA;}
	.st8{fill:#EF7D34;}
	.st9{fill:#31BEEF;}
	.st10{fill:#DC4419;}
	.st11{opacity:0.6;}
	.st12{fill:#455A64;}
	.st13{fill:#263239;}
	.st14{fill:none;stroke:#DC4419;stroke-width:3;stroke-miterlimit:10;}
	.st15{fill:#0F72B9;}
	.st16{fill:#3AB8BD;}
	.st17{fill:#74B73A;}
	.st18{fill:#97A3AA;}
	.st19{fill:#F8B333;}
	.st20{fill:#E73E33;}
	.st21{fill:#DC4438;}
	.st22{fill:#020203;}
	.st23{display:none;}
	.st24{display:inline;opacity:0.3;fill:#3AAA35;}
	.st25{display:inline;opacity:0.3;fill:#E71D73;}
	.st26{display:inline;opacity:0.1;fill:#009FE3;}
</style>
<g id="Fundo">
</g>
<g id="Site">
	<path class="st10" d="M40.07,1.31C40.07,1.31,40.07,1.31,40.07,1.31L40.07,1.31c0.01-0.02,0.01-0.03,0.01-0.04
		c0.01-0.03,0.02-0.05,0.03-0.08c0.01-0.02,0.01-0.04,0.02-0.06c0-0.01,0-0.02,0.01-0.04c0.01-0.03,0.01-0.05,0.01-0.08
		c0-0.02,0.01-0.04,0.01-0.06c0-0.01,0-0.03,0-0.04c0-0.02,0-0.05,0-0.07c0-0.02,0-0.04,0-0.06c0-0.02-0.01-0.03-0.01-0.05
		c0-0.01,0-0.02,0-0.03c0-0.01-0.01-0.03-0.01-0.04c0-0.02-0.01-0.04-0.01-0.06c-0.01-0.02-0.01-0.03-0.02-0.04
		c-0.01-0.03-0.02-0.05-0.04-0.08c-0.01-0.01-0.01-0.03-0.02-0.04c0,0,0,0,0,0c-0.01-0.01-0.02-0.02-0.03-0.04
		C40,0.39,39.98,0.37,39.96,0.34c-0.01-0.01-0.02-0.03-0.03-0.04c-0.01-0.01-0.02-0.02-0.03-0.03c-0.02-0.02-0.04-0.04-0.07-0.06
		c-0.01-0.01-0.02-0.02-0.02-0.02c0,0-0.01-0.01-0.01-0.01c-0.01-0.01-0.02-0.01-0.04-0.02c-0.02-0.02-0.05-0.03-0.07-0.04
		c-0.02-0.01-0.03-0.02-0.05-0.03c0,0,0,0,0,0c-0.01,0-0.02-0.01-0.03-0.01c-0.03-0.01-0.05-0.02-0.08-0.03
		c-0.02-0.01-0.04-0.01-0.06-0.02c-0.01,0-0.03,0-0.04-0.01c-0.02-0.01-0.05-0.01-0.07-0.01C39.35,0.01,39.33,0,39.31,0
		c-0.01,0-0.03,0-0.04,0c-0.02,0-0.05,0-0.07,0c-0.02,0-0.04,0-0.07,0c-0.01,0-0.03,0.01-0.04,0.01c-0.01,0-0.02,0-0.03,0L0.71,8.55
		c-0.01,0-0.01,0-0.02,0.01c-0.03,0.01-0.07,0.02-0.1,0.03C0.57,8.6,0.54,8.61,0.52,8.62C0.49,8.63,0.47,8.65,0.44,8.67
		C0.42,8.68,0.39,8.69,0.37,8.71C0.35,8.73,0.32,8.75,0.3,8.77C0.28,8.79,0.26,8.81,0.24,8.83C0.22,8.85,0.2,8.87,0.19,8.89
		C0.17,8.92,0.15,8.95,0.13,8.97c0,0.01-0.01,0.01-0.01,0.02C0.11,9.01,0.1,9.03,0.09,9.05C0.08,9.08,0.06,9.11,0.05,9.14
		C0.04,9.16,0.04,9.19,0.03,9.22C0.02,9.25,0.01,9.28,0.01,9.31C0.01,9.34,0,9.37,0,9.4c0,0.03,0,0.06,0,0.09
		c0,0.03,0.01,0.07,0.01,0.1c0,0.02,0,0.04,0.01,0.06c0,0.01,0,0.01,0.01,0.02c0.01,0.02,0.01,0.04,0.02,0.07
		c0.01,0.03,0.02,0.06,0.04,0.09C0.09,9.84,0.1,9.86,0.11,9.88c0.02,0.03,0.03,0.06,0.05,0.09C0.18,9.99,0.19,10,0.21,10.02
		c0.02,0.03,0.05,0.05,0.07,0.08c0.02,0.01,0.03,0.03,0.05,0.04c0.03,0.03,0.07,0.05,0.11,0.08c0.01,0.01,0.02,0.01,0.03,0.02
		l11.26,6.45v8.11c0,0.36,0.21,0.69,0.54,0.83c0.12,0.05,0.25,0.08,0.37,0.08c0.22,0,0.44-0.08,0.61-0.23l2.94-2.64
		c0.37-0.34,0.41-0.91,0.07-1.29c-0.34-0.37-0.91-0.41-1.29-0.07l-1.42,1.27v-5.03l13.73,7.86c0.01,0.01,0.03,0.01,0.04,0.02
		c0.01,0,0.01,0.01,0.02,0.01c0.01,0,0.01,0,0.02,0.01c0.06,0.03,0.11,0.05,0.17,0.06c0.01,0,0.02,0,0.03,0.01
		c0.06,0.01,0.12,0.02,0.18,0.02c0,0,0,0,0,0c0.01,0,0.02,0,0.03,0c0.03,0,0.06,0,0.09-0.01c0.02,0,0.03-0.01,0.05-0.01
		c0.02,0,0.05-0.01,0.07-0.02c0.02,0,0.03-0.01,0.05-0.02c0.02-0.01,0.05-0.02,0.07-0.02c0.02-0.01,0.03-0.01,0.05-0.02
		c0.02-0.01,0.04-0.02,0.06-0.03c0.02-0.01,0.03-0.02,0.04-0.03c0.02-0.01,0.04-0.03,0.06-0.04c0.01-0.01,0.03-0.02,0.04-0.04
		c0.02-0.02,0.03-0.03,0.05-0.05c0.01-0.01,0.03-0.03,0.04-0.04c0.01-0.02,0.03-0.03,0.04-0.05c0.01-0.02,0.02-0.03,0.03-0.05
		c0.01-0.01,0.01-0.02,0.02-0.03c0-0.01,0.01-0.01,0.01-0.02c0.01-0.01,0.01-0.02,0.02-0.03L40.07,1.31z M27.32,23.52l-12.86-7.36
		L37.15,3.16L27.32,23.52z M3.4,9.82l30.18-6.72l-20.95,12L3.4,9.82z"/>
</g>
<g id="_x35_col" class="st23">
	<rect x="0.3" y="-289.15" class="st24" width="255" height="3454.69"/>
</g>
<g id="_x34_col" class="st23">
	<rect x="-60.96" y="-289.15" class="st25" width="316.25" height="2357.43"/>
</g>
<g id="_x38__col" class="st23">
	<rect x="-60.96" y="-289.15" class="st26" width="143.12" height="3794.82"/>
</g>
</svg>
