<?xml version="1.0" encoding="utf-8"?>
<!-- Generator: Adobe Illustrator 24.0.1, SVG Export Plug-In . SVG Version: 6.00 Build 0)  -->
<svg version="1.1" xmlns="http://www.w3.org/2000/svg" xmlns:xlink="http://www.w3.org/1999/xlink" x="0px" y="0px"
	 viewBox="0 0 75.56 53.53" style="enable-background:new 0 0 75.56 53.53;" xml:space="preserve">
<style type="text/css">
	.st0{fill:#FFFFFF;}
	.st1{fill:#EB5766;}
	.st2{fill:#1C1E1D;}
	.st3{fill:none;}
	.st4{fill-rule:evenodd;clip-rule:evenodd;fill:#FFFFFF;}
	.st5{fill-rule:evenodd;clip-rule:evenodd;fill:#9D9D9C;}
	.st6{fill:#9D9D9C;}
	.st7{fill:#F7F8FA;}
	.st8{fill:#EF7D34;}
	.st9{fill:#31BEEF;}
	.st10{fill:#DC4419;}
	.st11{opacity:0.6;}
	.st12{fill:#455A64;}
	.st13{fill:#263239;}
	.st14{fill:none;stroke:#DC4419;stroke-width:3;stroke-miterlimit:10;}
	.st15{fill:#0F72B9;}
	.st16{fill:#3AB8BD;}
	.st17{fill:#74B73A;}
	.st18{fill:#97A3AA;}
	.st19{fill:#F8B333;}
	.st20{fill:#E73E33;}
	.st21{fill:#DC4438;}
	.st22{fill:#020203;}
	.st23{display:none;}
	.st24{display:inline;opacity:0.3;fill:#3AAA35;}
	.st25{display:inline;opacity:0.3;fill:#E71D73;}
	.st26{display:inline;opacity:0.1;fill:#009FE3;}
</style>
<g id="Fundo">
	<g>
		<path class="st8" d="M75.56,8.43c0-4.61-3.82-8.43-8.43-8.43S58.7,3.74,58.7,8.43c0,3.58,2.31,6.68,5.49,7.87v9.86l-14.48,3.9
			v23.38h5.81V34.6l14.48-3.9V16.3C73.25,15.11,75.56,12.01,75.56,8.43z"/>
		<path class="st8" d="M11.37,16.3c3.18-1.19,5.49-4.29,5.49-7.87C16.86,3.82,13.04,0,8.43,0S0,3.74,0,8.43
			c0,3.58,2.31,6.68,5.49,7.87v14.4l14.48,3.9v18.93h5.89V30.06l-14.48-3.9V16.3z"/>
		<path class="st8" d="M37.78,0c-4.61,0-8.43,3.82-8.43,8.43c0,3.58,2.31,6.68,5.49,7.87v37.22h5.81V16.3
			c3.18-1.19,5.49-4.29,5.49-7.87C46.21,3.74,42.39,0,37.78,0z"/>
	</g>
</g>
<g id="Site">
</g>
<g id="_x35_col" class="st23">
	<rect x="-70.54" y="-651.42" class="st24" width="255" height="3454.69"/>
</g>
<g id="_x34_col" class="st23">
	<rect x="-203.04" y="-651.42" class="st25" width="316.25" height="2357.43"/>
</g>
<g id="_x38__col" class="st23">
	<rect x="-29.91" y="-651.42" class="st26" width="143.12" height="3794.82"/>
</g>
</svg>
