<?xml version="1.0" encoding="utf-8"?>
<!-- Generator: Adobe Illustrator 24.0.1, SVG Export Plug-In . SVG Version: 6.00 Build 0)  -->
<svg version="1.1" xmlns="http://www.w3.org/2000/svg" xmlns:xlink="http://www.w3.org/1999/xlink" x="0px" y="0px"
	 viewBox="0 0 67.1 72.15" style="enable-background:new 0 0 67.1 72.15;" xml:space="preserve">
<style type="text/css">
	.st0{fill:#FFFFFF;}
	.st1{fill:#EB5766;}
	.st2{fill:#1C1E1D;}
	.st3{fill:none;}
	.st4{fill-rule:evenodd;clip-rule:evenodd;fill:#FFFFFF;}
	.st5{fill-rule:evenodd;clip-rule:evenodd;fill:#9D9D9C;}
	.st6{fill:#9D9D9C;}
	.st7{fill:#F7F8FA;}
	.st8{fill:#EF7D34;}
	.st9{fill:#31BEEF;}
	.st10{fill:#DC4419;}
	.st11{opacity:0.6;}
	.st12{fill:#455A64;}
	.st13{fill:#263239;}
	.st14{fill:none;stroke:#DC4419;stroke-width:3;stroke-miterlimit:10;}
	.st15{fill:#0F72B9;}
	.st16{fill:#3AB8BD;}
	.st17{fill:#74B73A;}
	.st18{fill:#97A3AA;}
	.st19{fill:#F8B333;}
	.st20{fill:#E73E33;}
	.st21{fill:#DC4438;}
	.st22{fill:#020203;}
	.st23{display:none;}
	.st24{display:inline;opacity:0.3;fill:#3AAA35;}
	.st25{display:inline;opacity:0.3;fill:#E71D73;}
	.st26{display:inline;opacity:0.1;fill:#009FE3;}
</style>
<g id="Fundo">
	<g>
		<g>
			<g>
				<path class="st9" d="M43.69,72.13c-0.32,0.03-0.64,0.03-0.96,0l-2.91-0.67c-2.36-0.58-3.81-2.94-3.26-5.3l4.14-17.47
					c-5.13,2.18-8.51,7.16-8.65,12.73c0,1.25,0.19,2.5,0.55,3.7l0.58,1.98H31.1C13.66,65.87,0,52.53,0,36.51
					C0,19.65,15.03,5.93,33.49,5.93c5.55-0.04,11.03,1.21,16.02,3.64c0.17-0.3,0.33-0.61,0.47-0.93c0.3-0.69,0.53-1.4,0.7-2.13
					c0.33-1.53,0.34-3.1,0.03-4.63L50.44,0.4l1.49-0.29c2.3-0.3,4.63,0.03,6.76,0.96l0,0c6.4,2.8,9.48,10.12,7.02,16.66v0.29
					c-0.59,1.47-1.45,2.83-2.53,3.99c5.44,9.2,5.22,20.69-0.58,29.68l-0.99,1.57l-1.28-1.34c-2.02-2.1-4.56-3.63-7.37-4.43
					l-4.98,21.14C47.53,70.66,45.75,72.11,43.69,72.13z M44.09,46.71l-4.75,20.1c-0.2,0.78,0.27,1.57,1.05,1.77
					c0.01,0,0.02,0,0.03,0.01l2.91,0.64c0.79,0.16,1.56-0.33,1.75-1.11l9.29-39.7c0.22-0.74-0.2-1.52-0.94-1.74
					c-0.05-0.02-0.11-0.03-0.16-0.04l-2.91-0.67l0,0c-0.75-0.18-1.52,0.27-1.72,1.02l0,0L44.09,46.71z M33.49,8.84
					c-16.86,0-30.58,12.41-30.58,27.67c0,13.86,11.45,25.54,26.42,27.38c-0.14-0.82-0.21-1.65-0.2-2.48
					c0.19-7.5,5.15-14.04,12.32-16.25l4.43-18.84c0.16-0.7,0.49-1.35,0.96-1.89c-1.77-1.05-2.94-2.88-3.15-4.92l0,0
					c-0.02-0.21-0.02-0.43,0-0.64c0.01-2.14,0.97-4.17,2.62-5.53l0.29-0.44l0.93-0.93C43.13,9.91,38.34,8.85,33.49,8.84z
					 M53.5,44.78c2.73,0.75,5.27,2.1,7.43,3.93c4.27-7.67,4.27-17,0-24.67c-1.24,0.85-2.62,1.47-4.08,1.83
					c0.51,0.88,0.69,1.91,0.52,2.91l0,0L53.5,44.78z M52.42,23.41c2.87,0.31,5.74-0.61,7.89-2.53l0.15-0.38
					c1.1-1.03,1.95-2.31,2.48-3.73l0.15-0.32c1.79-5.34-1.09-11.12-6.43-12.9c-0.93-0.31-1.91-0.49-2.89-0.52
					c0.06,1.4-0.06,2.8-0.38,4.16c-0.23,0.89-0.52,1.77-0.87,2.62c-0.17,0.38-0.38,0.76-0.58,1.14l0,0l-0.26,0.41l-0.64,0.96
					l-0.2,0.29c-0.75,1.08-1.64,2.06-2.65,2.91l0,0l-0.41,0.35c-0.76,0.78-1.2,1.82-1.22,2.91v0.38c0.1,1.23,0.81,2.32,1.89,2.91
					l0,0l0,0c0.79,0.43,1.63,0.76,2.5,0.96l0,0l0.93,0.2h0.55V23.41z M18.93,52.53c-4.02,0-7.28-3.26-7.28-7.28s3.26-7.28,7.28-7.28
					s7.28,3.26,7.28,7.28S22.95,52.53,18.93,52.53z M18.93,40.88c-2.41,0-4.37,1.96-4.37,4.37c0,2.41,1.96,4.37,4.37,4.37
					s4.37-1.96,4.37-4.37C23.3,42.84,21.34,40.88,18.93,40.88z M16.02,35.06c-1.28,0-2.53-0.33-3.64-0.96
					c-3.47-2.03-4.66-6.47-2.68-9.96l0,0c0.97-1.67,2.56-2.89,4.43-3.38c1.87-0.52,3.87-0.26,5.53,0.73
					c3.47,2.02,4.65,6.48,2.62,9.96C20.98,33.67,18.6,35.05,16.02,35.06z M16.02,23.41c-0.38,0.01-0.76,0.05-1.14,0.15
					c-1.12,0.31-2.07,1.04-2.65,2.04l0,0c-0.58,1.01-0.73,2.2-0.44,3.32c0.62,2.33,3.02,3.72,5.35,3.09
					c1.12-0.3,2.08-1.04,2.66-2.05c0.63-0.99,0.84-2.18,0.58-3.32c-0.3-1.12-1.03-2.08-2.04-2.65
					C17.64,23.58,16.83,23.38,16.02,23.41z M31.34,27.11c-1.27,0.01-2.52-0.34-3.61-0.99c-3.48-2.01-4.68-6.45-2.68-9.93l0,0
					c2.01-3.48,6.46-4.68,9.94-2.67c1.67,0.96,2.89,2.55,3.39,4.42c1.04,3.88-1.25,7.86-5.13,8.91
					C32.63,27.02,31.99,27.1,31.34,27.11z M27.58,17.58c-1.21,2.09-0.5,4.76,1.59,5.97c1.01,0.58,2.21,0.74,3.33,0.44
					c2.33-0.62,3.71-3.02,3.09-5.35c0,0,0-0.01,0-0.01c-0.62-2.33-3.02-3.72-5.35-3.09C29.12,15.84,28.16,16.57,27.58,17.58z"/>
			</g>
		</g>
	</g>
</g>
<g id="Site">
</g>
<g id="_x35_col" class="st23">
	<rect x="-122.48" y="-641.75" class="st24" width="255" height="3454.69"/>
</g>
<g id="_x34_col" class="st23">
	<rect x="-183.73" y="-641.75" class="st25" width="316.25" height="2357.43"/>
</g>
<g id="_x38__col" class="st23">
	<rect x="-10.61" y="-641.75" class="st26" width="143.12" height="3794.82"/>
</g>
</svg>
