<?xml version="1.0" encoding="utf-8"?>
<!-- Generator: Adobe Illustrator 24.0.1, SVG Export Plug-In . SVG Version: 6.00 Build 0)  -->
<svg version="1.1" xmlns="http://www.w3.org/2000/svg" xmlns:xlink="http://www.w3.org/1999/xlink" x="0px" y="0px"
	 viewBox="0 0 60 60" style="enable-background:new 0 0 60 60;" xml:space="preserve">
<style type="text/css">
	.st0{clip-path:url(#SVGID_2_);}
	.st1{fill:#DADADA;}
	.st2{fill:#FFFFFF;}
	.st3{fill:#878787;}
	.st4{fill-rule:evenodd;clip-rule:evenodd;fill:#666666;}
</style>
<g id="Fundo">
</g>
<g id="Site">
	<g>
		<g>
			<g>
				<path class="st4" d="M22.2,30.24v29.01c0,0.42,0.34,0.76,0.76,0.76h10.77c0.42,0,0.76-0.34,0.76-0.76V29.76h7.81
					c0.39,0,0.72-0.3,0.75-0.69l0.75-8.88c0.04-0.44-0.31-0.82-0.75-0.82h-8.56v-6.3c0-1.48,1.2-2.67,2.67-2.67h6.02
					c0.42,0,0.76-0.34,0.76-0.76V0.76C43.94,0.34,43.6,0,43.18,0H33.01C27.04,0,22.2,4.84,22.2,10.81v8.56h-5.39
					c-0.42,0-0.76,0.34-0.76,0.76v8.88c0,0.42,0.34,0.76,0.76,0.76h5.39V30.24z"/>
			</g>
		</g>
	</g>
</g>
</svg>
