<?xml version="1.0" encoding="utf-8"?>
<!-- Generator: Adobe Illustrator 24.0.1, SVG Export Plug-In . SVG Version: 6.00 Build 0)  -->
<svg version="1.1" xmlns="http://www.w3.org/2000/svg" xmlns:xlink="http://www.w3.org/1999/xlink" x="0px" y="0px"
	 viewBox="0 0 253.12 129.58" style="enable-background:new 0 0 253.12 129.58;" xml:space="preserve">
<style type="text/css">
	.st0{fill:#FFFFFF;}
	.st1{fill:#EB5766;}
	.st2{fill:#1C1E1D;}
	.st3{fill:none;}
	.st4{fill-rule:evenodd;clip-rule:evenodd;fill:#FFFFFF;}
	.st5{fill-rule:evenodd;clip-rule:evenodd;fill:#9D9D9C;}
	.st6{fill:#9D9D9C;}
	.st7{fill:#F7F8FA;}
	.st8{fill:#EF7D34;}
	.st9{fill:#31BEEF;}
	.st10{fill:#DC4419;}
	.st11{opacity:0.6;}
	.st12{fill:#455A64;}
	.st13{fill:#263239;}
	.st14{fill:none;stroke:#DC4419;stroke-width:3;stroke-miterlimit:10;}
	.st15{fill:#0F72B9;}
	.st16{fill:#3AB8BD;}
	.st17{fill:#74B73A;}
	.st18{fill:#97A3AA;}
	.st19{fill:#F8B333;}
	.st20{fill:#E73E33;}
	.st21{fill:#DC4438;}
	.st22{fill:#020203;}
	.st23{display:none;}
	.st24{display:inline;opacity:0.3;fill:#3AAA35;}
	.st25{display:inline;opacity:0.3;fill:#E71D73;}
	.st26{display:inline;opacity:0.1;fill:#009FE3;}
</style>
<g id="Fundo">
	<path class="st7" d="M243.12,129.58H9.15c-5.29,0-9.58-4.29-9.58-9.58V9.58C-0.43,4.29,3.86,0,9.15,0h233.96
		c5.29,0,9.58,4.29,9.58,9.58V120C252.7,125.29,248.41,129.58,243.12,129.58z"/>
	<path class="st7" d="M243.54,129.58H9.58C4.29,129.58,0,125.29,0,120V9.58C0,4.29,4.29,0,9.58,0h233.96c5.29,0,9.58,4.29,9.58,9.58
		V120C253.12,125.29,248.84,129.58,243.54,129.58z"/>
</g>
<g id="Site">
	<g>
		<g>
			<path class="st21" d="M168.69,62.5c-4.04,0.54-6.87,4.25-6.34,8.29s4.25,6.87,8.29,6.34c3.3-0.44,5.89-3.04,6.34-6.34
				c0.54-4.04-2.3-7.75-6.34-8.29C169.99,62.41,169.34,62.41,168.69,62.5z"/>
			<path class="st21" d="M180.59,34.24c-16.77,0-30.37,13.6-30.37,30.37s13.6,30.37,30.37,30.37s30.37-13.6,30.37-30.37l0,0
				C210.96,47.84,197.36,34.24,180.59,34.24z M169.69,82.24c-6.62,0.01-12.07-5.19-12.35-11.8c-0.35-6.53,0.1-22.13,0.1-22.13
				c0.03-0.56,0.49-1.01,1.05-1.01h2.68c0.56,0,1.01,0.45,1.01,1.01l0.05,12.32c0.01,0.1,0.1,0.17,0.19,0.16
				c0.04,0,0.08-0.02,0.11-0.06c1.41-1.86,4.57-3.27,7.18-3.27c6.85,0,12.41,5.55,12.41,12.41s-5.55,12.41-12.41,12.41L169.69,82.24
				z M196.08,82.24c-6.81-0.02-12.33-5.54-12.34-12.35c0-6.88,4.82-12.45,12.45-12.45c3.61,0.02,7.07,1.48,9.59,4.07
				c0.3,0.4,0.26,0.96-0.1,1.31l-2.06,1.91c-0.34,0.34-0.89,0.36-1.25,0.05c-1.65-1.66-3.9-2.58-6.24-2.53
				c-4.57,0-7.38,3.06-7.38,7.63s2.51,7.53,7.43,7.53c2.34,0,4.59-0.86,6.34-2.42c0.36-0.29,0.87-0.27,1.21,0.05l2.01,1.91
				c0.38,0.33,0.42,0.89,0.09,1.27c-0.01,0.01-0.02,0.03-0.04,0.04C203.27,80.9,199.73,82.35,196.08,82.24L196.08,82.24z"/>
			<path class="st22" d="M39.8,57.32v-3.51c0-4.52,2.61-8.79,7.69-9.24c2.7-0.26,5.36,0.76,7.18,2.76c0.33,0.35,0.32,0.91-0.03,1.24
				c0,0-0.01,0.01-0.01,0.01l-1.86,1.71c-0.33,0.25-0.78,0.25-1.11,0c-2.81-2.26-6.88-0.76-6.88,3.23v3.76
				c0,0.25,0.2,0.45,0.45,0.45l3.5,0.15c0.46,0.02,0.81,0.4,0.8,0.85v2.96c0.01,0.46-0.35,0.83-0.8,0.85l-3.55,0.15
				c-0.22,0.01-0.39,0.19-0.4,0.4l-0.15,18.28c-0.01,0.46-0.39,0.84-0.85,0.85h-2.96c-0.46-0.01-0.84-0.38-0.86-0.85L39.8,63.1
				V57.32z"/>
			<path class="st22" d="M77.17,69.83c-0.01,6.84-5.57,12.37-12.41,12.35c-6.84-0.01-12.37-5.57-12.35-12.41
				c0.01-6.82,5.54-12.34,12.35-12.35c6.83-0.02,12.38,5.5,12.41,12.33C77.17,69.78,77.17,69.8,77.17,69.83z M57.33,69.83
				c-0.01,4.12,3.31,7.47,7.43,7.48c4.12,0.01,7.47-3.31,7.48-7.43c0.01-4.12-3.31-7.47-7.43-7.48c-0.02,0-0.04,0-0.05,0
				C60.67,62.43,57.36,65.74,57.33,69.83L57.33,69.83z"/>
			<path class="st22" d="M102.18,76.91c0.37,0.33,0.41,0.89,0.08,1.27c-0.01,0.01-0.02,0.03-0.04,0.04
				c-2.51,2.66-6.04,4.12-9.69,4.02c-6.82-0.01-12.35-5.54-12.36-12.36c0-6.88,4.82-12.45,12.45-12.45
				c3.61,0.02,7.07,1.48,9.59,4.07c0.3,0.4,0.26,0.96-0.1,1.31l-2.06,1.91c-0.34,0.34-0.89,0.36-1.25,0.05
				c-1.64-1.66-3.89-2.57-6.22-2.53c-4.57,0-7.38,3.06-7.38,7.63s2.51,7.53,7.43,7.53c2.33,0,4.58-0.87,6.32-2.42
				c0.36-0.29,0.87-0.27,1.21,0.05L102.18,76.91z"/>
			<path class="st22" d="M116.54,82.24c-7.18,0-10.55-5.22-10.55-10.55l0.2-13.36c0-0.5,0.4-0.9,0.89-0.91c0,0,0.01,0,0.01,0h2.76
				c0.5,0,0.9,0.4,0.91,0.89c0,0,0,0.01,0,0.01l0.2,13.36c0,3.9,2.78,5.86,5.57,5.87"/>
			<path class="st22" d="M147.56,73.14c2.86,9.04-12.35,12.74-17.53,4.62c-0.25-0.47-0.1-1.05,0.35-1.34l2.51-1.34
				c0.4-0.2,0.87-0.09,1.15,0.25c1.27,1.34,3.02,2.11,4.87,2.16c1.81,0,4.17-0.91,3.92-2.81c-0.35-2.36-4.17-1.96-7.69-3.35
				c-7.43-3.01-5.87-12.31,2.51-13.66c4.47-0.67,8.09,0.75,10.5,4.52c0.28,0.45,0.15,1.03-0.3,1.31c-0.02,0.01-0.03,0.02-0.05,0.03
				l-2.21,1.31c-0.43,0.2-0.94,0.1-1.25-0.25c-1.39-1.85-3.7-2.76-5.98-2.36c-1.66,0.25-2.91,1.31-2.96,2.21
				C134.9,69.93,145.51,66.56,147.56,73.14L147.56,73.14z"/>
			<path class="st22" d="M116.51,77.56c2.79,0,5.57-1.97,5.57-5.87l0.2-13.36c0-0.5,0.4-0.9,0.89-0.91c0,0,0.01,0,0.01,0h2.76
				c0.5,0,0.9,0.4,0.91,0.89c0,0,0,0.01,0,0.01l0.2,13.36c0,5.32-3.35,10.55-10.55,10.55"/>
		</g>
	</g>
</g>
<g id="_x35_col" class="st23">
	<rect x="-1.5" y="-3410.2" class="st24" width="255" height="3454.69"/>
</g>
<g id="_x34_col" class="st23">
</g>
<g id="_x38__col" class="st23">
	<rect x="-32.13" y="-3410.2" class="st26" width="143.12" height="3794.82"/>
	<rect x="141" y="-3410.2" class="st26" width="143.12" height="3794.82"/>
</g>
</svg>
