<svg enable-background="new 0 0 60.64 60.64" viewBox="0 0 60.64 60.64" xmlns="http://www.w3.org/2000/svg"><g fill="#878787"><path d="m30.32 13.97c-1.51 0-2.73 1.22-2.73 2.73v16.36c0 1.51 1.22 2.73 2.73 2.73h10.91c1.51 0 2.73-1.22 2.73-2.73s-1.22-2.73-2.73-2.73h-8.18v-13.64c0-1.51-1.22-2.72-2.73-2.72z"/><path d="m52.33 11.04c-5.15-5.15-12-7.99-19.28-7.99s-14.13 2.84-19.28 7.99-7.99 12-7.99 19.28h-5.46l8.18 10.92 8.18-10.91h-5.45c0-5.83 2.27-11.31 6.39-15.43s9.6-6.39 15.43-6.39 11.31 2.27 15.43 6.39 6.39 9.6 6.39 15.43-2.27 11.31-6.39 15.43c-8.51 8.51-22.35 8.51-30.85 0-1.07-1.07-2.79-1.07-3.86 0s-1.07 2.79 0 3.86c5.32 5.32 12.3 7.97 19.28 7.97s13.97-2.66 19.28-7.97c5.15-5.15 7.99-12 7.99-19.28s-2.84-14.15-7.99-19.3z"/></g></svg>