<?xml version="1.0" encoding="utf-8"?>
<!-- Generator: Adobe Illustrator 24.0.1, SVG Export Plug-In . SVG Version: 6.00 Build 0)  -->
<svg version="1.1" xmlns="http://www.w3.org/2000/svg" xmlns:xlink="http://www.w3.org/1999/xlink" x="0px" y="0px"
	 viewBox="0 0 56.38 78.77" style="enable-background:new 0 0 56.38 78.77;" xml:space="preserve">
<style type="text/css">
	.st0{fill:#FFFFFF;}
	.st1{fill:#EB5766;}
	.st2{fill:#1C1E1D;}
	.st3{fill:none;}
	.st4{fill-rule:evenodd;clip-rule:evenodd;fill:#FFFFFF;}
	.st5{fill-rule:evenodd;clip-rule:evenodd;fill:#9D9D9C;}
	.st6{fill:#9D9D9C;}
	.st7{fill:#F7F8FA;}
	.st8{fill:#EF7D34;}
	.st9{fill:#31BEEF;}
	.st10{fill:#DC4419;}
	.st11{opacity:0.6;}
	.st12{fill:#455A64;}
	.st13{fill:#263239;}
	.st14{fill:none;stroke:#DC4419;stroke-width:3;stroke-miterlimit:10;}
	.st15{fill:#0F72B9;}
	.st16{fill:#3AB8BD;}
	.st17{fill:#74B73A;}
	.st18{fill:#97A3AA;}
	.st19{fill:#F8B333;}
	.st20{fill:#E73E33;}
	.st21{fill:#DC4438;}
	.st22{fill:#020203;}
	.st23{display:none;}
	.st24{display:inline;opacity:0.3;fill:#3AAA35;}
	.st25{display:inline;opacity:0.3;fill:#E71D73;}
	.st26{display:inline;opacity:0.1;fill:#009FE3;}
</style>
<g id="Fundo">
</g>
<g id="Site">
	<path class="st15" d="M53.77,66.72H20.74c-1.29-2.13-2.27-4.47-2.87-6.95h27.56c1.28,0,2.32-1.04,2.32-2.32
		c0-1.28-1.04-2.32-2.32-2.32H17.21c-0.02-0.38-0.04-0.76-0.04-1.14c0-7.55,3.41-14.29,8.76-18.8l3.32,10.34
		c0.5,1.57,1.97,2.57,3.54,2.57c0.37,0,0.75-0.06,1.13-0.18l9.84-3.15c1.94-0.62,3.02-2.72,2.4-4.66L35.67,7.45
		c-0.5-1.57-1.97-2.57-3.54-2.57c-0.15,0-0.31,0.02-0.46,0.04l-0.75-2.34C30.42,1.01,28.95,0,27.39,0c-0.37,0-0.75,0.06-1.12,0.18
		l-4.28,1.37c-1.94,0.62-3.02,2.72-2.4,4.66l0.77,2.39c-1.41,0.88-2.11,2.63-1.58,4.27l2.12,6.61C9.23,26.54,1.41,39.35,1.41,53.99
		c0,4.46,0.73,8.74,2.07,12.76C1.55,66.86,0,68.47,0,70.43v4.64c0,2.04,1.67,3.71,3.71,3.71h45.43c2.04,0,4.31-1.56,5.04-3.46
		l1.97-5.13C56.88,68.28,55.81,66.72,53.77,66.72z M33.38,43.23l-0.99-3.09l8.07-2.59l0.99,3.09L33.38,43.23z M39.61,34.9
		l-8.07,2.59l-8.07-25.15l8.07-2.59L39.61,34.9z M26.79,4.87l0.44,1.39l-2.51,0.81l-0.44-1.39L26.79,4.87z M22.35,24.02l2.07,6.47
		c-0.19,0.14-0.39,0.29-0.58,0.43l-1.08,0.88c-0.75,0.65-1.47,1.33-2.15,2.05l-0.94,1.03c-0.7,0.81-1.36,1.65-1.97,2.53l-0.77,1.16
		c-0.55,0.89-1.05,1.81-1.51,2.76l-0.57,1.28c-1.48,3.5-2.31,7.34-2.31,11.38c0,4.56,1.06,8.88,2.93,12.73H8.39
		c-1.51-3.96-2.35-8.24-2.35-12.73C6.05,41.42,12.54,30.38,22.35,24.02z M49.86,73.62c-0.12,0.2-0.53,0.48-0.76,0.52H4.64v-2.78
		h46.09L49.86,73.62z"/>
</g>
<g id="_x35_col" class="st23">
	<rect x="-79.19" y="-793.99" class="st24" width="255" height="3454.69"/>
</g>
<g id="_x34_col" class="st23">
	<rect x="-211.69" y="-793.99" class="st25" width="316.25" height="2357.43"/>
</g>
<g id="_x38__col" class="st23">
	<rect x="-38.57" y="-793.99" class="st26" width="143.12" height="3794.82"/>
</g>
</svg>
