<?xml version="1.0" encoding="utf-8"?>
<!-- Generator: Adobe Illustrator 24.0.1, SVG Export Plug-In . SVG Version: 6.00 Build 0)  -->
<svg version="1.1" xmlns="http://www.w3.org/2000/svg" xmlns:xlink="http://www.w3.org/1999/xlink" x="0px" y="0px"
	 viewBox="0 0 183.74 165.04" style="enable-background:new 0 0 183.74 165.04;" xml:space="preserve">
<style type="text/css">
	.st0{fill:#F7F8FA;}
	.st1{fill:#BE4622;fill-opacity:0.9;}
	.st2{fill:#141519;}
	.st3{fill:#FFFFFF;}
	.st4{fill:#CD5865;}
	.st5{fill:#222323;}
	.st6{fill:none;}
	.st7{fill:#F7F7F9;}
	.st8{fill:#BE4622;}
	.st9{fill-rule:evenodd;clip-rule:evenodd;fill:#FFFFFF;}
	.st10{fill:none;stroke:#FFFFFF;stroke-miterlimit:10;}
	.st11{fill-rule:evenodd;clip-rule:evenodd;fill:#9C9B9B;}
	.st12{fill:#9C9B9B;}
	.st13{fill:#D67C3C;}
	.st14{fill:#71BCED;}
	.st15{fill:none;stroke:#868686;stroke-width:0.5;stroke-miterlimit:10;}
	.st16{fill:#FFFFFF;stroke:#D9D9D9;stroke-width:0.75;stroke-miterlimit:10;}
	.st17{opacity:0.6;}
	.st18{fill:#4D5B64;}
	.st19{fill:#2E363B;}
	.st20{fill:none;stroke:#BE4622;stroke-width:3;stroke-miterlimit:10;}
	.st21{fill:#4272B5;}
	.st22{fill:#71B7BC;}
	.st23{fill:#8AB647;}
	.st24{fill:#99A2A8;}
	.st25{fill:#E6B241;}
	.st26{fill:#C84137;}
	.st27{fill-rule:evenodd;clip-rule:evenodd;fill:none;stroke:#C5C5C5;stroke-width:0.25;stroke-miterlimit:10;}
	.st28{fill:#BF463B;}
	.st29{fill:#08090A;}
	.st30{display:none;}
	.st31{display:inline;opacity:0.3;fill:#6AA842;}
	.st32{display:inline;opacity:0.3;fill:#C62370;}
	.st33{display:inline;opacity:0.1;fill:#009DE0;}
</style>
<g id="Fundo">
</g>
<g id="Site">
	<g>
		<g>
			<path class="st8" d="M125.5,91.93l2.25-4.65c0-0.01,0-0.01,0.01-0.01l0.01-0.01c0.01-0.03,0.02-0.06,0.03-0.1
				c0.04-0.08,0.07-0.17,0.1-0.25c0.02-0.06,0.05-0.12,0.06-0.18c0.01-0.04,0.01-0.08,0.02-0.12c0.02-0.08,0.03-0.16,0.04-0.25
				c0.01-0.06,0.02-0.13,0.03-0.19c0-0.04,0-0.09,0-0.13c0-0.08,0-0.15-0.01-0.23c0-0.07,0-0.13-0.01-0.19h-14.56l-28.41,6.32H125.5
				z"/>
			<path class="st8" d="M183.67,2.81c0-0.56-0.22-1.09-0.6-1.5c-0.07-0.12-0.14-0.24-0.23-0.36l-0.02-0.01
				c-0.6-0.57-1.4-0.9-2.23-0.94l-0.02,0H46.17l-0.02,0c-0.84,0-1.64,0.34-2.23,0.94L43.9,0.95c-0.08,0.11-0.15,0.22-0.21,0.33
				c-0.18,0.21-0.33,0.44-0.44,0.69c-0.09,0.26-0.14,0.53-0.16,0.8c-0.03,0.13-0.06,0.26-0.08,0.39v85.61
				c0.02,0.15,0.05,0.3,0.09,0.44c0.02,0.24,0.07,0.48,0.14,0.71c0.1,0.22,0.22,0.42,0.37,0.61c0.07,0.14,0.15,0.27,0.24,0.4
				c0.01,0.01,0.03,0.02,0.05,0.03c0.28,0.28,0.6,0.51,0.96,0.68c0.03,0.01,0.04,0.04,0.07,0.05c0.39,0.17,0.81,0.25,1.24,0.25
				h12.25l28.41-6.32H54.2l36.85-34.31l14.18,13.81c4.52,4.45,11.77,4.45,16.29,0l15.12-14.73l36.16,35.23h-38.98
				c0.01,0.13,0.01,0.26,0.01,0.39c0,0.16,0,0.33-0.01,0.53c-0.01,0.22-0.04,0.43-0.07,0.65c-0.02,0.18-0.05,0.36-0.09,0.54
				c-0.03,0.14-0.06,0.29-0.1,0.46c-0.07,0.27-0.14,0.48-0.21,0.65c-0.04,0.12-0.09,0.24-0.14,0.37c-0.06,0.17-0.13,0.34-0.21,0.5
				l-0.01,0.03l-0.01,0.03l-0.02,0.05l-0.01,0.03l-1.01,2.09h48.65c0.84,0,1.65-0.34,2.25-0.94l0.02-0.01
				c0.09-0.11,0.16-0.23,0.23-0.36c0.38-0.41,0.59-0.94,0.59-1.5c0.03-0.12,0.05-0.23,0.07-0.35v-0.04v0V3.16
				C183.73,3.04,183.7,2.93,183.67,2.81z M49.33,81.5V10.66l37.19,36.22L49.33,81.5z M134.38,43.76L134.38,43.76L134.38,43.76
				L117.1,60.58c-2.07,2.04-5.39,2.04-7.46,0L53.95,6.32h118.86L134.38,43.76z M177.42,81.27l-36.25-35.31l36.25-35.31V81.27z"/>
		</g>
		<path class="st8" d="M90.73,163.84c0.04-0.05,0.07-0.1,0.11-0.16c0.02-0.03,0.05-0.06,0.07-0.1c0.01-0.02,0.02-0.05,0.03-0.07
			c0.02-0.04,0.04-0.07,0.06-0.11l36.76-76.12c0-0.01,0-0.01,0.01-0.01l0.01-0.01c0.01-0.03,0.02-0.06,0.03-0.1
			c0.04-0.08,0.07-0.17,0.1-0.25c0.02-0.06,0.05-0.12,0.06-0.18c0.01-0.04,0.01-0.08,0.02-0.12c0.02-0.08,0.03-0.16,0.04-0.25
			c0.01-0.06,0.02-0.13,0.03-0.19c0-0.04,0-0.09,0-0.13c0-0.08,0-0.15-0.01-0.23c0-0.07,0-0.13-0.01-0.2
			c-0.01-0.05-0.02-0.1-0.03-0.15c-0.01-0.03,0-0.07-0.01-0.1c-0.01-0.04-0.03-0.08-0.04-0.12c-0.02-0.06-0.03-0.12-0.05-0.18
			c-0.02-0.05-0.04-0.09-0.06-0.14c-0.03-0.09-0.07-0.17-0.11-0.25c-0.02-0.04-0.03-0.08-0.05-0.12c0,0,0,0,0-0.01
			c-0.02-0.04-0.06-0.08-0.08-0.12c-0.05-0.08-0.11-0.16-0.17-0.23c-0.03-0.04-0.05-0.08-0.09-0.12c-0.03-0.03-0.06-0.06-0.09-0.09
			c-0.07-0.07-0.14-0.13-0.21-0.2c-0.03-0.02-0.05-0.05-0.08-0.07c-0.01-0.01-0.02-0.02-0.03-0.03c-0.04-0.03-0.08-0.05-0.11-0.07
			c-0.07-0.05-0.15-0.1-0.23-0.14c-0.05-0.03-0.1-0.07-0.16-0.09c0,0,0,0-0.01,0c-0.03-0.01-0.06-0.02-0.1-0.04
			c-0.08-0.04-0.16-0.07-0.25-0.09c-0.06-0.02-0.12-0.05-0.18-0.06c-0.04-0.01-0.08-0.01-0.12-0.02c-0.08-0.02-0.16-0.03-0.24-0.04
			c-0.07-0.01-0.13-0.02-0.2-0.03c-0.01,0-0.02,0-0.04,0c-0.03,0-0.05,0-0.08,0c-0.01,0-0.01,0-0.02,0c-0.01,0-0.01,0-0.02,0
			c-0.07,0-0.14,0-0.2,0.01c-0.07,0-0.14,0-0.21,0.01c-0.05,0.01-0.09,0.02-0.14,0.03c-0.03,0.01-0.07,0-0.1,0.01L2.27,110.36
			c-0.02,0.01-0.04,0.01-0.06,0.02c-0.11,0.03-0.21,0.07-0.32,0.1c-0.08,0.03-0.15,0.05-0.23,0.09c-0.09,0.04-0.18,0.1-0.26,0.15
			c-0.07,0.05-0.15,0.09-0.22,0.14c-0.08,0.06-0.14,0.12-0.22,0.19c-0.07,0.06-0.14,0.12-0.21,0.19c-0.06,0.06-0.11,0.14-0.16,0.21
			c-0.06,0.08-0.13,0.17-0.18,0.26c-0.01,0.02-0.03,0.03-0.04,0.05c-0.03,0.06-0.05,0.12-0.08,0.18c-0.05,0.09-0.09,0.19-0.13,0.29
			c-0.03,0.09-0.05,0.18-0.08,0.26c-0.02,0.09-0.05,0.19-0.06,0.28c-0.01,0.1-0.02,0.19-0.02,0.29c0,0.09-0.01,0.18-0.01,0.27
			c0,0.11,0.02,0.21,0.04,0.32c0.01,0.06,0.01,0.13,0.02,0.19c0,0.02,0.02,0.04,0.02,0.07c0.02,0.07,0.04,0.14,0.07,0.21
			c0.03,0.1,0.07,0.2,0.11,0.3c0.03,0.06,0.06,0.13,0.1,0.19c0.05,0.09,0.11,0.19,0.17,0.27c0.04,0.06,0.08,0.11,0.13,0.17
			c0.07,0.09,0.15,0.16,0.22,0.24c0.05,0.05,0.1,0.1,0.15,0.14c0.11,0.09,0.22,0.17,0.34,0.24c0.03,0.02,0.05,0.04,0.09,0.06
			l35.9,20.55v25.86c0,1.15,0.67,2.19,1.72,2.65c0.38,0.17,0.78,0.25,1.18,0.25c0.7,0,1.4-0.26,1.94-0.74l9.37-8.41
			c1.19-1.07,1.29-2.91,0.22-4.11c-0.57-0.64-1.37-0.97-2.16-0.97c-0.69,0-1.38,0.24-1.94,0.74l-4.52,4.06V139.6l43.77,25.06
			c0.04,0.02,0.08,0.04,0.13,0.06c0.02,0.01,0.03,0.02,0.05,0.03c0.02,0.01,0.03,0.01,0.05,0.02c0.18,0.08,0.36,0.15,0.54,0.19
			c0.03,0.01,0.06,0.01,0.09,0.02c0.19,0.04,0.38,0.06,0.57,0.06c0,0,0.01,0,0.01,0c0.03,0,0.06,0,0.08-0.01
			c0.1,0,0.2-0.01,0.3-0.02c0.05-0.01,0.1-0.02,0.15-0.03c0.08-0.01,0.16-0.03,0.23-0.05c0.05-0.01,0.1-0.03,0.15-0.05
			c0.07-0.02,0.15-0.05,0.22-0.08c0.05-0.02,0.1-0.05,0.15-0.07c0.07-0.03,0.14-0.07,0.2-0.11c0.05-0.03,0.09-0.06,0.14-0.09
			c0.06-0.04,0.12-0.08,0.18-0.13c0.05-0.04,0.09-0.08,0.13-0.11c0.05-0.05,0.11-0.1,0.16-0.15c0.04-0.04,0.08-0.09,0.12-0.14
			C90.64,163.95,90.69,163.89,90.73,163.84z M40.26,131.24l-29.4-16.83l96.21-21.41L40.26,131.24z M87.12,158.07l-41-23.48
			l72.34-41.42L87.12,158.07z"/>
	</g>
</g>
<g id="_x35_col" class="st30">
	<rect x="57.61" y="-3037.66" class="st31" width="255" height="3454.69"/>
</g>
<g id="_x34_col" class="st30">
</g>
<g id="_x38__col" class="st30">
	<rect x="57.61" y="-3037.66" class="st33" width="143.12" height="3794.82"/>
</g>
</svg>
