<?xml version="1.0" encoding="utf-8"?>
<!-- Generator: Adobe Illustrator 24.0.1, SVG Export Plug-In . SVG Version: 6.00 Build 0)  -->
<svg version="1.1" xmlns="http://www.w3.org/2000/svg" xmlns:xlink="http://www.w3.org/1999/xlink" x="0px" y="0px"
	 viewBox="0 0 63.7 63.7" style="enable-background:new 0 0 63.7 63.7;" xml:space="preserve">
<style type="text/css">
	.st0{fill:#FFFFFF;}
	.st1{fill:#EB5766;}
	.st2{fill:#1C1E1D;}
	.st3{fill:none;}
	.st4{fill-rule:evenodd;clip-rule:evenodd;fill:#FFFFFF;}
	.st5{fill-rule:evenodd;clip-rule:evenodd;fill:#9D9D9C;}
	.st6{fill:#9D9D9C;}
	.st7{fill:#F7F8FA;}
	.st8{fill:#EF7D34;}
	.st9{fill:#31BEEF;}
	.st10{fill:#DC4419;}
	.st11{opacity:0.6;}
	.st12{fill:#455A64;}
	.st13{fill:#263239;}
	.st14{fill:none;stroke:#DC4419;stroke-width:3;stroke-miterlimit:10;}
	.st15{fill:#0F72B9;}
	.st16{fill:#3AB8BD;}
	.st17{fill:#74B73A;}
	.st18{fill:#97A3AA;}
	.st19{fill:#F8B333;}
	.st20{fill:#E73E33;}
	.st21{fill:#DC4438;}
	.st22{fill:#020203;}
	.st23{display:none;}
	.st24{display:inline;opacity:0.3;fill:#3AAA35;}
	.st25{display:inline;opacity:0.3;fill:#E71D73;}
	.st26{display:inline;opacity:0.1;fill:#009FE3;}
</style>
<g id="Fundo">
</g>
<g id="Site">
	<g>
		<path class="st18" d="M61.63,59.4H47.78c9.56-5.57,15.93-15.77,15.93-27.55C63.7,14.17,49.53,0,31.85,0S0,14.17,0,31.85
			S14.17,63.7,31.85,63.7c0.64,0,29.78,0,29.78,0c1.11,0,2.07-0.8,2.07-2.07C63.7,60.52,62.59,59.4,61.63,59.4z M4.3,31.85
			C4.3,16.56,16.56,4.3,31.85,4.3S59.4,16.56,59.4,31.85S47.14,59.4,31.85,59.4S4.3,47.14,4.3,31.85z"/>
	</g>
	<g>
		<circle class="st18" cx="31.85" cy="31.85" r="2.07"/>
	</g>
	<g>
		<path class="st18" d="M31.85,25.48c-4.62,0-8.44-3.82-8.44-8.44s3.82-8.44,8.44-8.44s8.44,3.82,8.44,8.44S36.47,25.48,31.85,25.48
			z M31.85,12.74c-2.39,0-4.3,1.91-4.3,4.3s1.91,4.3,4.3,4.3s4.3-1.91,4.3-4.3S34.24,12.74,31.85,12.74z"/>
	</g>
	<g>
		<path class="st18" d="M31.85,55.26c-4.62,0-8.44-3.82-8.44-8.44s3.82-8.44,8.44-8.44s8.44,3.82,8.44,8.44S36.47,55.26,31.85,55.26
			z M31.85,42.52c-2.39,0-4.3,1.91-4.3,4.3c0,2.39,1.91,4.14,4.3,4.14s4.3-1.91,4.3-4.3C36.15,44.27,34.24,42.52,31.85,42.52z"/>
	</g>
	<g>
		<path class="st18" d="M46.66,40.29c-4.62,0-8.44-3.82-8.44-8.44s3.82-8.44,8.44-8.44s8.44,3.82,8.44,8.44S51.44,40.29,46.66,40.29
			z M46.66,27.55c-2.39,0-4.3,1.91-4.3,4.3s1.91,4.3,4.3,4.3c2.39,0,4.3-1.91,4.3-4.3S49.05,27.55,46.66,27.55z"/>
	</g>
	<g>
		<path class="st18" d="M17.04,40.29c-4.62,0-8.44-3.82-8.44-8.44s3.82-8.44,8.44-8.44s8.44,3.82,8.44,8.44S21.66,40.29,17.04,40.29
			z M17.04,27.55c-2.39,0-4.3,1.91-4.3,4.3s1.91,4.3,4.3,4.3s4.3-1.91,4.3-4.3S19.27,27.55,17.04,27.55z"/>
	</g>
</g>
<g id="_x35_col" class="st23">
	<rect x="-72.46" y="-968.39" class="st24" width="255" height="3454.69"/>
</g>
<g id="_x34_col" class="st23">
	<rect x="-204.96" y="-968.39" class="st25" width="316.25" height="2357.43"/>
</g>
<g id="_x38__col" class="st23">
	<rect x="-31.84" y="-968.39" class="st26" width="143.12" height="3794.82"/>
</g>
</svg>
