<?xml version="1.0" encoding="utf-8"?>
<!-- Generator: Adobe Illustrator 24.0.1, SVG Export Plug-In . SVG Version: 6.00 Build 0)  -->
<svg version="1.1" xmlns="http://www.w3.org/2000/svg" xmlns:xlink="http://www.w3.org/1999/xlink" x="0px" y="0px"
	 viewBox="0 0 62.57 62.57" style="enable-background:new 0 0 62.57 62.57;" xml:space="preserve">
<style type="text/css">
	.st0{fill:#FFFFFF;}
	.st1{fill:#EB5766;}
	.st2{fill:#1C1E1D;}
	.st3{fill:none;}
	.st4{fill-rule:evenodd;clip-rule:evenodd;fill:#FFFFFF;}
	.st5{fill-rule:evenodd;clip-rule:evenodd;fill:#9D9D9C;}
	.st6{fill:#9D9D9C;}
	.st7{fill:#F7F8FA;}
	.st8{fill:#EF7D34;}
	.st9{fill:#31BEEF;}
	.st10{fill:#DC4419;}
	.st11{opacity:0.6;}
	.st12{fill:#455A64;}
	.st13{fill:#263239;}
	.st14{fill:none;stroke:#DC4419;stroke-width:3;stroke-miterlimit:10;}
	.st15{fill:#0F72B9;}
	.st16{fill:#3AB8BD;}
	.st17{fill:#74B73A;}
	.st18{fill:#97A3AA;}
	.st19{fill:#F8B333;}
	.st20{fill:#E73E33;}
	.st21{fill:#DC4438;}
	.st22{fill:#020203;}
	.st23{display:none;}
	.st24{display:inline;opacity:0.3;fill:#3AAA35;}
	.st25{display:inline;opacity:0.3;fill:#E71D73;}
	.st26{display:inline;opacity:0.1;fill:#009FE3;}
</style>
<g id="Fundo">
</g>
<g id="Site">
	<g transform="translate(0,-952.36218)">
		<path class="st19" d="M2.09,952.36c-1.15,0-2.09,0.93-2.09,2.09v58.4c0,1.15,0.93,2.09,2.09,2.09h58.4c1.15,0,2.09-0.93,2.09-2.09
			c0-1.15-0.93-2.09-2.09-2.09H4.17v-56.31C4.17,953.3,3.24,952.36,2.09,952.36z M43.8,968.35c-1.26,0-2.24,1.17-2.19,2.19
			c0.06,1.09,1.1,2.03,2.19,1.98h5.89L31.2,989.9l-6.65-5.54c-0.42-0.5-1.09-0.78-1.74-0.74c-0.46,0.03-0.92,0.23-1.26,0.54
			l-13.9,12.51c-0.85,0.72-0.96,2.17-0.22,3c0.74,0.83,2.19,0.88,3,0.11l12.58-11.32l6.69,5.58c0.74,0.85,2.2,0.93,3.02,0.15
			l20.12-18.9v6.26c-0.02,1.1,0.98,2.11,2.09,2.11c1.1,0,2.1-1.01,2.09-2.11v-11.12c0-1.09-0.99-2.09-2.09-2.09H43.8z"/>
	</g>
</g>
<g id="_x35_col" class="st23">
	<rect x="36.86" y="-969.45" class="st24" width="255" height="3454.69"/>
	<rect x="-238.14" y="-969.45" class="st24" width="255" height="3454.69"/>
</g>
<g id="_x34_col" class="st23">
	<rect x="-24.39" y="-969.45" class="st25" width="316.25" height="2357.43"/>
</g>
<g id="_x38__col" class="st23">
	<rect x="-24.39" y="-969.45" class="st26" width="143.12" height="3794.82"/>
</g>
</svg>
