<?xml version="1.0" encoding="utf-8"?>
<!-- Generator: Adobe Illustrator 24.0.1, SVG Export Plug-In . SVG Version: 6.00 Build 0)  -->
<svg version="1.1" id="Site" xmlns="http://www.w3.org/2000/svg" xmlns:xlink="http://www.w3.org/1999/xlink" x="0px" y="0px"
	 viewBox="0 0 240 85" style="enable-background:new 0 0 240 85;" xml:space="preserve">
<style type="text/css">
	.st0{fill:#DC4419;}
	.st1{fill:#878787;}
</style>
<g>
	<g>
		<path class="st0" d="M63.24,60.21c-1.82-0.4-3.7,0.23-4.9,1.64c-5.77,6.79-14.02,10.68-22.64,10.68s-16.87-3.89-22.64-10.68
			c-1.2-1.41-3.07-2.04-4.9-1.64c-1.74,0.38-3.13,1.62-3.69,3.31c-0.57,1.7-0.22,3.53,0.95,4.9c7.67,8.99,18.71,14.15,30.28,14.15
			s22.61-5.16,30.28-14.15c1.17-1.37,1.52-3.2,0.95-4.9C66.37,61.82,64.98,60.59,63.24,60.21z"/>
		<path class="st0" d="M68.94,27.87c-0.01-1.74-0.84-3.36-2.25-4.38L38.92,3.46c-1.89-1.36-4.44-1.37-6.34-0.01L4.98,23.26
			c-1.43,1.02-2.27,2.67-2.26,4.43l0.05,12.83c0.01,2.99,2.44,5.4,5.42,5.4c0.01,0,0.02,0,0.02,0c3-0.01,5.41-2.45,5.4-5.45
			l-0.04-10.04l22.16-15.9L58.1,30.67l0.04,10.07c0.01,2.99,2.44,5.4,5.42,5.4c0.01,0,0.02,0,0.02,0c3-0.01,5.41-2.45,5.4-5.45
			L68.94,27.87z"/>
	</g>
	<path class="st0" d="M111.24,53.59c2.79-4.26,9.94-3.92,12.13,0.15c0.51-0.47,1-0.98,1.54-1.42c2.55-2.03,6.2-2.39,8.88-0.86
		c2.04,1.17,3.2,3.02,3.72,5.24c0.29,1.22,0.46,2.49,0.48,3.74c0.06,3.71,0.02,7.42,0.02,11.12c0,0.82-0.2,1.02-1.02,1.02
		c-1.47,0-2.95,0-4.42,0c-0.83,0-1-0.17-1-1.02c0-3.64,0-7.29-0.01-10.93c0-0.49-0.04-0.99-0.15-1.47
		c-0.38-1.66-1.45-2.54-3.03-2.53c-1.55,0.01-2.81,1.03-3.14,2.59c-0.1,0.46-0.12,0.95-0.12,1.43c0,3.61,0.01,7.22,0.01,10.84
		c0,0.93-0.17,1.1-1.08,1.1c-1.49,0-2.98,0-4.47,0c-0.68,0-0.89-0.21-0.89-0.89c0-3.71,0.01-7.42-0.01-11.12
		c0-0.58-0.09-1.19-0.26-1.74c-0.49-1.52-1.76-2.32-3.36-2.2c-1.4,0.11-2.5,1.13-2.78,2.63c-0.07,0.39-0.11,0.79-0.11,1.19
		c-0.01,3.71,0,7.42-0.01,11.12c0,0.81-0.2,1.01-1.03,1.01c-1.49,0-2.98,0-4.47,0c-0.92,0-1.1-0.17-1.1-1.08c0-1.77,0-3.55,0-5.32
		c0-4.73,0-9.46,0-14.19c0-0.21,0.01-0.42,0.03-0.62c0.05-0.37,0.27-0.59,0.64-0.59c1.14-0.01,2.27-0.04,3.41,0.01
		c0.58,0.02,0.95,0.43,1.1,0.99C110.93,52.35,111.07,52.94,111.24,53.59z"/>
	<path class="st0" d="M185.02,53.7c0.27-0.74,0.52-1.4,0.74-2.06c0.15-0.42,0.41-0.59,0.86-0.58c1.09,0.03,2.18,0.01,3.27,0.01
		c0.82,0,0.98,0.16,0.99,0.98c0,5.08,0,10.16,0,15.24c0,1.55,0,3.1,0,4.65c0,0.75-0.18,0.92-0.94,0.92c-1.18,0-2.37-0.01-3.55,0.01
		c-0.48,0.01-0.8-0.18-0.99-0.6c-0.24-0.52-0.47-1.04-0.72-1.59c-1.01,1.02-2.14,1.79-3.49,2.18c-2.81,0.81-5.48,0.32-7.94-1.12
		c-3.62-2.13-5.4-5.37-5.46-9.55c-0.08-5.13,3.13-9.57,7.98-10.93c2.8-0.78,5.52-0.63,7.95,1.21c0.23,0.17,0.45,0.36,0.66,0.56
		C184.57,53.22,184.76,53.43,185.02,53.7z M179.04,67.4c2.89,0.01,5.27-2.39,5.28-5.34c0.01-2.97-2.32-5.41-5.2-5.42
		c-2.9-0.01-5.16,2.33-5.17,5.35C173.93,65.06,176.13,67.38,179.04,67.4z"/>
	<path class="st0" d="M231.08,70.68c-1.01,1.01-2.14,1.79-3.49,2.18c-2.81,0.81-5.48,0.33-7.94-1.12
		c-3.83-2.26-5.56-5.72-5.46-10.12c0.11-4.82,3.33-9.06,7.97-10.35c2.8-0.78,5.52-0.63,7.95,1.2c0.23,0.17,0.45,0.36,0.66,0.56
		c0.21,0.2,0.4,0.41,0.66,0.67c0.23-0.65,0.44-1.24,0.66-1.82c0.28-0.77,0.33-0.8,1.14-0.8c1.02,0,2.05,0,3.07,0
		c0.82,0,0.99,0.16,0.99,0.97c0,4.73,0,9.46,0,14.19c0,1.89,0,3.77,0,5.66c0,0.81-0.17,0.97-0.99,0.97c-1.17,0-2.34-0.02-3.51,0.01
		c-0.48,0.01-0.8-0.18-0.99-0.6C231.56,71.76,231.33,71.24,231.08,70.68z M225.54,56.63c-2.9-0.02-5.17,2.32-5.19,5.34
		c-0.02,3.07,2.17,5.41,5.08,5.43c2.9,0.02,5.28-2.38,5.29-5.33C230.74,59.09,228.41,56.65,225.54,56.63z"/>
	<path class="st0" d="M108.98,33.04c0.45,1.97,2.17,3.51,4.15,3.71c2.07,0.21,3.98-0.16,5.57-1.65c0.67-0.63,0.96-0.57,1.5,0.18
		c0.66,0.91,1.32,1.81,1.97,2.72c0.37,0.52,0.33,0.78-0.14,1.2c-5.16,4.71-14.18,4.11-18.1-3.09c-3.28-6.01-0.18-14.88,7.96-16.13
		c5.94-0.91,11.23,3.19,11.88,9.18c0.08,0.73,0.1,1.47,0.08,2.2c-0.02,0.98-0.47,1.47-1.43,1.6c-0.41,0.06-0.83,0.07-1.24,0.07
		c-3.86,0-7.72,0-11.58,0C109.4,33.04,109.21,33.04,108.98,33.04z M117.87,28.13c-0.51-1.52-2.21-3.25-4.61-3.1
		c-1.64,0.1-3.61,1.64-3.87,3.1C112.21,28.13,115.03,28.13,117.87,28.13z"/>
	<path class="st0" d="M86.96,63.78c0.31,1.86,2.16,3.52,4.15,3.71c2.07,0.2,3.98-0.18,5.56-1.66c0.65-0.61,0.94-0.54,1.47,0.17
		c0.67,0.92,1.34,1.83,2,2.76c0.36,0.5,0.31,0.76-0.13,1.16c-4.74,4.36-12.97,4.25-17.36-1.82c-4.17-5.77-1.76-14.89,5.77-17.08
		c6.18-1.8,12.4,2.18,13.28,8.52c0.12,0.85,0.12,1.72,0.11,2.58c-0.01,0.96-0.47,1.44-1.41,1.58c-0.41,0.06-0.83,0.07-1.24,0.07
		c-3.87,0.01-7.75,0-11.62,0C87.34,63.78,87.15,63.78,86.96,63.78z M87.33,58.85c2.83,0,5.66,0,8.5,0c-0.67-1.92-2.55-3.16-4.6-3.09
		C89.59,55.83,87.73,57.3,87.33,58.85z"/>
	<path class="st0" d="M149.04,19.84c6.27,0.02,11.34,5.04,11.31,11.2c-0.03,6.17-5.15,11.2-11.36,11.17
		c-6.23-0.03-11.28-5.04-11.28-11.2C137.71,24.84,142.79,19.82,149.04,19.84z M148.59,25.61c-1.27,0.03-2.63,0.73-3.59,2.13
		c-1.04,1.52-1.23,3.2-0.75,4.95c0.6,2.21,2.42,3.66,4.63,3.74c2.14,0.08,4-1.24,4.78-3.4c0.35-0.98,0.42-1.98,0.28-3.02
		C153.59,27.49,151.51,25.61,148.59,25.61z"/>
	<path class="st0" d="M203.04,50.76c2.24-0.04,4.3,0.62,6.03,2.2c0.38,0.35,0.77,0.68,1.13,1.03c0.32,0.31,0.34,0.67,0.01,0.97
		c-0.98,0.87-1.97,1.73-2.97,2.58c-0.27,0.23-0.56,0.18-0.84-0.03c-0.33-0.25-0.65-0.52-0.99-0.76c-0.99-0.7-2.09-0.83-3.25-0.57
		c-0.09,0.02-0.19,0.05-0.27,0.1c-0.34,0.17-0.65,0.35-0.68,0.79c-0.03,0.46,0.19,0.78,0.59,0.95c0.47,0.2,0.96,0.37,1.44,0.53
		c1.27,0.43,2.57,0.79,3.81,1.3c1.43,0.58,2.6,1.5,3.29,2.94c1.62,3.42,0.98,7.73-3.39,9.62c-3.66,1.58-7.26,1.24-10.59-0.99
		c-0.74-0.5-1.32-1.24-1.93-1.92c-0.42-0.47-0.38-0.92,0.06-1.37c0.79-0.8,1.59-1.57,2.4-2.35c0.36-0.34,0.63-0.31,1.11,0.03
		c0.69,0.49,1.37,1.01,2.1,1.42c1.03,0.58,2.15,0.7,3.31,0.44c0.92-0.21,1.43-1.04,1.06-1.83c-0.15-0.33-0.5-0.64-0.83-0.79
		c-0.73-0.33-1.51-0.53-2.26-0.8c-0.8-0.28-1.61-0.53-2.39-0.88c-2.84-1.26-4.19-3.47-4.14-6.56c0.03-2.04,0.93-3.58,2.63-4.67
		C199.15,51.07,201.02,50.76,203.04,50.76z"/>
	<path class="st0" d="M91.72,32.67c0.62-1.83,1.19-3.52,1.76-5.21c0.73-2.17,1.46-4.35,2.2-6.52c0.24-0.72,0.48-0.89,1.22-0.89
		c1.58,0,3.17,0,4.75,0c0.94,0,1.11,0.25,0.73,1.13c-0.96,2.28-1.93,4.55-2.9,6.83c-1.81,4.26-3.61,8.52-5.42,12.78
		c-0.4,0.95-0.57,1.06-1.58,1.06c-0.66,0-1.31-0.03-1.97,0.01c-0.7,0.04-1.1-0.28-1.35-0.9c-1.13-2.71-2.28-5.41-3.42-8.11
		c-1.57-3.72-3.15-7.43-4.71-11.15c-0.12-0.28-0.21-0.57-0.24-0.87c-0.05-0.47,0.19-0.75,0.66-0.76c1.73-0.02,3.46-0.03,5.19,0
		c0.59,0.01,0.8,0.51,0.97,0.99c0.64,1.82,1.28,3.64,1.93,5.46C90.26,28.53,90.97,30.54,91.72,32.67z"/>
	<path class="st0" d="M158.97,50.79c2.59-0.02,4.88,0.81,6.91,2.39c0.56,0.44,0.59,0.58,0.2,1.18c-0.7,1.09-1.41,2.17-2.12,3.26
		c-0.36,0.56-0.58,0.61-1.14,0.24c-1-0.67-2.07-1.13-3.28-1.25c-2.74-0.25-5.16,1.69-5.49,4.43c-0.13,1.03-0.08,2.04,0.26,3.02
		c0.97,2.79,3.98,4.1,6.67,2.87c0.59-0.27,1.15-0.63,1.71-0.97c0.56-0.34,0.83-0.3,1.2,0.24c0.72,1.05,1.45,2.11,2.17,3.17
		c0.47,0.69,0.43,0.94-0.23,1.44c-7,5.36-16.44,1.32-17.91-6.6c-1.14-6.14,2.74-11.95,8.81-13.16
		C157.47,50.9,158.23,50.87,158.97,50.79z"/>
	<path class="st0" d="M134.25,31.57c0,3.24-0.05,6.49,0.01,9.73c0.08,4.42-3.03,7.06-6.84,7.53c-0.62,0.08-1.24,0.1-1.87,0.1
		c-0.77-0.01-1.05-0.33-1.05-1.09c0-1.04-0.01-2.08,0-3.12c0.01-0.76,0.21-0.95,0.98-0.97c1.42-0.04,1.97-0.53,2.13-1.92
		c0.04-0.4,0.07-0.8,0.07-1.19c0-6.46,0-12.91,0-19.37c0-1.12,0.1-1.22,1.24-1.22c1.34,0,2.69,0,4.03,0c1.22,0,1.29,0.07,1.29,1.31
		C134.25,24.76,134.25,28.17,134.25,31.57z"/>
	<path class="st0" d="M130.95,17.39c-0.74,0-1.47,0.02-2.21-0.01c-0.83-0.04-1.14-0.38-1.15-1.21c-0.01-1.09-0.01-2.17,0-3.26
		c0.01-0.96,0.42-1.39,1.36-1.4c1.33-0.02,2.66-0.02,3.98,0c0.81,0.01,1.24,0.39,1.26,1.19c0.04,1.23,0.03,2.46,0,3.69
		c-0.02,0.65-0.35,0.96-1,0.99C132.45,17.41,131.7,17.39,130.95,17.39C130.95,17.39,130.95,17.39,130.95,17.39z"/>
</g>
</svg>
