<svg enable-background="new 0 0 60 60" viewBox="0 0 60 60" xmlns="http://www.w3.org/2000/svg"><g fill="#878787"><path d="m59.77 11.21c-1.91.86-4 1.39-6.06 1.73.98-.16 2.42-1.93 2.99-2.65.88-1.09 1.61-2.33 2.02-3.68.05-.1.09-.24-.01-.32-.13-.05-.22-.03-.32.03-2.3 1.23-4.67 2.12-7.2 2.75-.21.05-.36 0-.5-.13-.21-.24-.41-.46-.63-.64-1.06-.9-2.2-1.61-3.49-2.14-1.69-.69-3.53-.98-5.35-.86-1.77.11-3.5.61-5.07 1.43s-2.98 1.96-4.09 3.34c-1.16 1.43-2.01 3.11-2.44 4.9-.42 1.72-.39 3.43-.13 5.17.04.29.01.33-.25.29-9.89-1.45-18.09-4.99-24.74-12.57-.29-.33-.45-.33-.68.02-2.91 4.36-1.5 11.38 2.14 14.82.48.46.98.92 1.52 1.34-.2.04-2.62-.22-4.77-1.34-.29-.18-.43-.08-.46.25-.03.47.01.91.08 1.42.56 4.42 3.62 8.52 7.82 10.11.5.21 1.05.39 1.59.48-.96.21-1.94.36-4.68.15-.34-.07-.47.1-.34.43 2.06 5.61 6.51 7.29 9.84 8.24.45.08.89.08 1.34.18-.03.04-.05.04-.08.08-1.1 1.68-4.93 2.94-6.72 3.56-3.24 1.13-6.78 1.64-10.2 1.31-.55-.08-.66-.07-.81 0-.15.09-.02.22.16.37.7.46 1.4.87 2.13 1.26 2.18 1.15 4.45 2.07 6.82 2.73 12.26 3.39 26.06.9 35.27-8.25 7.23-7.18 9.76-17.08 9.76-27 0-.39.46-.6.73-.81 1.88-1.41 3.37-3.1 4.78-4.99.32-.42.3-.8.3-.96 0-.03 0-.05 0-.05-.04-.15-.02-.11-.27 0z"/><g clip-rule="evenodd" fill-rule="evenodd"><path d="m17.82 54.5c-.08 0-.99 0 0 0z"/><path d="m19.84 54.55c0-.1 1.06 0 0 0 0-.05.13 0 0 0z"/><path d="m41.06 5.36c-.07.05-.16.05-.25 0z"/></g></g></svg>