<?xml version="1.0" encoding="UTF-8" standalone="no"?>
<!-- Generator: Adobe Illustrator 24.0.1, SVG Export Plug-In . SVG Version: 6.00 Build 0)  -->

<svg
   xmlns:dc="http://purl.org/dc/elements/1.1/"
   xmlns:cc="http://creativecommons.org/ns#"
   xmlns:rdf="http://www.w3.org/1999/02/22-rdf-syntax-ns#"
   xmlns:svg="http://www.w3.org/2000/svg"
   xmlns="http://www.w3.org/2000/svg"
   xmlns:sodipodi="http://sodipodi.sourceforge.net/DTD/sodipodi-0.dtd"
   xmlns:inkscape="http://www.inkscape.org/namespaces/inkscape"
   version="1.1"
   x="0px"
   y="0px"
   viewBox="0 0 1094.79 185.05"
   style="enable-background:new 0 0 1094.79 185.05;"
   xml:space="preserve"
   id="svg103"
   sodipodi:docname="veja_web_pag_landingpage_Icons-16.svg"
   inkscape:version="0.92.4 (f8dce91, 2019-08-02)"><metadata
   id="metadata109"><rdf:RDF><cc:Work
       rdf:about=""><dc:format>image/svg+xml</dc:format><dc:type
         rdf:resource="http://purl.org/dc/dcmitype/StillImage" /></cc:Work></rdf:RDF></metadata><defs
   id="defs107" /><sodipodi:namedview
   pagecolor="#ffffff"
   bordercolor="#666666"
   borderopacity="1"
   objecttolerance="10"
   gridtolerance="10"
   guidetolerance="10"
   inkscape:pageopacity="0"
   inkscape:pageshadow="2"
   inkscape:window-width="1314"
   inkscape:window-height="704"
   id="namedview105"
   showgrid="false"
   inkscape:zoom="0.93007219"
   inkscape:cx="487.8997"
   inkscape:cy="53.259109"
   inkscape:window-x="52"
   inkscape:window-y="27"
   inkscape:window-maximized="1"
   inkscape:current-layer="svg103" />
<style
   type="text/css"
   id="style2">
	.st0{fill:#FFFFFF;}
	.st1{fill:#EB5766;}
	.st2{fill:#1C1E1D;}
	.st3{fill:none;}
	.st4{fill-rule:evenodd;clip-rule:evenodd;fill:#FFFFFF;}
	.st5{fill-rule:evenodd;clip-rule:evenodd;fill:#9D9D9C;}
	.st6{fill:#9D9D9C;}
	.st7{fill:#F7F8FA;}
	.st8{fill:#EF7D34;}
	.st9{fill:#31BEEF;}
	.st10{fill:#DC4419;}
	.st11{opacity:0.6;}
	.st12{fill:#455A64;}
	.st13{fill:#263239;}
	.st14{fill:none;stroke:#DC4419;stroke-width:3;stroke-miterlimit:10;}
	.st15{fill:#0F72B9;}
	.st16{fill:#3AB8BD;}
	.st17{fill:#74B73A;}
	.st18{fill:#97A3AA;}
	.st19{fill:#F8B333;}
	.st20{fill:#E73E33;}
	.st21{fill:#DC4438;}
	.st22{fill:#020203;}
	.st23{display:none;}
	.st24{display:inline;opacity:0.3;fill:#3AAA35;}
	.st25{display:inline;opacity:0.3;fill:#E71D73;}
	.st26{display:inline;opacity:0.1;fill:#009FE3;}
</style>
<g
   id="Fundo">
</g>
<g
   id="Site">
	<g
   id="g63">
		<path
   class="st10"
   d="M331.11,66.76h-5.04v-5.04h-3.36v5.04h-26.89v-5.04h-3.36v5.04h-5.04c-4.63,0-8.41,3.77-8.41,8.41v38.66    c0,4.63,3.77,8.41,8.41,8.41h43.7c4.63,0,8.41-3.77,8.41-8.41V83.57v-3.36v-5.04C339.51,70.53,335.74,66.76,331.11,66.76z     M336.15,113.82c0,2.78-2.26,5.04-5.04,5.04h-43.7c-2.78,0-5.04-2.26-5.04-5.04V83.57h53.78V113.82z M336.15,80.21h-53.78v-5.04    c0-2.78,2.26-5.04,5.04-5.04h5.04v3.36h3.36v-3.36h26.89v3.36h3.36v-3.36h5.04c2.78,0,5.04,2.26,5.04,5.04V80.21z"
   id="path5" />
		<g
   id="g17">
			<path
   class="st10"
   d="M810.43,69.26c-0.39-0.39-0.91-0.61-1.46-0.61s-1.06,0.22-1.46,0.61c-0.82,0.82-0.82,2.1,0,2.91     c5.08,5.08,7.88,11.85,7.88,19.05s-2.8,13.97-7.88,19.05c-0.82,0.82-0.82,2.1,0,2.91c0.83,0.83,2.17,0.76,2.81,0.04     c5.9-5.9,9.14-13.71,9.15-22.02C819.48,82.89,816.27,75.1,810.43,69.26z"
   id="path7" />
			<path
   class="st10"
   d="M800.85,78.78c-0.39-0.39-0.91-0.61-1.46-0.61s-1.06,0.22-1.46,0.61c-0.82,0.82-0.82,2.09,0,2.91     c2.55,2.55,3.95,5.95,3.94,9.58c-0.01,3.58-1.41,6.93-3.94,9.43c-0.81,0.81-0.81,2.09,0,2.91c0.83,0.83,2.17,0.76,2.81,0.04     c3.38-3.32,5.23-7.7,5.25-12.37C806.02,86.56,804.19,82.12,800.85,78.78z"
   id="path9" />
			<path
   class="st10"
   d="M761.59,91.21c0.01-7.2,2.81-13.96,7.89-19.04c0.82-0.82,0.82-2.09,0-2.91c-0.41-0.41-0.93-0.61-1.46-0.61     c-0.52,0-1.05,0.2-1.46,0.61c-12.09,12.09-12.09,31.77,0,43.86c0.83,0.83,2.17,0.76,2.81,0.04c0.85-0.85,0.85-2.13,0.03-2.95     C764.36,105.15,761.58,98.41,761.59,91.21z"
   id="path11" />
			<path
   class="st10"
   d="M779,78.78c-0.39-0.39-0.91-0.61-1.46-0.61s-1.06,0.22-1.46,0.61c-6.84,6.84-6.84,17.98,0,24.83     c0.83,0.83,2.17,0.76,2.81,0.04c0.43-0.43,0.64-0.95,0.64-1.49c0-0.55-0.22-1.06-0.61-1.46c-5.19-5.26-5.15-13.78,0.07-19     C779.81,80.87,779.81,79.59,779,78.78z"
   id="path13" />
			<path
   class="st10"
   d="M788.5,87.13c-2.24,0-4.06,1.82-4.06,4.06c0,2.24,1.82,4.06,4.06,4.06c2.24,0,4.06-1.82,4.06-4.06     C792.56,88.95,790.74,87.13,788.5,87.13z"
   id="path15" />
		</g>
		<path
   class="st10"
   d="M581.72,108.92c-0.11-0.11-11.3-10.92-11.3-21.04l0-1.07c0.01-6.88,0.03-14.68-4.74-19.46    c-2.93-2.93-7.2-4.36-13.06-4.36c-6.21,0-10.7,1.47-13.72,4.5c-4.72,4.74-4.7,12.35-4.68,19.06l0,1.33c0,10-11.55,20.56-12.04,21    c-0.33,0.3-0.53,0.7-0.55,1.15s0.12,0.87,0.42,1.2c0.31,0.35,0.77,0.56,1.24,0.56h18.15c0.78,5.67,5.65,9.84,11.28,9.84    c0.43,0,0.87-0.02,1.31-0.07c5.21-0.6,9.28-4.6,9.99-9.77h16.57c0.44,0,0.86-0.17,1.18-0.49s0.49-0.73,0.49-1.18    C582.24,109.67,582.05,109.23,581.72,108.92z M560.64,111.79c-0.75,3.78-4.12,6.57-8.01,6.51c-3.86-0.04-7.1-2.76-7.82-6.51    H560.64z M537.55,86.53c-0.02-6.36-0.04-12.94,3.71-16.7c2.36-2.37,6.08-3.52,11.36-3.52c4.93,0,8.44,1.11,10.71,3.38    c3.79,3.8,3.78,10.56,3.77,17.11l0,1.08c0,8.2,5.85,16.24,9.63,20.58h-49.41c4.02-4.34,10.24-12.38,10.24-20.58L537.55,86.53z"
   id="path19" />
		<g
   id="g27">
			<path
   class="st10"
   d="M59.83,61.06c-10.61,0-18.92,8.31-18.92,18.92c0,4.98,1.97,9.81,5.4,13.24l0.27,0.27v8.25h26.5v-8.25     l0.27-0.27c3.43-3.43,5.4-8.26,5.4-13.24C78.75,69.37,70.44,61.06,59.83,61.06z M69.81,91.15l-0.55,0.55v6.21H50.4V91.7     l-0.58-0.58c-3.16-2.58-5.09-6.77-5.09-11.14c0-8.47,6.63-15.1,15.1-15.1s15.1,6.63,15.1,15.1     C74.93,84.34,73.01,88.51,69.81,91.15z"
   id="path21" />
			<polygon
   class="st10"
   points="57.92,127.25 61.74,127.25 61.74,118.74 73.08,118.74 73.08,106.42 46.58,106.42 46.58,118.74      57.92,118.74    "
   id="polygon23" />
			<path
   class="st10"
   d="M99.52,61.06H88.18c-1.2,0-1.91,0.71-1.91,1.91v53.86c0,0.35,0.24,0.83,0.47,1.29l5.61,8.41     c0.32,0.49,0.81,0.72,1.5,0.72c0.45,0,1.03-0.31,1.55-0.8l5.62-8.42c0.17-0.36,0.41-0.84,0.41-1.19V62.97     C101.43,61.77,100.71,61.06,99.52,61.06z M97.61,116.26l-3.76,5.64l-3.76-5.64V64.88h7.52V116.26z"
   id="path25" />
		</g>
		<circle
   class="st14"
   cx="70.73"
   cy="92.39"
   r="69.23"
   id="circle29" />
		<circle
   class="st14"
   cx="308.87"
   cy="92.39"
   r="69.23"
   id="circle31" />
		<circle
   class="st14"
   cx="552.43"
   cy="92.39"
   r="69.23"
   id="circle33" />
		<circle
   class="st14"
   cx="788.24"
   cy="92.39"
   r="69.23"
   id="circle35" />
		<circle
   class="st14"
   cx="1024.05"
   cy="92.39"
   r="69.23"
   id="circle37" />
		<line
   class="st14"
   x1="69.94"
   y1="161.62"
   x2="69.94"
   y2="185.05"
   id="line39" />
		<line
   class="st14"
   x1="552.99"
   y1="161.62"
   x2="552.99"
   y2="185.05"
   id="line41" />
		<line
   class="st14"
   x1="1023.65"
   y1="161.62"
   x2="1023.65"
   y2="185.05"
   id="line43" />
		<path
   style="fill:none;stroke:#dc4419;stroke-width:3;stroke-miterlimit:10"
   d="M 308.87,-0.3099999 V 23.16"
   id="line45"
   inkscape:connector-curvature="0"
   sodipodi:nodetypes="cc" />
		<line
   class="st14"
   x1="789.09"
   y1="0"
   x2="789.09"
   y2="21.47"
   id="line47" />
		<line
   class="st14"
   x1="141.92"
   y1="93.44"
   x2="240.25"
   y2="93.44"
   id="line49" />
		<path
   style="fill:none;stroke:#dc4419;stroke-width:3;stroke-miterlimit:10"
   d="m 378.57999,93.440002 h 104.66"
   id="line51"
   inkscape:connector-curvature="0"
   sodipodi:nodetypes="cc" />
		<line
   class="st14"
   x1="622.07"
   y1="93.44"
   x2="717.81"
   y2="93.44"
   id="line53" />
		<line
   class="st14"
   x1="856.31"
   y1="93.44"
   x2="954.12"
   y2="93.44"
   id="line55" />
		<g
   id="g61">
			<path
   class="st10"
   d="M1029.01,98.73c0.27,0.18,0.59,0.27,0.9,0.27s0.63-0.09,0.9-0.27c0.56-0.37,13.61-9.14,18.42-17.96     c1.19-1.84,1.82-3.97,1.82-6.16c0-6.28-5.11-11.38-11.38-11.38c-4.62,0-8.03,3.83-9.76,5.83c-1.72-2-5.14-5.83-9.76-5.83     c-6.28,0-11.38,5.11-11.38,11.38c0,2.19,0.63,4.32,1.82,6.16C1015.4,89.58,1028.46,98.36,1029.01,98.73z M1020.16,66.48     c3.25,0,5.97,3.16,7.43,4.86c0.91,1.06,1.41,1.64,2.32,1.64c0.91,0,1.42-0.58,2.32-1.64c1.46-1.7,4.18-4.86,7.43-4.86     c4.48,0,8.13,3.65,8.13,8.13c0,1.58-0.46,3.11-1.32,4.44c-0.02,0.04-0.05,0.08-0.07,0.12c-3.71,6.86-13.48,14.1-16.5,16.23     c-3.02-2.13-12.78-9.37-16.5-16.23c-0.02-0.04-0.04-0.08-0.07-0.12c-0.87-1.32-1.32-2.86-1.32-4.44     C1012.03,70.13,1015.67,66.48,1020.16,66.48z"
   id="path57" />
			<path
   class="st10"
   d="M1049.47,98.34c-2.97-1.74-5.47,0.84-6.41,1.81c-1.98,2.05-4.37,4.08-5.57,5.08     c-0.51-0.23-1.08-0.36-1.67-0.37c-3.68-0.2-9.48-0.86-10.93-1.72c-1.56-0.93-2.81-1.83-3.91-2.63c-3.16-2.29-5.66-4.1-11.89-4.1     c-1.8,0-3.39,0.5-4.91,0.98c-1.57,0.5-3.05,0.97-4.84,0.97c-1.97,0-3.58,1.6-3.58,3.58v9.11c0,1.97,1.6,3.58,3.58,3.58     c3.4,0,8.72,0.17,9.89,0.57c2.11,0.7,7.07,3.64,8.8,4.72c0.02,0.01,0.04,0.03,0.07,0.04c0.63,0.35,1.34,0.53,2.05,0.53h16.54     c1.75,0,3.7-1.62,4.37-2.74c2.17-3.6,9.94-13.39,10.02-13.49c0.07-0.09,0.13-0.18,0.18-0.28     C1052.28,101.94,1051.5,99.53,1049.47,98.34z M1036.69,117.22h-16.54c-0.16,0-0.31-0.04-0.45-0.11     c-0.61-0.38-6.63-4.07-9.45-5.01c-2.1-0.7-9.47-0.73-10.92-0.73c-0.18,0-0.33-0.15-0.33-0.33v-9.11c0-0.18,0.15-0.33,0.33-0.33     c2.29,0,4.17-0.59,5.82-1.12c1.41-0.45,2.63-0.83,3.93-0.83c5.17,0,6.98,1.31,9.98,3.48c1.16,0.84,2.47,1.79,4.15,2.79     c0.85,0.5,2.25,0.9,3.82,1.21c3.38,0.66,7.54,0.91,8.64,0.97c0.03,0,0.06,0,0.09,0c0.54,0,0.98,0.44,0.98,0.98     c0,0.54-0.44,0.97-0.98,0.97c-0.03,0-0.06,0-0.09,0l-12.31,0.65c-0.98-0.04-3.29-1.67-4.83-2.76c-0.4-0.28-0.79-0.55-1.17-0.82     c-0.83-0.57-1.63-1.09-2.35-1.45c-0.8-0.4-1.78-0.08-2.18,0.73c-0.4,0.8-0.08,1.78,0.73,2.18c0.84,0.42,1.93,1.19,3.09,2.02     c2.44,1.73,4.74,3.36,6.74,3.36c0.03,0,0.06,0,0.09,0l12.32-0.65c2.31-0.03,4.18-1.91,4.18-4.23c0-0.52-0.09-1.02-0.27-1.49     c1.3-1.08,3.65-3.1,5.68-5.19c1.39-1.43,1.94-1.55,2.42-1.27c0.43,0.25,0.75,0.75,0.58,1.24c-1.08,1.36-7.99,10.11-10.13,13.67     C1038,116.52,1037.04,117.18,1036.69,117.22z"
   id="path59" />
		</g>
	</g>
</g>
<g
   id="_x35_col"
   class="st23">
	<rect
   x="972.44"
   y="-1434.01"
   class="st24"
   width="255"
   height="3454.69"
   id="rect66" />
	<rect
   x="697.43"
   y="-1434.01"
   class="st24"
   width="255"
   height="3454.69"
   id="rect68" />
	<rect
   x="422.43"
   y="-1434.01"
   class="st24"
   width="255"
   height="3454.69"
   id="rect70" />
	<rect
   x="147.43"
   y="-1434.01"
   class="st24"
   width="255"
   height="3454.69"
   id="rect72" />
	<rect
   x="-127.57"
   y="-1434.01"
   class="st24"
   width="255"
   height="3454.69"
   id="rect74" />
</g>
<g
   id="_x34_col"
   class="st23">
	<rect
   x="911.18"
   y="-1434.01"
   class="st25"
   width="316.25"
   height="2357.43"
   id="rect77" />
	<rect
   x="564.93"
   y="-1434.01"
   class="st25"
   width="316.25"
   height="2357.43"
   id="rect79" />
	<rect
   x="218.68"
   y="-1434.01"
   class="st25"
   width="316.25"
   height="2357.43"
   id="rect81" />
	<rect
   x="-127.57"
   y="-1434.01"
   class="st25"
   width="316.25"
   height="2357.43"
   id="rect83" />
</g>
<g
   id="_x38__col"
   class="st23">
	<rect
   x="1084.31"
   y="-1434.01"
   class="st26"
   width="143.12"
   height="3794.82"
   id="rect86" />
	<rect
   x="738.06"
   y="-1434.01"
   class="st26"
   width="143.12"
   height="3794.82"
   id="rect88" />
	<rect
   x="391.81"
   y="-1434.01"
   class="st26"
   width="143.12"
   height="3794.82"
   id="rect90" />
	<rect
   x="-127.57"
   y="-1434.01"
   class="st26"
   width="143.12"
   height="3794.82"
   id="rect92" />
	<rect
   x="911.18"
   y="-1434.01"
   class="st26"
   width="143.12"
   height="3794.82"
   id="rect94" />
	<rect
   x="564.93"
   y="-1434.01"
   class="st26"
   width="143.12"
   height="3794.82"
   id="rect96" />
	<rect
   x="218.68"
   y="-1434.01"
   class="st26"
   width="143.12"
   height="3794.82"
   id="rect98" />
	<rect
   x="45.56"
   y="-1434.01"
   class="st26"
   width="143.12"
   height="3794.82"
   id="rect100" />
</g>
</svg>