<svg enable-background="new 0 0 60 60" viewBox="0 0 60 60" xmlns="http://www.w3.org/2000/svg"><path d="m45.78 11.05c-1.95 0-3.53 1.58-3.53 3.53s1.58 3.53 3.53 3.53 3.53-1.58 3.53-3.53-1.58-3.53-3.53-3.53zm-15.68 4.52c-8.17 0-14.82 6.65-14.82 14.82s6.65 14.81 14.82 14.81 14.82-6.65 14.82-14.82-6.65-14.81-14.82-14.81zm0 24.31c-5.23 0-9.49-4.26-9.49-9.49s4.26-9.49 9.49-9.49 9.49 4.26 9.49 9.49-4.25 9.49-9.49 9.49zm29.9-21.81c0-9.98-8.09-18.07-18.07-18.07h-23.86c-9.98 0-18.07 8.09-18.07 18.07v23.86c0 9.98 8.09 18.07 18.07 18.07h23.85c9.99 0 18.08-8.09 18.08-18.07zm-5.66 23.86c0 6.86-5.56 12.41-12.41 12.41h-23.86c-6.86 0-12.41-5.56-12.41-12.41v-23.86c0-6.86 5.56-12.41 12.41-12.41h23.85c6.86 0 12.41 5.56 12.41 12.41v23.86z" fill="#878787"/></svg>