<svg enable-background="new 0 0 240 85" viewBox="0 0 240 85" xmlns="http://www.w3.org/2000/svg"><g fill="#dc4419"><path d="m63.24 60.21c-1.82-.4-3.7.23-4.9 1.64-5.77 6.79-14.02 10.68-22.64 10.68s-16.87-3.89-22.64-10.68c-1.2-1.41-3.07-2.04-4.9-1.64-1.74.38-3.13 1.62-3.69 3.31-.57 1.7-.22 3.53.95 4.9 7.67 8.99 18.71 14.15 30.28 14.15s22.61-5.16 30.28-14.15c1.17-1.37 1.52-3.2.95-4.9-.56-1.7-1.95-2.93-3.69-3.31z"/><path d="m68.94 27.87c-.01-1.74-.84-3.36-2.25-4.38l-27.77-20.03c-1.89-1.36-4.44-1.37-6.34-.01l-27.6 19.81c-1.43 1.02-2.27 2.67-2.26 4.43l.05 12.83c.01 2.99 2.44 5.4 5.42 5.4h.02c3-.01 5.41-2.45 5.4-5.45l-.04-10.04 22.16-15.9 22.37 16.14.04 10.07c.01 2.99 2.44 5.4 5.42 5.4h.02c3-.01 5.41-2.45 5.4-5.45z"/><path d="m111.24 53.59c2.79-4.26 9.94-3.92 12.13.15.51-.47 1-.98 1.54-1.42 2.55-2.03 6.2-2.39 8.88-.86 2.04 1.17 3.2 3.02 3.72 5.24.29 1.22.46 2.49.48 3.74.06 3.71.02 7.42.02 11.12 0 .82-.2 1.02-1.02 1.02-1.47 0-2.95 0-4.42 0-.83 0-1-.17-1-1.02 0-3.64 0-7.29-.01-10.93 0-.49-.04-.99-.15-1.47-.38-1.66-1.45-2.54-3.03-2.53-1.55.01-2.81 1.03-3.14 2.59-.1.46-.12.95-.12 1.43 0 3.61.01 7.22.01 10.84 0 .93-.17 1.1-1.08 1.1-1.49 0-2.98 0-4.47 0-.68 0-.89-.21-.89-.89 0-3.71.01-7.42-.01-11.12 0-.58-.09-1.19-.26-1.74-.49-1.52-1.76-2.32-3.36-2.2-1.4.11-2.5 1.13-2.78 2.63-.07.39-.11.79-.11 1.19-.01 3.71 0 7.42-.01 11.12 0 .81-.2 1.01-1.03 1.01-1.49 0-2.98 0-4.47 0-.92 0-1.1-.17-1.1-1.08 0-1.77 0-3.55 0-5.32 0-4.73 0-9.46 0-14.19 0-.21.01-.42.03-.62.05-.37.27-.59.64-.59 1.14-.01 2.27-.04 3.41.01.58.02.95.43 1.1.99.19.56.33 1.15.5 1.8z"/><path d="m185.02 53.7c.27-.74.52-1.4.74-2.06.15-.42.41-.59.86-.58 1.09.03 2.18.01 3.27.01.82 0 .98.16.99.98v15.24 4.65c0 .75-.18.92-.94.92-1.18 0-2.37-.01-3.55.01-.48.01-.8-.18-.99-.6-.24-.52-.47-1.04-.72-1.59-1.01 1.02-2.14 1.79-3.49 2.18-2.81.81-5.48.32-7.94-1.12-3.62-2.13-5.4-5.37-5.46-9.55-.08-5.13 3.13-9.57 7.98-10.93 2.8-.78 5.52-.63 7.95 1.21.23.17.45.36.66.56.19.19.38.4.64.67zm-5.98 13.7c2.89.01 5.27-2.39 5.28-5.34.01-2.97-2.32-5.41-5.2-5.42-2.9-.01-5.16 2.33-5.17 5.35-.02 3.07 2.18 5.39 5.09 5.41z"/><path d="m231.08 70.68c-1.01 1.01-2.14 1.79-3.49 2.18-2.81.81-5.48.33-7.94-1.12-3.83-2.26-5.56-5.72-5.46-10.12.11-4.82 3.33-9.06 7.97-10.35 2.8-.78 5.52-.63 7.95 1.2.23.17.45.36.66.56s.4.41.66.67c.23-.65.44-1.24.66-1.82.28-.77.33-.8 1.14-.8h3.07c.82 0 .99.16.99.97v14.19 5.66c0 .81-.17.97-.99.97-1.17 0-2.34-.02-3.51.01-.48.01-.8-.18-.99-.6-.24-.52-.47-1.04-.72-1.6zm-5.54-14.05c-2.9-.02-5.17 2.32-5.19 5.34-.02 3.07 2.17 5.41 5.08 5.43 2.9.02 5.28-2.38 5.29-5.33.02-2.98-2.31-5.42-5.18-5.44z"/><path d="m108.98 33.04c.45 1.97 2.17 3.51 4.15 3.71 2.07.21 3.98-.16 5.57-1.65.67-.63.96-.57 1.5.18.66.91 1.32 1.81 1.97 2.72.37.52.33.78-.14 1.2-5.16 4.71-14.18 4.11-18.1-3.09-3.28-6.01-.18-14.88 7.96-16.13 5.94-.91 11.23 3.19 11.88 9.18.08.73.1 1.47.08 2.2-.02.98-.47 1.47-1.43 1.6-.41.06-.83.07-1.24.07-3.86 0-7.72 0-11.58 0-.2.01-.39.01-.62.01zm8.89-4.91c-.51-1.52-2.21-3.25-4.61-3.1-1.64.1-3.61 1.64-3.87 3.1z"/><path d="m86.96 63.78c.31 1.86 2.16 3.52 4.15 3.71 2.07.2 3.98-.18 5.56-1.66.65-.61.94-.54 1.47.17.67.92 1.34 1.83 2 2.76.36.5.31.76-.13 1.16-4.74 4.36-12.97 4.25-17.36-1.82-4.17-5.77-1.76-14.89 5.77-17.08 6.18-1.8 12.4 2.18 13.28 8.52.12.85.12 1.72.11 2.58-.01.96-.47 1.44-1.41 1.58-.41.06-.83.07-1.24.07-3.87.01-7.75 0-11.62 0-.2.01-.39.01-.58.01zm.37-4.93h8.5c-.67-1.92-2.55-3.16-4.6-3.09-1.64.07-3.5 1.54-3.9 3.09z"/><path d="m149.04 19.84c6.27.02 11.34 5.04 11.31 11.2-.03 6.17-5.15 11.2-11.36 11.17-6.23-.03-11.28-5.04-11.28-11.2 0-6.17 5.08-11.19 11.33-11.17zm-.45 5.77c-1.27.03-2.63.73-3.59 2.13-1.04 1.52-1.23 3.2-.75 4.95.6 2.21 2.42 3.66 4.63 3.74 2.14.08 4-1.24 4.78-3.4.35-.98.42-1.98.28-3.02-.35-2.52-2.43-4.4-5.35-4.4z"/><path d="m203.04 50.76c2.24-.04 4.3.62 6.03 2.2.38.35.77.68 1.13 1.03.32.31.34.67.01.97-.98.87-1.97 1.73-2.97 2.58-.27.23-.56.18-.84-.03-.33-.25-.65-.52-.99-.76-.99-.7-2.09-.83-3.25-.57-.09.02-.19.05-.27.1-.34.17-.65.35-.68.79-.03.46.19.78.59.95.47.2.96.37 1.44.53 1.27.43 2.57.79 3.81 1.3 1.43.58 2.6 1.5 3.29 2.94 1.62 3.42.98 7.73-3.39 9.62-3.66 1.58-7.26 1.24-10.59-.99-.74-.5-1.32-1.24-1.93-1.92-.42-.47-.38-.92.06-1.37.79-.8 1.59-1.57 2.4-2.35.36-.34.63-.31 1.11.03.69.49 1.37 1.01 2.1 1.42 1.03.58 2.15.7 3.31.44.92-.21 1.43-1.04 1.06-1.83-.15-.33-.5-.64-.83-.79-.73-.33-1.51-.53-2.26-.8-.8-.28-1.61-.53-2.39-.88-2.84-1.26-4.19-3.47-4.14-6.56.03-2.04.93-3.58 2.63-4.67 1.67-1.07 3.54-1.38 5.56-1.38z"/><path d="m91.72 32.67c.62-1.83 1.19-3.52 1.76-5.21.73-2.17 1.46-4.35 2.2-6.52.24-.72.48-.89 1.22-.89h4.75c.94 0 1.11.25.73 1.13-.96 2.28-1.93 4.55-2.9 6.83-1.81 4.26-3.61 8.52-5.42 12.78-.4.95-.57 1.06-1.58 1.06-.66 0-1.31-.03-1.97.01-.7.04-1.1-.28-1.35-.9-1.13-2.71-2.28-5.41-3.42-8.11-1.57-3.72-3.15-7.43-4.71-11.15-.12-.28-.21-.57-.24-.87-.05-.47.19-.75.66-.76 1.73-.02 3.46-.03 5.19 0 .59.01.8.51.97.99.64 1.82 1.28 3.64 1.93 5.46.72 2.01 1.43 4.02 2.18 6.15z"/><path d="m158.97 50.79c2.59-.02 4.88.81 6.91 2.39.56.44.59.58.2 1.18-.7 1.09-1.41 2.17-2.12 3.26-.36.56-.58.61-1.14.24-1-.67-2.07-1.13-3.28-1.25-2.74-.25-5.16 1.69-5.49 4.43-.13 1.03-.08 2.04.26 3.02.97 2.79 3.98 4.1 6.67 2.87.59-.27 1.15-.63 1.71-.97s.83-.3 1.2.24c.72 1.05 1.45 2.11 2.17 3.17.47.69.43.94-.23 1.44-7 5.36-16.44 1.32-17.91-6.6-1.14-6.14 2.74-11.95 8.81-13.16.74-.15 1.5-.18 2.24-.26z"/><path d="m134.25 31.57c0 3.24-.05 6.49.01 9.73.08 4.42-3.03 7.06-6.84 7.53-.62.08-1.24.1-1.87.1-.77-.01-1.05-.33-1.05-1.09 0-1.04-.01-2.08 0-3.12.01-.76.21-.95.98-.97 1.42-.04 1.97-.53 2.13-1.92.04-.4.07-.8.07-1.19 0-6.46 0-12.91 0-19.37 0-1.12.1-1.22 1.24-1.22h4.03c1.22 0 1.29.07 1.29 1.31.01 3.4.01 6.81.01 10.21z"/><path d="m130.95 17.39c-.74 0-1.47.02-2.21-.01-.83-.04-1.14-.38-1.15-1.21-.01-1.09-.01-2.17 0-3.26.01-.96.42-1.39 1.36-1.4 1.33-.02 2.66-.02 3.98 0 .81.01 1.24.39 1.26 1.19.04 1.23.03 2.46 0 3.69-.02.65-.35.96-1 .99-.74.03-1.49.01-2.24.01z"/></g></svg>