<?xml version="1.0" encoding="utf-8"?>
<!-- Generator: Adobe Illustrator 24.0.1, SVG Export Plug-In . SVG Version: 6.00 Build 0)  -->
<svg version="1.1" xmlns="http://www.w3.org/2000/svg" xmlns:xlink="http://www.w3.org/1999/xlink" x="0px" y="0px"
	 viewBox="0 0 60.64 60.64" style="enable-background:new 0 0 60.64 60.64;" xml:space="preserve">
<style type="text/css">
	.st0{clip-path:url(#SVGID_2_);}
	.st1{fill:#DADADA;}
	.st2{fill:#FFFFFF;}
	.st3{fill:#878787;}
	.st4{fill-rule:evenodd;clip-rule:evenodd;fill:#878787;}
</style>
<g id="Fundo">
</g>
<g id="Site">
	<g>
		<path class="st3" d="M30.32,13.97c-1.51,0-2.73,1.22-2.73,2.73v16.36c0,1.51,1.22,2.73,2.73,2.73h10.91
			c1.51,0,2.73-1.22,2.73-2.73c0-1.51-1.22-2.73-2.73-2.73h-8.18V16.69C33.05,15.18,31.83,13.97,30.32,13.97z"/>
		<path class="st3" d="M52.33,11.04c-5.15-5.15-12-7.99-19.28-7.99s-14.13,2.84-19.28,7.99s-7.99,12-7.99,19.28H0.32L8.5,41.24
			l8.18-10.91h-5.45c0-5.83,2.27-11.31,6.39-15.43s9.6-6.39,15.43-6.39s11.31,2.27,15.43,6.39s6.39,9.6,6.39,15.43
			s-2.27,11.31-6.39,15.43c-8.51,8.51-22.35,8.51-30.85,0c-1.07-1.07-2.79-1.07-3.86,0c-1.07,1.07-1.07,2.79,0,3.86
			c5.32,5.32,12.3,7.97,19.28,7.97s13.97-2.66,19.28-7.97c5.15-5.15,7.99-12,7.99-19.28S57.48,16.19,52.33,11.04z"/>
	</g>
</g>
</svg>
