<?xml version="1.0" encoding="utf-8"?>
<!-- Generator: Adobe Illustrator 24.0.1, SVG Export Plug-In . SVG Version: 6.00 Build 0)  -->
<svg version="1.1" xmlns="http://www.w3.org/2000/svg" xmlns:xlink="http://www.w3.org/1999/xlink" x="0px" y="0px"
	 viewBox="0 0 78.19 68.32" style="enable-background:new 0 0 78.19 68.32;" xml:space="preserve">
<style type="text/css">
	.st0{fill:#FFFFFF;}
	.st1{fill:#EB5766;}
	.st2{fill:#1C1E1D;}
	.st3{fill:none;}
	.st4{fill-rule:evenodd;clip-rule:evenodd;fill:#FFFFFF;}
	.st5{fill-rule:evenodd;clip-rule:evenodd;fill:#9D9D9C;}
	.st6{fill:#9D9D9C;}
	.st7{fill:#F7F8FA;}
	.st8{fill:#EF7D34;}
	.st9{fill:#31BEEF;}
	.st10{fill:#DC4419;}
	.st11{opacity:0.6;}
	.st12{fill:#455A64;}
	.st13{fill:#263239;}
	.st14{fill:none;stroke:#DC4419;stroke-width:3;stroke-miterlimit:10;}
	.st15{fill:#0F72B9;}
	.st16{fill:#3AB8BD;}
	.st17{fill:#74B73A;}
	.st18{fill:#97A3AA;}
	.st19{fill:#F8B333;}
	.st20{fill:#E73E33;}
	.st21{fill:#DC4438;}
	.st22{fill:#020203;}
	.st23{display:none;}
	.st24{display:inline;opacity:0.3;fill:#3AAA35;}
	.st25{display:inline;opacity:0.3;fill:#E71D73;}
	.st26{display:inline;opacity:0.1;fill:#009FE3;}
</style>
<g id="Fundo">
</g>
<g id="Site">
	<g>
		<path class="st10" d="M69.63,37.08h-1.15v-7.43C68.48,13.29,55.35,0,39.18,0S9.88,13.31,9.88,29.65v7.43H8.74
			C3.97,37.08,0,40.93,0,45.73v13.89c0,4.82,3.97,8.7,8.74,8.7h9.37c1.16,0,2.19-0.92,2.19-2.1V39.13c0-1.16-1.02-2.05-2.19-2.05
			h-3.99v-7.43c0-14.01,11.24-25.42,25.06-25.42s25.06,11.4,25.06,25.42v7.43h-3.99c-1.16,0-2.19,0.88-2.19,2.05v27.09
			c0,1.16,1.02,2.1,2.19,2.1h9.37c4.77,0,8.56-3.88,8.56-8.7V45.73C78.19,40.93,74.39,37.08,69.63,37.08z"/>
	</g>
</g>
<g id="_x35_col" class="st23">
	<rect x="45.81" y="-636.5" class="st24" width="255" height="3454.69"/>
	<rect x="-229.19" y="-636.5" class="st24" width="255" height="3454.69"/>
</g>
<g id="_x34_col" class="st23">
	<rect x="-15.44" y="-636.5" class="st25" width="316.25" height="2357.43"/>
</g>
<g id="_x38__col" class="st23">
	<rect x="-15.44" y="-636.5" class="st26" width="143.12" height="3794.82"/>
</g>
</svg>
